<svg xmlns="http://www.w3.org/2000/svg" width="27" height="27" viewBox="0 0 27 27">
  <g id="Group_6477" data-name="Group 6477" transform="translate(-19.628 -19.628)">
    <g id="Group_6476" data-name="Group 6476" transform="translate(28.199 28.596)">
      <g id="Group_6474" data-name="Group 6474" transform="translate(0)">
        <path id="Path_14437" data-name="Path 14437" d="M45.192,43.935a.474.474,0,1,1-.671-.671l.851-.851H39.385a.474.474,0,1,1,0-.949h5.986l-.851-.851a.474.474,0,0,1,.671-.671l1.661,1.66a.475.475,0,0,1,0,.671l-1.661,1.661Z" transform="translate(-38.911 -39.804)" fill="#0ce6ad"/>
      </g>
      <g id="Group_6475" data-name="Group 6475" transform="translate(1.778 5.304)">
        <path id="Path_14438" data-name="Path 14438" d="M44.71,55.867,43.05,54.206a.475.475,0,0,1,0-.671l1.661-1.66a.474.474,0,0,1,.671.671l-.851.851h5.986a.474.474,0,1,1,0,.949H44.53l.851.851a.474.474,0,0,1-.671.671Z" transform="translate(-42.911 -51.736)" fill="#0ce6ad"/>
      </g>
    </g>
    <g id="surface1" transform="translate(19.628 19.628)">
      <path id="Path_14439" data-name="Path 14439" d="M30.889,19.628a.868.868,0,0,0-.876.877v4.478a.867.867,0,0,0,.876.876h4.479a.867.867,0,0,0,.876-.876V20.5a.868.868,0,0,0-.876-.877ZM20.5,30.013a.868.868,0,0,0-.877.876v4.479a.868.868,0,0,0,.877.876h4.478a.867.867,0,0,0,.876-.876V30.889a.867.867,0,0,0-.876-.876Zm20.769,0a.867.867,0,0,0-.876.876v4.479a.867.867,0,0,0,.876.876h4.478a.868.868,0,0,0,.877-.876V30.889a.868.868,0,0,0-.877-.876ZM30.889,40.4a.867.867,0,0,0-.876.876v4.478a.868.868,0,0,0,.876.877h4.479a.868.868,0,0,0,.876-.877V41.273a.867.867,0,0,0-.876-.876Z" transform="translate(-19.628 -19.628)" fill="#079CEE"/>
    </g>
    <path id="Path_14440" data-name="Path 14440" d="M30.653,24.52a5.89,5.89,0,0,0-6.133,6.133.941.941,0,0,0,1.882,0A3.927,3.927,0,0,1,30.653,26.4a.941.941,0,0,0,0-1.882Z" transform="translate(-2.718 -2.718)" fill="#a95adf"/>
    <path id="Path_14441" data-name="Path 14441" d="M60.182,24.52a.946.946,0,0,0,.195,1.882,3.927,3.927,0,0,1,4.251,4.251.941.941,0,0,0,1.882,0,5.89,5.89,0,0,0-6.133-6.133h-.195Z" transform="translate(-22.057 -2.718)" fill="#a95adf"/>
    <path id="Path_14442" data-name="Path 14442" d="M25.363,59.483a.925.925,0,0,0-.1.032.934.934,0,0,0-.746.941,5.89,5.89,0,0,0,6.133,6.133.941.941,0,0,0,0-1.882A3.927,3.927,0,0,1,26.4,60.456a.938.938,0,0,0-1.039-.973Z" transform="translate(-2.717 -22.136)" fill="#a95adf"/>
    <path id="Path_14443" data-name="Path 14443" d="M65.6,59.483a.925.925,0,0,0-.1.032.935.935,0,0,0-.747.941A3.927,3.927,0,0,1,60.5,64.708a.941.941,0,0,0,0,1.882,5.89,5.89,0,0,0,6.133-6.133.938.938,0,0,0-1.038-.973Z" transform="translate(-22.185 -22.136)" fill="#a95adf"/>
  </g>
</svg>
