<svg xmlns="http://www.w3.org/2000/svg" xmlns:xlink="http://www.w3.org/1999/xlink" width="1208" height="278" viewBox="0 0 1208 278"><defs><clipPath id="a"><rect width="1208" height="278" transform="translate(5878 3237)"/></clipPath></defs><g transform="translate(-5878 -3237)" clip-path="url(#a)"><g transform="translate(-40 -1177)" opacity="0.1"><path d="M.94,97.621C14.883,55.933,43.091-13.3,162.885,2.229s132.4,71.436,235.153,73.208c40.53.7,65.212,22.309,76.258,50.532C498.335,187.392-25.094,175.464.94,97.621Z" transform="matrix(0.996, 0.087, -0.087, 0.996, 5755.371, 4571.096)"/><path d="M62.721,127.745c13.943-41.688,42.15-110.921,161.945-95.392s132.4,71.436,235.153,73.208c38.986.672,63.309,20.693,74.927,47.317C561.519,214.23,36.687,205.588,62.721,127.745Z" transform="translate(5674.473 4599.165) rotate(-3)" fill="#fff"/><circle cx="10.476" cy="10.476" r="10.476" transform="translate(6096.721 4624.962) rotate(-3)"/><circle cx="4.609" cy="4.609" r="4.609" transform="translate(6134.382 4622.988) rotate(-3)"/><circle cx="2.095" cy="2.095" r="2.095" transform="translate(6148.701 4607.972) rotate(-3)"/></g></g></svg>