<svg xmlns="http://www.w3.org/2000/svg" width="153.652" height="33.956" viewBox="0 0 153.652 33.956">
  <g id="Group_6834" data-name="Group 6834" transform="translate(-8.905 -7.534)">
    <path id="Path_14969" data-name="Path 14969" d="M8.9,54.466l14.082,0H31.55V45.987Z" transform="translate(0 -34.447)" fill="#ff9d28"/>
    <path id="Path_14970" data-name="Path 14970" d="M226.285,11.54V41.49l10.7-33.956Z" transform="translate(-194.735)" fill="#68c5ed"/>
    <path id="Path_14971" data-name="Path 14971" d="M152.649,127.408h-8.563l8.563,21.468Z" transform="translate(-121.099 -107.385)" fill="#044d80"/>
    <path id="Path_14972" data-name="Path 14972" d="M8.9,127.38l16.278,5.511-2.2-5.508Z" transform="translate(0 -107.361)" fill="#e54747"/>
    <g id="Group_6833" data-name="Group 6833" transform="translate(45.335 13.6)">
      <path id="Path_14973" data-name="Path 14973" d="M374.052,85.766a3.947,3.947,0,0,1-.62.465,6.8,6.8,0,0,1-1.132.559,9.928,9.928,0,0,1-1.706.481,11.9,11.9,0,0,1-2.311.2,10.714,10.714,0,0,1-4.343-.806,8.085,8.085,0,0,1-3.024-2.249,9.214,9.214,0,0,1-1.752-3.412,15.827,15.827,0,0,1-.558-4.327,15,15,0,0,1,.6-4.358,9.777,9.777,0,0,1,1.814-3.459,8.339,8.339,0,0,1,3.024-2.28,10.264,10.264,0,0,1,4.265-.822,10.124,10.124,0,0,1,2.187.217,10.907,10.907,0,0,1,1.706.512,6.578,6.578,0,0,1,1.21.62,7.974,7.974,0,0,1,.729.543,2.468,2.468,0,0,1,.481.589,1.44,1.44,0,0,1,.2.745,2.062,2.062,0,0,1-.465,1.241,8.966,8.966,0,0,1-1.024,1.148q-.372-.372-.837-.76a5.666,5.666,0,0,0-1.039-.682,6.889,6.889,0,0,0-1.3-.5,6.112,6.112,0,0,0-1.628-.2,4.871,4.871,0,0,0-4.374,2.3,7.038,7.038,0,0,0-.931,2.342,12.921,12.921,0,0,0-.279,2.683,13.594,13.594,0,0,0,.279,2.791,6.655,6.655,0,0,0,.962,2.357,5.135,5.135,0,0,0,1.783,1.644,5.523,5.523,0,0,0,2.745.62,5.579,5.579,0,0,0,1.6-.217,6.405,6.405,0,0,0,1.287-.528,6.612,6.612,0,0,0,.977-.651q.419-.341.7-.59.186.218.434.527a7.47,7.47,0,0,1,.465.651,5.668,5.668,0,0,1,.372.682,1.523,1.523,0,0,1,.155.62,1.388,1.388,0,0,1-.155.683,2.958,2.958,0,0,1-.5.62Zm15.985-2.379a6.872,6.872,0,0,0,.718,3.589,6.138,6.138,0,0,1-1.045.312,5.324,5.324,0,0,1-1.014.094,2.79,2.79,0,0,1-1.7-.437,1.958,1.958,0,0,1-.733-1.248,5.631,5.631,0,0,1-1.81,1.217,6.76,6.76,0,0,1-2.746.5,6.309,6.309,0,0,1-1.685-.233,4.428,4.428,0,0,1-1.529-.762A3.955,3.955,0,0,1,377.367,85a4.851,4.851,0,0,1-.437-2.162,4.118,4.118,0,0,1,.765-2.582,5.444,5.444,0,0,1,1.919-1.571,8.69,8.69,0,0,1,2.5-.793,23.751,23.751,0,0,1,2.465-.28q.375-.031.733-.031h.671v-.568a2.047,2.047,0,0,0-.64-1.7,3.372,3.372,0,0,0-2.075-.505,6.146,6.146,0,0,0-2.387.437,19.515,19.515,0,0,0-2.044,1,4.576,4.576,0,0,1-.7-1.17,2.819,2.819,0,0,1-.265-.952,1.127,1.127,0,0,1,.484-.843,4.747,4.747,0,0,1,1.326-.733,10.81,10.81,0,0,1,1.935-.53,12.642,12.642,0,0,1,2.309-.2,10.268,10.268,0,0,1,2.855.343,4.464,4.464,0,0,1,1.9,1.061,4.031,4.031,0,0,1,1.045,1.794,9.075,9.075,0,0,1,.312,2.512v5.866Zm-3.994-3.62h-.437a3.12,3.12,0,0,0-.437.031q-.781.063-1.545.187a4.43,4.43,0,0,0-1.357.437,2.846,2.846,0,0,0-.967.811,2.076,2.076,0,0,0-.375,1.28,2.26,2.26,0,0,0,.5,1.482,2.065,2.065,0,0,0,1.685.609,3.945,3.945,0,0,0,1.123-.156,3.838,3.838,0,0,0,.936-.405,2.418,2.418,0,0,0,.64-.546.91.91,0,0,0,.234-.546V79.768Zm11.764-6.147a5.825,5.825,0,0,1,1.555-1.2,5.306,5.306,0,0,1,2.675-.608,6.209,6.209,0,0,1,2.193.39,4.805,4.805,0,0,1,1.851,1.264,6.31,6.31,0,0,1,1.291,2.309,11.18,11.18,0,0,1,.482,3.526,12.152,12.152,0,0,1-.56,4.01,6.858,6.858,0,0,1-1.446,2.5,4.983,4.983,0,0,1-1.975,1.295,6.662,6.662,0,0,1-2.178.375,5.437,5.437,0,0,1-1.571-.2,6.294,6.294,0,0,1-1.136-.453,3.013,3.013,0,0,1-.715-.5,2.954,2.954,0,0,1-.311-.343v7.671h-4.244v-21.4q.157-.031.377-.062.189-.031.44-.047t.6-.016a4.086,4.086,0,0,1,1.761.343,1.615,1.615,0,0,1,.912,1.155Zm5.617,5.773a9.315,9.315,0,0,0-.155-1.747,4.25,4.25,0,0,0-.512-1.4,2.491,2.491,0,0,0-.962-.921,3.06,3.06,0,0,0-1.474-.327,2.586,2.586,0,0,0-1.815.5,1.506,1.506,0,0,0-.512,1.092V83.2a3.968,3.968,0,0,0,.884.593,3.053,3.053,0,0,0,1.474.343,2.516,2.516,0,0,0,2.327-1.248A6.848,6.848,0,0,0,403.423,79.393Zm7.707,5.367a5.423,5.423,0,0,1-.281-1.311q-.063-.686-.062-1.373V67.6q.218-.031.468-.062.218-.031.468-.047t.5-.016a5.421,5.421,0,0,1,1,.094,2.332,2.332,0,0,1,.905.374,2.061,2.061,0,0,1,.655.765,2.761,2.761,0,0,1,.25,1.264v2.215H419.4v3.152H415.03v6.654q0,2.177,1.779,2.176a2.419,2.419,0,0,0,.827-.14,4.9,4.9,0,0,0,.7-.312,3.822,3.822,0,0,0,.546-.359q.234-.187.328-.281a10.522,10.522,0,0,1,.718,1.189,2.132,2.132,0,0,1,.25.943,1.249,1.249,0,0,1-.328.8,3.231,3.231,0,0,1-.921.725,5.727,5.727,0,0,1-1.435.535,7.787,7.787,0,0,1-1.841.2,5.218,5.218,0,0,1-3.011-.749,3.982,3.982,0,0,1-1.513-1.966Zm19.018-.406a4.981,4.981,0,0,0,1.378-.172,5.508,5.508,0,0,0,1.064-.421,4.427,4.427,0,0,0,.814-.546q.344-.3.626-.546a8.692,8.692,0,0,1,.783,1.2,2.66,2.66,0,0,1,.407,1.2,1.566,1.566,0,0,1-.78,1.248,5.84,5.84,0,0,1-1.857.858,9.923,9.923,0,0,1-2.824.359,11.264,11.264,0,0,1-2.886-.374,6.384,6.384,0,0,1-2.528-1.311,6.735,6.735,0,0,1-1.794-2.512,10,10,0,0,1-.686-3.979,8.568,8.568,0,0,1,.608-3.386,6.794,6.794,0,0,1,1.623-2.356,6.4,6.4,0,0,1,2.293-1.373,8.065,8.065,0,0,1,2.621-.437,7.226,7.226,0,0,1,2.964.546,5.4,5.4,0,0,1,1.982,1.467,5.776,5.776,0,0,1,1.108,2.106,8.946,8.946,0,0,1,.343,2.5v.437c0,.167-.005.343-.016.53s-.021.37-.031.546a3.39,3.39,0,0,1-.047.421h-9.206a4.927,4.927,0,0,0,1.064,2.855,3.636,3.636,0,0,0,2.974,1.139Zm1.422-6.335a4.562,4.562,0,0,0-.581-2.434,2.258,2.258,0,0,0-2.087-.936,2.58,2.58,0,0,0-2.056.889,3.671,3.671,0,0,0-.769,2.481h5.492ZM442.792,73.7a5.384,5.384,0,0,1,.5-.619,3.542,3.542,0,0,1,.765-.619,4.9,4.9,0,0,1,1-.465,3.606,3.606,0,0,1,1.17-.186,5.529,5.529,0,0,1,.8.062,2.755,2.755,0,0,1,.78.232,1.513,1.513,0,0,1,.577.464,1.187,1.187,0,0,1,.218.727,4.4,4.4,0,0,1-.343,1.564,12.756,12.756,0,0,1-.686,1.507,4.627,4.627,0,0,0-1.061-.671,3.075,3.075,0,0,0-1.248-.234,2.4,2.4,0,0,0-1.622.563,1.718,1.718,0,0,0-.656,1.346v10.1h-4.244V72.248q.156-.031.374-.062.187-.031.437-.047t.593-.016a3.667,3.667,0,0,1,1.732.387,1.733,1.733,0,0,1,.921,1.19Zm12.066,0a5.409,5.409,0,0,1,.5-.619,3.542,3.542,0,0,1,.765-.619,4.9,4.9,0,0,1,1-.465,3.607,3.607,0,0,1,1.17-.186,5.53,5.53,0,0,1,.8.062,2.758,2.758,0,0,1,.78.232,1.517,1.517,0,0,1,.578.464,1.188,1.188,0,0,1,.218.727,4.4,4.4,0,0,1-.343,1.564,12.8,12.8,0,0,1-.687,1.507,4.622,4.622,0,0,0-1.061-.671,3.074,3.074,0,0,0-1.248-.234,2.4,2.4,0,0,0-1.623.563,1.719,1.719,0,0,0-.655,1.346v10.1H450.8V72.248q.156-.031.375-.062.187-.031.437-.047t.593-.016a3.665,3.665,0,0,1,1.732.387,1.734,1.734,0,0,1,.921,1.19Zm20.252,9.688a6.872,6.872,0,0,0,.718,3.589,6.144,6.144,0,0,1-1.045.312,5.325,5.325,0,0,1-1.014.094,2.79,2.79,0,0,1-1.7-.437,1.958,1.958,0,0,1-.733-1.248,5.626,5.626,0,0,1-1.81,1.217,6.759,6.759,0,0,1-2.746.5,6.311,6.311,0,0,1-1.685-.233,4.426,4.426,0,0,1-1.529-.762A3.955,3.955,0,0,1,462.441,85,4.853,4.853,0,0,1,462,82.841a4.116,4.116,0,0,1,.765-2.582,5.443,5.443,0,0,1,1.919-1.571,8.687,8.687,0,0,1,2.5-.793,23.742,23.742,0,0,1,2.465-.28q.375-.031.733-.031h.671v-.568a2.047,2.047,0,0,0-.64-1.7,3.372,3.372,0,0,0-2.075-.505,6.147,6.147,0,0,0-2.387.437,19.54,19.54,0,0,0-2.044,1,4.582,4.582,0,0,1-.7-1.17,2.821,2.821,0,0,1-.265-.952,1.127,1.127,0,0,1,.484-.843,4.748,4.748,0,0,1,1.326-.733,10.813,10.813,0,0,1,1.935-.53,12.646,12.646,0,0,1,2.309-.2,10.27,10.27,0,0,1,2.855.343,4.464,4.464,0,0,1,1.9,1.061,4.034,4.034,0,0,1,1.046,1.794,9.083,9.083,0,0,1,.312,2.512v5.866Zm-3.994-3.62h-.437a3.12,3.12,0,0,0-.437.031q-.78.063-1.545.187a4.432,4.432,0,0,0-1.357.437,2.847,2.847,0,0,0-.967.811,2.077,2.077,0,0,0-.375,1.28A2.26,2.26,0,0,0,466.5,84a2.065,2.065,0,0,0,1.685.609,3.944,3.944,0,0,0,1.123-.156,3.836,3.836,0,0,0,.936-.405,2.417,2.417,0,0,0,.64-.546.909.909,0,0,0,.234-.546V79.768Z" transform="translate(-358.605 -65.76)" fill="#044d80"/>
    </g>
  </g>
</svg>
