<svg xmlns="http://www.w3.org/2000/svg" width="26.968" height="26.249" viewBox="0 0 26.968 26.249">
  <g id="Group_6469" data-name="Group 6469" transform="translate(-408 -264)">
    <g id="Group_6468" data-name="Group 6468" transform="translate(408 264)">
      <g id="Group_6467" data-name="Group 6467" transform="translate(0 0)">
        <g id="Group_6466" data-name="Group 6466" transform="translate(0 1.45)">
          <path id="Path_14419" data-name="Path 14419" d="M23.36,53.995A.978.978,0,0,0,24.4,55.032H45.142a.978.978,0,0,0,1.037-1.037V39.474H23.36Z" transform="translate(-21.285 -32.308)" fill="none"/>
          <path id="Path_14420" data-name="Path 14420" d="M42.372,24.721a16.5,16.5,0,0,0-1.93.014c-1.266.051-.95-.961-1.695-1.679s-1.565-.057-2.185.421A4.389,4.389,0,0,1,33.9,24.721c-1.331-.008-12.269,0-12.269,0a3.057,3.057,0,0,0-3.112,3.111v16.6a3.057,3.057,0,0,0,3.112,3.112H42.372a3.057,3.057,0,0,0,3.112-3.112v-16.6A3.057,3.057,0,0,0,42.372,24.721Zm-16.348,2.15a.706.706,0,1,1-.706.706A.706.706,0,0,1,26.024,26.871Zm-2.186,0a.706.706,0,1,1-.706.706A.706.706,0,0,1,23.837,26.871Zm-2.186,0a.706.706,0,1,1-.706.706A.706.706,0,0,1,21.651,26.871ZM43.409,44.428a.978.978,0,0,1-1.037,1.037H21.628a.978.978,0,0,1-1.037-1.037V29.907H43.409Z" transform="translate(-18.516 -22.741)" fill="#079CEE"/>
        </g>
        <circle id="Ellipse_2333" data-name="Ellipse 2333" cx="0.653" cy="0.653" r="0.653" transform="translate(21.066)" fill="#a95adf"/>
        <circle id="Ellipse_2334" data-name="Ellipse 2334" cx="0.352" cy="0.352" r="0.352" transform="translate(23.2 0.604)" fill="#0ce6ad"/>
      </g>
      <path id="Path_14421" data-name="Path 14421" d="M32.4,54.338a.564.564,0,0,0-.445.574V56.69a.563.563,0,1,0,1.111,0V54.913a.554.554,0,0,0-.178-.424.562.562,0,0,0-.433-.151Z" transform="translate(-26.197 -39.355)" fill="#ff673c"/>
      <path id="Path_14422" data-name="Path 14422" d="M36.554,50.188a.563.563,0,0,0-.445.574v5.333a.563.563,0,1,0,1.111,0V50.762a.554.554,0,0,0-.178-.424.561.561,0,0,0-.433-.15Z" transform="translate(-28.57 -36.982)" fill="#a95adf"/>
      <path id="Path_14423" data-name="Path 14423" d="M40.7,44.653a.564.564,0,0,0-.444.574V55.3a.563.563,0,1,0,1.111,0V45.228a.555.555,0,0,0-.178-.424.563.563,0,0,0-.433-.151Z" transform="translate(-30.943 -33.817)" fill="#0ce6ad"/>
      <path id="Path_14424" data-name="Path 14424" d="M44.855,51.571a.564.564,0,0,0-.445.574v4.147a.563.563,0,1,0,1.111,0V52.146a.554.554,0,0,0-.178-.424.562.562,0,0,0-.433-.151Z" transform="translate(-33.316 -37.773)" fill="#079CEE"/>
      <path id="Path_14425" data-name="Path 14425" d="M49.006,54.338a.564.564,0,0,0-.445.574V56.69a.563.563,0,1,0,1.111,0V54.913a.554.554,0,0,0-.178-.424.563.563,0,0,0-.433-.151Z" transform="translate(-35.689 -39.355)" fill="#ff673c"/>
      <path id="Path_14426" data-name="Path 14426" d="M53.157,48.8a.563.563,0,0,0-.444.574V55.9a.563.563,0,1,0,1.111,0V49.378a.556.556,0,0,0-.178-.424.563.563,0,0,0-.433-.15Z" transform="translate(-38.062 -36.191)" fill="#a95adf"/>
      <path id="Path_14427" data-name="Path 14427" d="M57.307,43.27a.563.563,0,0,0-.445.574V55.1a.563.563,0,1,0,1.111,0V43.844a.564.564,0,0,0-.611-.574Z" transform="translate(-40.435 -33.027)" fill="#0ce6ad"/>
      <path id="Path_14428" data-name="Path 14428" d="M61.458,51.571a.564.564,0,0,0-.445.574v4.147a.563.563,0,1,0,1.111,0V52.146a.554.554,0,0,0-.178-.424.563.563,0,0,0-.433-.151Z" transform="translate(-42.808 -37.773)" fill="#079CEE"/>
      <g id="surface1" transform="translate(19.975 14.982)">
        <path id="Path_14429" data-name="Path 14429" d="M65.609,54.338a.563.563,0,0,0-.444.574V56.69a.563.563,0,1,0,1.111,0V54.913a.555.555,0,0,0-.178-.424.563.563,0,0,0-.433-.151Z" transform="translate(-65.157 -54.336)" fill="#ff673c"/>
      </g>
    </g>
  </g>
</svg>
