<?xml version="1.0" encoding="utf-8"?>
<!-- Generator: Adobe Illustrator 25.2.0, SVG Export Plug-In . SVG Version: 6.00 Build 0)  -->
<svg version="1.1" id="Layer_1" xmlns="http://www.w3.org/2000/svg" xmlns:xlink="http://www.w3.org/1999/xlink" x="0px" y="0px"
	 viewBox="0 0 72.6 45" style="enable-background:new 0 0 72.6 45;" xml:space="preserve" height="45">
<g id="Layer_2_1_">
	<g id="Layer_1-2">
		<path style="fill:#079CEE;" d="M60.2,41.2H12.9c-3.4,0-6.1-2.7-6.1-6.1v-29C6.8,2.7,9.5,0,12.9,0c0,0,0,0,0,0h47.4
			c3.4,0,6.1,2.7,6.1,6.1c0,0-0.1,2.9,0,5.9s2.5,0.8,3.4,2.9s-3.4,6-3.4,9.6s0,10.6,0,10.6C66.3,38.4,63.6,41.2,60.2,41.2
			C60.3,41.2,60.3,41.2,60.2,41.2z M12.9,4.4c-0.9,0-1.7,0.8-1.7,1.7v29c0,0.9,0.8,1.7,1.7,1.7h47.4c0.9,0,1.7-0.8,1.7-1.7l0,0v-29
			c0-0.9-0.8-1.7-1.7-1.7H12.9z"/>
		<path style="fill:#078CD6;" d="M1.7,39.6h66.9c0.9,0,1.7,0.8,1.7,1.7v1.9c0,0.9-0.8,1.7-1.7,1.7H1.7C0.8,45,0,44.2,0,43.3v-1.9
			C0,40.4,0.8,39.6,1.7,39.6z"/>
		<path style="fill:#9A59C5;" d="M37.7,16.6l-6.1-4.3c-0.3-0.2-0.8-0.2-1.1,0l-8.7,6.8c-0.4,0.4-0.4,1-0.1,1.4
			c0.2,0.2,0.4,0.3,0.7,0.3c0.2,0,0.4-0.1,0.6-0.2l8.2-6.3l6.1,4.3c0.4,0.2,0.9,0.2,1.2-0.1l9.9-8.5l-1.4-1.4L37.7,16.6z"/>
		<polygon style="fill:#A95ADF;" points="50.6,6.5 46.1,7.8 46.9,8.7 48.3,10.1 49.2,10.9 		"/>
		<path style="fill:#00BF8C;" d="M16,25.5h41c0.8,0,1.5,0.7,1.5,1.5v0c0,0.8-0.7,1.5-1.5,1.5H16c-0.8,0-1.5-0.7-1.5-1.5v0
			C14.5,26.1,15.2,25.5,16,25.5z"/>
		<path style="fill:#FF6F47;" d="M15.9,30.6h17.9c0.8,0,1.5,0.7,1.5,1.5v0c0,0.8-0.7,1.5-1.5,1.5H15.9c-0.8,0-1.5-0.7-1.5-1.5v0
			C14.4,31.3,15.1,30.6,15.9,30.6z"/>
		<path style="fill:#079CEE;" d="M39.1,30.6H57c0.8,0,1.5,0.7,1.5,1.5v0c0,0.8-0.7,1.5-1.5,1.5H39.1c-0.8,0-1.5-0.7-1.5-1.5v0
			C37.6,31.3,38.3,30.6,39.1,30.6z"/>
		<path style="fill:#079CEE;" d="M68.8,11.3c0-0.8,0.6-1.5,1.4-1.6c0.8,0,1.5,0.6,1.6,1.4s-0.6,1.5-1.4,1.6
			C69.6,12.8,68.9,12.2,68.8,11.3"/>
		<circle style="fill:#079CEE;" cx="71.8" cy="7.5" r="0.8"/>
	</g>
</g>
</svg>
