<svg xmlns="http://www.w3.org/2000/svg" width="572.032" height="326.989" viewBox="0 0 572.032 326.989"><g transform="translate(-162 -1802.986)"><g transform="translate(162 1804)"><g transform="translate(12.654 0)"><g transform="translate(179.985 51.534)"><path d="M665.152,438.189l2.516-3.781-2.331-3.483h1.919l.98,1.479a5.2,5.2,0,0,1,.4.654q.242-.441.384-.654l.995-1.479h1.919l-2.346,3.483,2.531,3.781H670.2l-1.18-1.762q-.142-.214-.384-.654a4.273,4.273,0,0,1-.4.654l-1.165,1.762Z" transform="translate(-665.152 -430.925)" fill="#ccc"/></g><path d="M1028.8,717.417a13.5,13.5,0,0,1,13.076-10.133l99.144.017" transform="translate(-686.277 -532.228)" fill="none" stroke="#ccc" stroke-linecap="round" stroke-linejoin="round" stroke-width="2"/><path d="M1027.852,737.476" transform="translate(-685.754 -548.925)" fill="none" stroke="#ccc" stroke-linecap="round" stroke-linejoin="round" stroke-width="2"/><path d="M1056.317,784.929l53.559.005a15.231,15.231,0,0,0,15.233-15.229h0a15.231,15.231,0,0,0-15.229-15.233l-68.168-.009a13.5,13.5,0,0,1-13.2-10.679" transform="translate(-686.119 -552.413)" fill="none" stroke="#ccc" stroke-linecap="round" stroke-linejoin="round" stroke-width="2"/><g transform="translate(464.878 114.939)"><path d="M1304.47,572.781l1.165,1.762a4.293,4.293,0,0,1,.4.654q.242-.44.384-.654l1.18-1.762h1.919l-2.531,3.781,2.346,3.483h-1.919l-.995-1.479q-.142-.213-.384-.654a5.19,5.19,0,0,1-.4.654l-.98,1.479h-1.919l2.331-3.483-2.516-3.781Z" transform="translate(-1302.551 -572.781)" fill="#ccc"/></g><path d="M915.79,553.987h32.947a15.374,15.374,0,0,0,15.233-15.4h0a15.232,15.232,0,0,0-15.229-15.233l-68.168-.009a13.5,13.5,0,0,1-13.495-13.5h0a13.5,13.5,0,0,1,13.5-13.495l47.065.006" transform="translate(-596.84 -415.576)" fill="none" stroke="#ccc" stroke-linecap="round" stroke-linejoin="round" stroke-width="2"/><path d="M682.52,438.132a31.967,31.967,0,0,1,27.391,31.64l-.008,36.366.164,2.151h0a13.5,13.5,0,0,0,13.495,13.5h24.617" transform="translate(-494.773 -383.376)" fill="none" stroke="#ccc" stroke-linecap="round" stroke-linejoin="round" stroke-width="2"/><path d="M661.049,743.77v19.474a22.3,22.3,0,0,0,22.293,22.3l146.561.021" transform="translate(-482.898 -552.406)" fill="none" stroke="#ccc" stroke-linecap="round" stroke-linejoin="round" stroke-width="2"/><path d="M601.944,594.137v14.928c0,7.155,6.312,12.956,13.467,12.957h0a12.953,12.953,0,0,1,12.951,12.957v19.85" transform="translate(-450.211 -469.653)" fill="none" stroke="#ccc" stroke-linecap="round" stroke-linejoin="round" stroke-width="2"/><path d="M628.383,438.28c-15.27,2.4-26.437,15.619-26.439,31.565v11.526" transform="translate(-450.211 -383.458)" fill="none" stroke="#ccc" stroke-linecap="round" stroke-linejoin="round" stroke-width="2"/><path d="M521.7,743.77v41.545a13.035,13.035,0,0,0,13.033,13.036h22.348a13.033,13.033,0,0,1,13.032,13.036l0,14.182a18.406,18.406,0,0,0,18.4,18.408l21.253,0a14.077,14.077,0,0,0,14.078-14.075" transform="translate(-405.835 -552.406)" fill="none" stroke="#ccc" stroke-linecap="round" stroke-linejoin="round" stroke-width="2"/><path d="M454.122,692.135l0-15.311a15.231,15.231,0,0,1,15.233-15.229,15.012,15.012,0,0,1,14.971,15.233v15.307" transform="translate(-368.46 -506.96)" fill="none" stroke="#ccc" stroke-linecap="round" stroke-linejoin="round" stroke-width="2"/><path d="M393.735,743.77c0,8.956.038,19.83.038,28.786a13.473,13.473,0,1,0,26.947,0l0-28.789" transform="translate(-335.064 -552.406)" fill="none" stroke="#ccc" stroke-linecap="round" stroke-linejoin="round" stroke-width="2"/><path d="M290.956,660.227c6.185-10.228,14.815-18.9,26.424-22.446,4.448-1.357,9.693-1.025,13.209,2.018,7.655,6.628,6.4,23.857,6.343,32.907-.009,1.5-.017,4.339-.022,5.837" transform="translate(-278.223 -493.369)" fill="none" stroke="#ccc" stroke-linecap="round" stroke-linejoin="round" stroke-width="2"/><path d="M400.745,900.838c-15.153-.049-32.112-.613-46.852-3.842-34.876-7.641-67.8-29.748-82.332-63.192a107.352,107.352,0,0,1-9.066-44.965" transform="translate(-262.468 -577.331)" fill="none" stroke="#ccc" stroke-linecap="round" stroke-linejoin="round" stroke-width="2"/><path d="M824.457,970.659l68.168.009A15.231,15.231,0,0,1,907.854,985.9a15.429,15.429,0,0,1-15.233,15.459c-47.126,0-95.206-.074-142.7,0-8.585.013-18.958.042-27.544.065" transform="translate(-516.816 -677.884)" fill="none" stroke="#ccc" stroke-linecap="round" stroke-linejoin="round" stroke-width="2"/><path d="M1020.455,1000.694" transform="translate(-681.663 -694.494)" fill="none" stroke="#ccc" stroke-linecap="round" stroke-linejoin="round" stroke-width="2"/><path d="M870.679,902.28,852,902.3l-33.107.018a15.232,15.232,0,0,0-15.229,15.233h0a15.232,15.232,0,0,0,15.233,15.229l68.168-.009" transform="translate(-561.767 -640.068)" fill="none" stroke="#ccc" stroke-linecap="round" stroke-linejoin="round" stroke-width="2"/><path d="M1223.73,779.762a17.888,17.888,0,0,1-17.828,16.4h0a17.887,17.887,0,0,0-17.888,17.884l0,2.547a17.886,17.886,0,0,1-17.888,17.884l-64.592-.008" transform="translate(-728.714 -572.311)" fill="none" stroke="#ccc" stroke-linecap="round" stroke-linejoin="round" stroke-width="2"/><path d="M1312.135,747c35.323,7.005,49.4,43.428,40.409,74.895-7.488,26.217-25.721,38.634-56.732,38.634H1229" transform="translate(-796.996 -554.192)" fill="none" stroke="#ccc" stroke-linecap="round" stroke-linejoin="round" stroke-width="2"/><path d="M612.694,337.03c28.066-17.052,62.936-24.8,98.872-20,54.945,7.343,91.693,34.559,111.714,79.163,1.859,4.143,3.2,4.527,8.692,4.528l22.841.181a16.057,16.057,0,0,1,16.054,16.063v33.058a16.061,16.061,0,0,0,16.059,16.063h-.349a16.061,16.061,0,0,0,16.063-16.059h.059a16.011,16.011,0,0,1,16-16.059" transform="translate(-456.156 -315.626)" fill="none" stroke="#ccc" stroke-linecap="round" stroke-linejoin="round" stroke-width="2"/><path d="M480.912,501.8A100.127,100.127,0,0,1,494.36,468" transform="translate(-383.276 -399.895)" fill="none" stroke="#ccc" stroke-linecap="round" stroke-linejoin="round" stroke-width="2"/><path d="M465.739,656.925" transform="translate(-374.885 -504.377)" fill="none" stroke="#ccc" stroke-linecap="round" stroke-linejoin="round" stroke-width="2"/><g transform="translate(332.23 77.255)"><path d="M1007.694,488.47l1.166,1.762a4.27,4.27,0,0,1,.4.654q.241-.441.384-.654l1.18-1.762h1.919l-2.53,3.781,2.345,3.483h-1.919l-.994-1.479q-.143-.213-.384-.654a5.321,5.321,0,0,1-.4.654l-.981,1.479h-1.919l2.331-3.483-2.516-3.781Z" transform="translate(-1005.775 -488.47)" fill="#ccc"/></g><path d="M432.166,895.688H416.388a13.5,13.5,0,0,0-13.5,13.495h0a13.5,13.5,0,0,0,13.5,13.5l35.092.009" transform="translate(-340.127 -636.422)" fill="none" stroke="#ccc" stroke-linecap="round" stroke-linejoin="round" stroke-width="2"/><path d="M834.376,412.336a13.5,13.5,0,0,0,13.5-13.495h0a13.5,13.5,0,0,0-13.495-13.5l-32.411-.009" transform="translate(-560.832 -354.177)" fill="none" stroke="#ccc" stroke-linecap="round" stroke-linejoin="round" stroke-width="2"/><g transform="translate(95.816 255.949)"><path d="M478.758,888.267l1.166,1.763a4.273,4.273,0,0,1,.4.654q.241-.44.384-.654l1.18-1.763H483.8l-2.53,3.782,2.345,3.482H481.7l-.995-1.478q-.143-.214-.384-.654a5.265,5.265,0,0,1-.4.654l-.981,1.478h-1.919l2.331-3.482-2.516-3.782Z" transform="translate(-476.839 -888.267)" fill="#ccc"/></g><g transform="translate(115.2 275.496)"><path d="M534.563,944.072c-1.047-.9-2.112-1.441-3.146-.545l-.619.54c-.452.394-1.293,2.229-4.542-1.512s-1.317-4.315-.862-4.7l.622-.542c1.028-.9.64-2.025-.1-3.189l-.447-.7c-.745-1.158-1.56-1.919-2.591-1.026l-.558.489a5.225,5.225,0,0,0-2.041,3.464c-.373,2.461.8,5.282,3.493,8.376s5.319,4.651,7.81,4.624a5.263,5.263,0,0,0,3.715-1.539l.558-.489c1.031-.894.391-1.806-.658-2.7Z" transform="translate(-520.208 -932)" fill="#ccc"/></g><g transform="translate(352.125 224.202)"><path d="M1064.64,829.311c-1.047-.9-2.112-1.441-3.146-.544l-.619.539c-.452.394-1.293,2.229-4.542-1.512s-1.317-4.315-.862-4.7l.621-.542c1.029-.9.64-2.025-.1-3.188l-.447-.7c-.745-1.158-1.56-1.919-2.591-1.026l-.558.489a5.222,5.222,0,0,0-2.041,3.463c-.373,2.461.8,5.283,3.493,8.376s5.319,4.651,7.81,4.624a5.262,5.262,0,0,0,3.715-1.539l.558-.489c1.031-.893.391-1.806-.658-2.7Z" transform="translate(-1050.285 -817.239)" fill="#ccc"/></g><g transform="translate(226.975 23.963)"><path d="M784.64,381.311c-1.047-.9-2.112-1.441-3.146-.544l-.619.539c-.452.394-1.293,2.229-4.542-1.512s-1.317-4.315-.862-4.7l.621-.542c1.029-.9.64-2.025-.1-3.188l-.447-.7c-.745-1.158-1.56-1.919-2.591-1.026l-.558.489a5.222,5.222,0,0,0-2.041,3.463c-.373,2.461.8,5.283,3.493,8.376s5.319,4.651,7.81,4.624a5.261,5.261,0,0,0,3.715-1.539l.558-.489c1.031-.893.391-1.806-.658-2.7Z" transform="translate(-770.285 -369.239)" fill="#ccc"/></g><path d="M1221.359,690.611l24.717.006a13.5,13.5,0,0,0,13.5-13.495h0" transform="translate(-792.771 -515.547)" fill="none" stroke="#ccc" stroke-linecap="round" stroke-linejoin="round" stroke-width="2"/><g transform="translate(461.631 142.408)"><path d="M1309.64,646.311c-1.047-.9-2.112-1.441-3.146-.544l-.619.539c-.452.394-1.293,2.229-4.542-1.512s-1.317-4.315-.862-4.7l.621-.542c1.028-.9.64-2.025-.1-3.188l-.447-.7c-.746-1.158-1.56-1.919-2.591-1.026l-.558.489a5.222,5.222,0,0,0-2.041,3.463c-.373,2.461.8,5.283,3.492,8.376s5.319,4.651,7.81,4.624a5.262,5.262,0,0,0,3.715-1.539l.558-.489c1.031-.893.391-1.806-.658-2.7Z" transform="translate(-1295.285 -634.239)" fill="#ccc"/></g><g transform="translate(263.858 54.689)"><path d="M854.722,437.983l1.165,1.763a4.271,4.271,0,0,1,.4.654q.242-.441.384-.654l1.18-1.763h1.919l-2.531,3.781,2.346,3.483h-1.919l-.995-1.479q-.142-.213-.384-.654a5.2,5.2,0,0,1-.4.654l-.98,1.479h-1.919l2.331-3.483-2.516-3.781Z" transform="translate(-852.803 -437.983)" fill="#ccc"/></g><path d="M1356.662,881.738l15.778-.006a13.5,13.5,0,0,1,13.5,13.495h0a13.5,13.5,0,0,1-13.5,13.5l-36.88.009" transform="translate(-855.93 -628.704)" fill="none" stroke="#ccc" stroke-linecap="round" stroke-linejoin="round" stroke-width="2"/><g transform="translate(470.324 276.082)"><path d="M1321.7,933.311l-2.516,3.782,2.331,3.482H1319.6l-.981-1.478a5.264,5.264,0,0,1-.4-.654q-.241.44-.384.654l-.995,1.478h-1.919l2.345-3.482-2.53-3.782h1.919l1.179,1.763q.143.213.384.654a4.28,4.28,0,0,1,.4-.654l1.166-1.763Z" transform="translate(-1314.735 -933.311)" fill="#ccc"/></g><g transform="translate(489.118 246.016)"><path d="M1371.139,878.116c-1.047-.9-2.112-1.441-3.146-.545l-.619.539c-.452.394-1.293,2.229-4.542-1.512s-1.317-4.315-.862-4.7l.621-.542c1.029-.9.64-2.025-.1-3.189l-.447-.7c-.746-1.158-1.56-1.919-2.591-1.026l-.558.489a5.223,5.223,0,0,0-2.041,3.464c-.373,2.461.8,5.282,3.492,8.376s5.319,4.651,7.81,4.624a5.261,5.261,0,0,0,3.715-1.539l.558-.489c1.031-.894.392-1.806-.658-2.7Z" transform="translate(-1356.784 -866.044)" fill="#ccc"/></g><circle cx="3.115" cy="3.115" r="3.115" transform="translate(92.621 109.961)" fill="#ccc"/><circle cx="6.921" cy="6.921" r="6.921" transform="translate(88.814 106.155)" fill="none" stroke="#ccc" stroke-linecap="round" stroke-linejoin="round" stroke-width="2"/><circle cx="3.115" cy="3.115" r="3.115" transform="translate(214.642 264.164)" fill="#ccc"/><circle cx="6.921" cy="6.921" r="6.921" transform="translate(210.835 260.357)" fill="none" stroke="#ccc" stroke-linecap="round" stroke-linejoin="round" stroke-width="2"/><circle cx="3.115" cy="3.115" r="3.115" transform="translate(418.904 303.496)" fill="#ccc"/><circle cx="6.921" cy="6.921" r="6.921" transform="translate(415.097 299.69)" fill="none" stroke="#ccc" stroke-linecap="round" stroke-linejoin="round" stroke-width="2"/><path d="M2.888.1a2.6,2.6,0,0,1-.956-.168,2.008,2.008,0,0,1-.708-.452,2.567,2.567,0,0,1-.468-.66,3.19,3.19,0,0,1-.272-.78A4.1,4.1,0,0,1,.4-2.8a4.1,4.1,0,0,1,.084-.836,3.19,3.19,0,0,1,.272-.78,2.567,2.567,0,0,1,.468-.66,2.008,2.008,0,0,1,.708-.452A2.6,2.6,0,0,1,2.888-5.7a2.492,2.492,0,0,1,1.144.252,1.971,1.971,0,0,1,.776.68,3.33,3.33,0,0,1,.42.924,3.811,3.811,0,0,1,.14,1.04,3.811,3.811,0,0,1-.14,1.04,3.33,3.33,0,0,1-.42.924,1.971,1.971,0,0,1-.776.68A2.492,2.492,0,0,1,2.888.1Zm0-1.176a.965.965,0,0,0,.7-.284,1.53,1.53,0,0,0,.4-.656A2.691,2.691,0,0,0,4.1-2.8,2.976,2.976,0,0,0,4-3.6a1.41,1.41,0,0,0-.392-.648,1,1,0,0,0-.72-.276,1,1,0,0,0-.724.284,1.448,1.448,0,0,0-.4.656,2.914,2.914,0,0,0-.1.788,2.758,2.758,0,0,0,.064.6,2.213,2.213,0,0,0,.2.548,1.068,1.068,0,0,0,.384.416A1.059,1.059,0,0,0,2.888-1.08Zm6.12-3.352V0H7.792V-4.432H6.184V-5.6h4.432v1.168ZM15.208,0V-2.3H12.984V0H11.768V-5.6h1.216v2.144h2.224V-5.6h1.224V0Zm2.736,0V-5.6h4.024v1.152H19.16v.984h1.568v1.152H19.16V-1.16h2.968V0ZM23.36,0V-5.6h2.728a1.873,1.873,0,0,1,1.46.5A1.879,1.879,0,0,1,28-3.792a1.916,1.916,0,0,1-.272.968,1.5,1.5,0,0,1-.744.664L28.032,0h-1.36L25.656-1.976h-1.08V0Zm1.216-3.128H26.1q.632,0,.632-.664a.733.733,0,0,0-.148-.468.579.579,0,0,0-.484-.188H24.576ZM33.96.1a2.453,2.453,0,0,1-1.112-.244,2.023,2.023,0,0,1-.776-.66,3.176,3.176,0,0,1-.436-.92A3.787,3.787,0,0,1,31.488-2.8a3.515,3.515,0,0,1,.152-1.028,3.322,3.322,0,0,1,.444-.924,2.162,2.162,0,0,1,.78-.684,2.294,2.294,0,0,1,1.1-.26,2.032,2.032,0,0,1,1.22.344,3.249,3.249,0,0,1,.844.936l-1.064.6a1.238,1.238,0,0,0-1-.712.984.984,0,0,0-.72.284,1.433,1.433,0,0,0-.388.652,3.011,3.011,0,0,0-.1.792,2.348,2.348,0,0,0,.3,1.228.989.989,0,0,0,.908.5.882.882,0,0,0,.6-.224.674.674,0,0,0,.256-.52v-.04H33.9v-1.16h2.16v.88A2.225,2.225,0,0,1,35.476-.5,2.044,2.044,0,0,1,33.96.1Zm5.648,0a2.989,2.989,0,0,1-.844-.116,2.374,2.374,0,0,1-.74-.368,1.728,1.728,0,0,1-.548-.708,2.585,2.585,0,0,1-.2-1.064V-5.6h1.216v3.44a1.09,1.09,0,0,0,.268.84,1.255,1.255,0,0,0,.852.24,1.246,1.246,0,0,0,.844-.244,1.072,1.072,0,0,0,.276-.836V-5.6h1.216v3.44a2.58,2.58,0,0,1-.2,1.052A1.748,1.748,0,0,1,41.2-.4a2.339,2.339,0,0,1-.74.376A2.965,2.965,0,0,1,39.608.1Zm5.44-.1V-2.176L42.92-5.6H44.3l1.36,2.128L47.008-5.6h1.376L46.256-2.176V0Zm6.144.1a2.291,2.291,0,0,1-1.4-.436,2.394,2.394,0,0,1-.844-1.2l1.088-.408a1.762,1.762,0,0,0,.5.652,1.091,1.091,0,0,0,.688.244A1.108,1.108,0,0,0,51.84-1.2a.482.482,0,0,0,.224-.428A.428.428,0,0,0,51.9-1.96a1.125,1.125,0,0,0-.344-.212Q51.376-2.24,51-2.36q-.248-.08-.372-.124t-.356-.14A2.129,2.129,0,0,1,49.92-2.8q-.12-.08-.288-.216A1.023,1.023,0,0,1,49.38-3.3a1.766,1.766,0,0,1-.148-.36,1.556,1.556,0,0,1-.064-.452A1.432,1.432,0,0,1,49.7-5.24,2.117,2.117,0,0,1,51.128-5.7a2.018,2.018,0,0,1,1.264.392,1.852,1.852,0,0,1,.68,1.008l-1.088.352a.931.931,0,0,0-.92-.6q-.68,0-.68.456a.286.286,0,0,0,.064.184.665.665,0,0,0,.232.16q.168.08.276.12l.38.136q.288.1.444.152t.428.172a1.694,1.694,0,0,1,.428.248,3.546,3.546,0,0,1,.324.316,1.117,1.117,0,0,1,.244.432,1.85,1.85,0,0,1,.076.544,1.512,1.512,0,0,1-.592,1.256A2.352,2.352,0,0,1,51.192.1Z" transform="translate(315.445 264.656)" fill="#ccc"/><path d="M2.888.1a2.6,2.6,0,0,1-.956-.168,2.008,2.008,0,0,1-.708-.452,2.567,2.567,0,0,1-.468-.66,3.19,3.19,0,0,1-.272-.78A4.1,4.1,0,0,1,.4-2.8a4.1,4.1,0,0,1,.084-.836,3.19,3.19,0,0,1,.272-.78,2.567,2.567,0,0,1,.468-.66,2.008,2.008,0,0,1,.708-.452A2.6,2.6,0,0,1,2.888-5.7a2.492,2.492,0,0,1,1.144.252,1.971,1.971,0,0,1,.776.68,3.33,3.33,0,0,1,.42.924,3.811,3.811,0,0,1,.14,1.04,3.811,3.811,0,0,1-.14,1.04,3.33,3.33,0,0,1-.42.924,1.971,1.971,0,0,1-.776.68A2.492,2.492,0,0,1,2.888.1Zm0-1.176a.965.965,0,0,0,.7-.284,1.53,1.53,0,0,0,.4-.656A2.691,2.691,0,0,0,4.1-2.8,2.976,2.976,0,0,0,4-3.6a1.41,1.41,0,0,0-.392-.648,1,1,0,0,0-.72-.276,1,1,0,0,0-.724.284,1.448,1.448,0,0,0-.4.656,2.914,2.914,0,0,0-.1.788,2.758,2.758,0,0,0,.064.6,2.213,2.213,0,0,0,.2.548,1.068,1.068,0,0,0,.384.416A1.059,1.059,0,0,0,2.888-1.08Zm6.12-3.352V0H7.792V-4.432H6.184V-5.6h4.432v1.168ZM15.208,0V-2.3H12.984V0H11.768V-5.6h1.216v2.144h2.224V-5.6h1.224V0Zm2.736,0V-5.6h4.024v1.152H19.16v.984h1.568v1.152H19.16V-1.16h2.968V0ZM23.36,0V-5.6h2.728a1.873,1.873,0,0,1,1.46.5A1.879,1.879,0,0,1,28-3.792a1.916,1.916,0,0,1-.272.968,1.5,1.5,0,0,1-.744.664L28.032,0h-1.36L25.656-1.976h-1.08V0Zm1.216-3.128H26.1q.632,0,.632-.664a.733.733,0,0,0-.148-.468.579.579,0,0,0-.484-.188H24.576ZM33.96.1a2.453,2.453,0,0,1-1.112-.244,2.023,2.023,0,0,1-.776-.66,3.176,3.176,0,0,1-.436-.92A3.787,3.787,0,0,1,31.488-2.8a3.515,3.515,0,0,1,.152-1.028,3.322,3.322,0,0,1,.444-.924,2.162,2.162,0,0,1,.78-.684,2.294,2.294,0,0,1,1.1-.26,2.032,2.032,0,0,1,1.22.344,3.249,3.249,0,0,1,.844.936l-1.064.6a1.238,1.238,0,0,0-1-.712.984.984,0,0,0-.72.284,1.433,1.433,0,0,0-.388.652,3.011,3.011,0,0,0-.1.792,2.348,2.348,0,0,0,.3,1.228.989.989,0,0,0,.908.5.882.882,0,0,0,.6-.224.674.674,0,0,0,.256-.52v-.04H33.9v-1.16h2.16v.88A2.225,2.225,0,0,1,35.476-.5,2.044,2.044,0,0,1,33.96.1Zm5.648,0a2.989,2.989,0,0,1-.844-.116,2.374,2.374,0,0,1-.74-.368,1.728,1.728,0,0,1-.548-.708,2.585,2.585,0,0,1-.2-1.064V-5.6h1.216v3.44a1.09,1.09,0,0,0,.268.84,1.255,1.255,0,0,0,.852.24,1.246,1.246,0,0,0,.844-.244,1.072,1.072,0,0,0,.276-.836V-5.6h1.216v3.44a2.58,2.58,0,0,1-.2,1.052A1.748,1.748,0,0,1,41.2-.4a2.339,2.339,0,0,1-.74.376A2.965,2.965,0,0,1,39.608.1Zm5.44-.1V-2.176L42.92-5.6H44.3l1.36,2.128L47.008-5.6h1.376L46.256-2.176V0Zm6.144.1a2.291,2.291,0,0,1-1.4-.436,2.394,2.394,0,0,1-.844-1.2l1.088-.408a1.762,1.762,0,0,0,.5.652,1.091,1.091,0,0,0,.688.244A1.108,1.108,0,0,0,51.84-1.2a.482.482,0,0,0,.224-.428A.428.428,0,0,0,51.9-1.96a1.125,1.125,0,0,0-.344-.212Q51.376-2.24,51-2.36q-.248-.08-.372-.124t-.356-.14A2.129,2.129,0,0,1,49.92-2.8q-.12-.08-.288-.216A1.023,1.023,0,0,1,49.38-3.3a1.766,1.766,0,0,1-.148-.36,1.556,1.556,0,0,1-.064-.452A1.432,1.432,0,0,1,49.7-5.24,2.117,2.117,0,0,1,51.128-5.7a2.018,2.018,0,0,1,1.264.392,1.852,1.852,0,0,1,.68,1.008l-1.088.352a.931.931,0,0,0-.92-.6q-.68,0-.68.456a.286.286,0,0,0,.064.184.665.665,0,0,0,.232.16q.168.08.276.12l.38.136q.288.1.444.152t.428.172a1.694,1.694,0,0,1,.428.248,3.546,3.546,0,0,1,.324.316,1.117,1.117,0,0,1,.244.432,1.85,1.85,0,0,1,.076.544,1.512,1.512,0,0,1-.592,1.256A2.352,2.352,0,0,1,51.192.1Z" transform="translate(258.952 140.66)" fill="#ccc"/><g transform="translate(136.832 99.169)"><path d="M633,562.413a.669.669,0,0,0-.668.668v1.5a.669.669,0,0,0,.668.667.653.653,0,0,0,.668-.667v-1.5A.668.668,0,0,0,633,562.413Z" transform="translate(-603.849 -551.277)" fill="#ccc"/><path d="M622.38,544.649a.669.669,0,0,0-.667.668v15.829a.668.668,0,0,0,1.335,0V545.317A.669.669,0,0,0,622.38,544.649Z" transform="translate(-597.976 -541.453)" fill="#ccc"/><path d="M627.687,556.484a.669.669,0,0,0-.668.667v6.8a.669.669,0,0,0,.668.668.691.691,0,0,0,.525-.23.6.6,0,0,0,.143-.456v-6.779A.668.668,0,0,0,627.687,556.484Z" transform="translate(-600.91 -547.998)" fill="#ccc"/><path d="M606.449,557.705a.669.669,0,0,0-.668.668v5.706a.668.668,0,0,0,1.336,0v-5.706A.669.669,0,0,0,606.449,557.705Z" transform="translate(-589.165 -548.674)" fill="#ccc"/><path d="M611.76,546.979a.668.668,0,0,0-.668.668V562.94a.668.668,0,0,0,.668.667.676.676,0,0,0,.667-.7V547.647A.668.668,0,0,0,611.76,546.979Z" transform="translate(-592.102 -542.742)" fill="#ccc"/><path d="M617.07,537.5a.668.668,0,0,0-.668.667v13.777a.668.668,0,0,0,1.336,0V538.166A.669.669,0,0,0,617.07,537.5Z" transform="translate(-595.038 -537.499)" fill="#ccc"/><path d="M590.514,556.484a.669.669,0,0,0-.668.667v6.8a.669.669,0,0,0,.668.668.691.691,0,0,0,.525-.23.594.594,0,0,0,.143-.456v-6.779A.668.668,0,0,0,590.514,556.484Z" transform="translate(-580.352 -547.998)" fill="#ccc"/><path d="M595.828,551.731a.669.669,0,0,0-.668.668v11.045a.669.669,0,0,0,.668.668.694.694,0,0,0,.668-.668V552.4A.669.669,0,0,0,595.828,551.731Z" transform="translate(-583.291 -545.37)" fill="#ccc"/><path d="M601.139,546.979a.668.668,0,0,0-.668.668V562.94a.668.668,0,0,0,.668.667.676.676,0,0,0,.667-.7V547.647A.668.668,0,0,0,601.139,546.979Z" transform="translate(-586.228 -542.742)" fill="#ccc"/><path d="M569.276,562.413a.669.669,0,0,0-.668.668v1.479a.6.6,0,0,0,.143.456.69.69,0,0,0,.524.23.669.669,0,0,0,.668-.667v-1.5A.669.669,0,0,0,569.276,562.413Z" transform="translate(-568.605 -551.277)" fill="#ccc"/><path d="M585.207,551.731a.669.669,0,0,0-.668.668v11.026a.589.589,0,0,0,.143.444.7.7,0,0,0,.525.243.668.668,0,0,0,.668-.668V552.4A.669.669,0,0,0,585.207,551.731Z" transform="translate(-577.415 -545.37)" fill="#ccc"/><path d="M579.9,546.979a.669.669,0,0,0-.668.668V562.91a.7.7,0,0,0,.668.7.669.669,0,0,0,.668-.667V547.647A.669.669,0,0,0,579.9,546.979Z" transform="translate(-574.48 -542.742)" fill="#ccc"/><path d="M574.587,551.731a.669.669,0,0,0-.668.668v11.045a.668.668,0,1,0,1.335,0V552.4A.669.669,0,0,0,574.587,551.731Z" transform="translate(-571.544 -545.37)" fill="#ccc"/></g><g transform="translate(112.438 22.902)"><path d="M519.524,452.135a2.69,2.69,0,0,1-.683.741,2.085,2.085,0,0,1-.792.365,2.661,2.661,0,0,1-.839.038,3.316,3.316,0,0,1-.834-.2,4.345,4.345,0,0,1-1.46-.938,3.321,3.321,0,0,1-.529-.675,2.67,2.67,0,0,1-.314-.779,2.078,2.078,0,0,1,0-.872,2.686,2.686,0,0,1,.389-.93,2.583,2.583,0,0,1,.862-.858,2.048,2.048,0,0,1,1.029-.3,3.487,3.487,0,0,1,1.043.152,4.088,4.088,0,0,1,1.817,1.167,3.448,3.448,0,0,1,.572.885,2.051,2.051,0,0,1,.159,1.059A2.588,2.588,0,0,1,519.524,452.135Zm-1.028-.66a1,1,0,0,0,.147-.774,1.587,1.587,0,0,0-.349-.717,2.766,2.766,0,0,0-.619-.535,3.069,3.069,0,0,0-.761-.36,1.459,1.459,0,0,0-.786-.021,1.111,1.111,0,0,0-.8,1.266,1.493,1.493,0,0,0,.351.714,3,3,0,0,0,.63.533,2.842,2.842,0,0,0,.56.281,2.3,2.3,0,0,0,.591.133,1.09,1.09,0,0,0,1.038-.518Z" transform="translate(-514.027 -411.587)" fill="#ccc"/><path d="M522.337,437.31l3.748,2.669-.732,1.028-3.748-2.669-.969,1.36-.988-.7,2.669-3.748.988.7Z" transform="translate(-517.136 -404.683)" fill="#ccc"/><path d="M534.286,428.808l-1.872-1.476-1.429,1.813,1.872,1.476-.781.991-4.566-3.6.782-.991,1.748,1.378,1.43-1.813-1.748-1.378.787-1,4.565,3.6Z" transform="translate(-521.483 -398.58)" fill="#ccc"/><path d="M541.158,421.08l-4.385-3.818,2.744-3.151.9.786-1.915,2.2.771.671,1.07-1.228.9.786-1.069,1.227.9.786,2.024-2.324.908.791Z" transform="translate(-526.607 -392.994)" fill="#ccc"/><path d="M549.606,411.954l-4.2-4.02,1.959-2.046a1.738,1.738,0,0,1,2.729-.136,1.987,1.987,0,0,1,.53.9,1.554,1.554,0,0,1-.036,1.035l2.372.765-.976,1.02-2.212-.657-.776.81,1.482,1.419Zm-1.473-3.157,1.1-1.146a.6.6,0,0,0-.044-.951.764.764,0,0,0-.457-.225.6.6,0,0,0-.489.228l-1.1,1.146Z" transform="translate(-531.381 -388.041)" fill="#ccc"/><path d="M566.292,397.12a2.547,2.547,0,0,1-1.023.592,2.092,2.092,0,0,1-1.057.038,3.279,3.279,0,0,1-.979-.4,3.946,3.946,0,0,1-.865-.718,3.673,3.673,0,0,1-.6-.894,3.454,3.454,0,0,1-.307-1.019,2.247,2.247,0,0,1,.118-1.07,2.375,2.375,0,0,1,.657-.967,2.108,2.108,0,0,1,1.176-.592,3.376,3.376,0,0,1,1.3.126l-.4,1.205a1.285,1.285,0,0,0-1.265.155,1.022,1.022,0,0,0-.352.722,1.493,1.493,0,0,0,.159.771,3.127,3.127,0,0,0,.479.677,2.441,2.441,0,0,0,1.09.73,1.026,1.026,0,0,0,1.046-.253.916.916,0,0,0,.3-.592.7.7,0,0,0-.169-.578l-.028-.03-.7.639-.813-.889,1.655-1.514.617.674a2.313,2.313,0,0,1,.7,1.669A2.123,2.123,0,0,1,566.292,397.12Z" transform="translate(-540.247 -380.806)" fill="#ccc"/><path d="M575.077,387.314a3.075,3.075,0,0,1-.75.468,2.458,2.458,0,0,1-.834.2,1.792,1.792,0,0,1-.908-.2,2.686,2.686,0,0,1-.87-.713l-2.285-2.744.97-.808,2.285,2.745a1.132,1.132,0,0,0,.771.492,1.668,1.668,0,0,0,1.351-1.13,1.112,1.112,0,0,0-.335-.85l-2.285-2.745.97-.808,2.285,2.744a2.681,2.681,0,0,1,.539.972,1.815,1.815,0,0,1,.039.924,2.437,2.437,0,0,1-.341.792A3.087,3.087,0,0,1,575.077,387.314Z" transform="translate(-544.667 -374.803)" fill="#ccc"/><path d="M585.163,378.579l-1.362-1.8-3.906-1.5,1.139-.861,2.458.911-.212-2.609,1.14-.861.381,4.168,1.362,1.8Z" transform="translate(-550.455 -369.624)" fill="#ccc"/><path d="M597.706,372.188a2.375,2.375,0,0,1-1.456.457,2.485,2.485,0,0,1-1.432-.53l.688-.99a1.838,1.838,0,0,0,.815.259,1.133,1.133,0,0,0,.732-.2,1.152,1.152,0,0,0,.438-.49.5.5,0,0,0-.061-.5.445.445,0,0,0-.333-.183,1.179,1.179,0,0,0-.419.022q-.194.048-.585.168c-.173.052-.3.09-.391.114s-.217.054-.387.091a2.224,2.224,0,0,1-.4.058c-.1,0-.224,0-.374-.014a1.062,1.062,0,0,1-.383-.093,1.848,1.848,0,0,1-.339-.22,1.615,1.615,0,0,1-.321-.349,1.484,1.484,0,0,1-.215-1.275,2.2,2.2,0,0,1,.953-1.235,2.094,2.094,0,0,1,1.311-.412,1.928,1.928,0,0,1,1.176.459l-.721.944a.967.967,0,0,0-1.14.031q-.581.4-.311.791a.293.293,0,0,0,.163.119.679.679,0,0,0,.292,0q.191-.031.307-.06t.4-.109c.2-.059.358-.1.469-.133s.266-.064.467-.105a1.751,1.751,0,0,1,.512-.041,3.73,3.73,0,0,1,.463.078,1.167,1.167,0,0,1,.464.225,1.92,1.92,0,0,1,.387.42,1.568,1.568,0,0,1,.236,1.422A2.443,2.443,0,0,1,597.706,372.188Z" transform="translate(-557.824 -366.866)" fill="#ccc"/></g><path d="M2.888.1a2.6,2.6,0,0,1-.956-.168,2.008,2.008,0,0,1-.708-.452,2.567,2.567,0,0,1-.468-.66,3.19,3.19,0,0,1-.272-.78A4.1,4.1,0,0,1,.4-2.8a4.1,4.1,0,0,1,.084-.836,3.19,3.19,0,0,1,.272-.78,2.567,2.567,0,0,1,.468-.66,2.008,2.008,0,0,1,.708-.452A2.6,2.6,0,0,1,2.888-5.7a2.492,2.492,0,0,1,1.144.252,1.971,1.971,0,0,1,.776.68,3.33,3.33,0,0,1,.42.924,3.811,3.811,0,0,1,.14,1.04,3.811,3.811,0,0,1-.14,1.04,3.33,3.33,0,0,1-.42.924,1.971,1.971,0,0,1-.776.68A2.492,2.492,0,0,1,2.888.1Zm0-1.176a.965.965,0,0,0,.7-.284,1.53,1.53,0,0,0,.4-.656A2.691,2.691,0,0,0,4.1-2.8,2.976,2.976,0,0,0,4-3.6a1.41,1.41,0,0,0-.392-.648,1,1,0,0,0-.72-.276,1,1,0,0,0-.724.284,1.448,1.448,0,0,0-.4.656,2.914,2.914,0,0,0-.1.788,2.758,2.758,0,0,0,.064.6,2.213,2.213,0,0,0,.2.548,1.068,1.068,0,0,0,.384.416A1.059,1.059,0,0,0,2.888-1.08Zm6.12-3.352V0H7.792V-4.432H6.184V-5.6h4.432v1.168ZM15.208,0V-2.3H12.984V0H11.768V-5.6h1.216v2.144h2.224V-5.6h1.224V0Zm2.736,0V-5.6h4.024v1.152H19.16v.984h1.568v1.152H19.16V-1.16h2.968V0ZM23.36,0V-5.6h2.728a1.873,1.873,0,0,1,1.46.5A1.879,1.879,0,0,1,28-3.792a1.916,1.916,0,0,1-.272.968,1.5,1.5,0,0,1-.744.664L28.032,0h-1.36L25.656-1.976h-1.08V0Zm1.216-3.128H26.1q.632,0,.632-.664a.733.733,0,0,0-.148-.468.579.579,0,0,0-.484-.188H24.576ZM33.96.1a2.453,2.453,0,0,1-1.112-.244,2.023,2.023,0,0,1-.776-.66,3.176,3.176,0,0,1-.436-.92A3.787,3.787,0,0,1,31.488-2.8a3.515,3.515,0,0,1,.152-1.028,3.322,3.322,0,0,1,.444-.924,2.162,2.162,0,0,1,.78-.684,2.294,2.294,0,0,1,1.1-.26,2.032,2.032,0,0,1,1.22.344,3.249,3.249,0,0,1,.844.936l-1.064.6a1.238,1.238,0,0,0-1-.712.984.984,0,0,0-.72.284,1.433,1.433,0,0,0-.388.652,3.011,3.011,0,0,0-.1.792,2.348,2.348,0,0,0,.3,1.228.989.989,0,0,0,.908.5.882.882,0,0,0,.6-.224.674.674,0,0,0,.256-.52v-.04H33.9v-1.16h2.16v.88A2.225,2.225,0,0,1,35.476-.5,2.044,2.044,0,0,1,33.96.1Zm5.648,0a2.989,2.989,0,0,1-.844-.116,2.374,2.374,0,0,1-.74-.368,1.728,1.728,0,0,1-.548-.708,2.585,2.585,0,0,1-.2-1.064V-5.6h1.216v3.44a1.09,1.09,0,0,0,.268.84,1.255,1.255,0,0,0,.852.24,1.246,1.246,0,0,0,.844-.244,1.072,1.072,0,0,0,.276-.836V-5.6h1.216v3.44a2.58,2.58,0,0,1-.2,1.052A1.748,1.748,0,0,1,41.2-.4a2.339,2.339,0,0,1-.74.376A2.965,2.965,0,0,1,39.608.1Zm5.44-.1V-2.176L42.92-5.6H44.3l1.36,2.128L47.008-5.6h1.376L46.256-2.176V0Zm6.144.1a2.291,2.291,0,0,1-1.4-.436,2.394,2.394,0,0,1-.844-1.2l1.088-.408a1.762,1.762,0,0,0,.5.652,1.091,1.091,0,0,0,.688.244A1.108,1.108,0,0,0,51.84-1.2a.482.482,0,0,0,.224-.428A.428.428,0,0,0,51.9-1.96a1.125,1.125,0,0,0-.344-.212Q51.376-2.24,51-2.36q-.248-.08-.372-.124t-.356-.14A2.129,2.129,0,0,1,49.92-2.8q-.12-.08-.288-.216A1.023,1.023,0,0,1,49.38-3.3a1.766,1.766,0,0,1-.148-.36,1.556,1.556,0,0,1-.064-.452A1.432,1.432,0,0,1,49.7-5.24,2.117,2.117,0,0,1,51.128-5.7a2.018,2.018,0,0,1,1.264.392,1.852,1.852,0,0,1,.68,1.008l-1.088.352a.931.931,0,0,0-.92-.6q-.68,0-.68.456a.286.286,0,0,0,.064.184.665.665,0,0,0,.232.16q.168.08.276.12l.38.136q.288.1.444.152t.428.172a1.694,1.694,0,0,1,.428.248,3.546,3.546,0,0,1,.324.316,1.117,1.117,0,0,1,.244.432,1.85,1.85,0,0,1,.076.544,1.512,1.512,0,0,1-.592,1.256A2.352,2.352,0,0,1,51.192.1Z" transform="translate(144.554 325.879)" fill="#ccc"/></g><g transform="translate(0 155.203)"><circle cx="16.438" cy="16.438" r="16.438" transform="translate(0 16.547)" fill="#079cee" opacity="0.15"/><circle cx="6.056" cy="6.056" r="6.056" transform="translate(10.382 26.929)" fill="#51b9f3" stroke="#079cee" stroke-miterlimit="10" stroke-width="6.194"/><line x2="215.452" transform="translate(22.494 32.985)" fill="none" stroke="#079cee" stroke-linecap="round" stroke-miterlimit="10" stroke-width="4.646"/><circle cx="16.438" cy="16.438" r="16.438" transform="translate(491.126 16.547)" fill="#079cee" opacity="0.15"/><circle cx="6.056" cy="6.056" r="6.056" transform="translate(501.508 26.929)" fill="#51b9f3" stroke="#079cee" stroke-miterlimit="10" stroke-width="6.194"/><line x1="194.891" transform="translate(306.169 32.985)" fill="none" stroke="#079cee" stroke-linecap="round" stroke-miterlimit="10" stroke-width="4.646"/><g transform="translate(243.776)"><path d="M824.348,679.522c-2.3-.486-2.58.7-1.58,2.891,5.228,11.509.581,22.747-4.4,25.53a6.143,6.143,0,0,1-.135-1.121c-.581-5.47-2.7-10.212-4.053-10.226-1.108,0-.418,4.674-.716,8.807-1.837-1.094-2.972-1.85-4.944-1.513-2.823.5-6.565,6.457-6.754,5.606-1.135-6.916,1.553-17.56,5.281-18.654.581-.23,1.581.649,3.85,1.5,1.769.662,1.553-1.094.743-1.743a8.538,8.538,0,0,0-9.1-.649c-5.606,2.7-8.1,15.169-5.133,20.262a7.983,7.983,0,0,0,5.673,3.85c3.755.432,4.9-.351,7.929-4.052a3.609,3.609,0,0,0,1.432.689c-2.459,7.673-11.711,14.129-13.7,12.954-9.712-6.524-7.011-27.543-.162-46.035,1.108-3.013,2.945-8.335,3.323-10.252,1.013-4.984-5.282-5.944-9.6-2.3-3.12,2.661-6.119,8.848-8.591,16.034-7.821,22.815-4.5,42.118,9.455,46.292,16.129,4.809,23.842-5.214,25.03-15.291a23.243,23.243,0,0,0,2.972.149c4.985-.095,12.063-2.7,14.183-13.508C836.938,690.477,831.656,680.914,824.348,679.522Z" transform="translate(-779.563 -662.866)" fill="#079cee" fill-rule="evenodd"/></g></g></g></g></svg>