<svg xmlns="http://www.w3.org/2000/svg" xmlns:xlink="http://www.w3.org/1999/xlink" width="1600" height="321.55" viewBox="0 0 1600 321.55"><defs><clipPath id="a"><path d="M0,0H1600V321.55H0Z" transform="translate(0 1363.738)" fill="#084f7a"/></clipPath></defs><g transform="translate(0 -1363.738)" clip-path="url(#a)"><path d="M1.122,116.485C17.759,66.742,51.418-15.87,194.362,2.66S352.347,87.9,474.956,90.015c48.363.834,77.814,26.62,90.994,60.3C594.634,223.6-29.943,209.371,1.122,116.485Z" transform="translate(-158.161 1471.496) rotate(8)" fill="#084062"/><path d="M62.9,146.609C79.539,96.866,113.2,14.253,256.142,32.784s157.985,85.241,280.595,87.355c46.52.8,75.542,24.692,89.406,56.46C658.089,249.808,31.837,239.5,62.9,146.609Z" transform="translate(-244.374 1505.712)" fill="#075e91"/><circle cx="12.5" cy="12.5" r="12.5" transform="translate(245.23 1557)" fill="#084062"/><circle cx="5.5" cy="5.5" r="5.5" transform="translate(290.23 1557)" fill="#084062"/><circle cx="2.5" cy="2.5" r="2.5" transform="translate(308.23 1540)" fill="#084062"/><path d="M1.122,116.485C17.759,66.742,51.418-15.87,194.362,2.66S352.347,87.9,474.956,90.015c48.363.834,77.814,26.62,90.994,60.3C594.634,223.6-29.943,209.371,1.122,116.485Z" transform="translate(1796.718 1557) rotate(-176)" fill="#084062"/><path d="M130.466,112.609c12.627-37.755-32.5-60.445,40.173-77.5,22.951-5.385,51.054-6.794,85.5-2.328,142.944,18.529,157.985,85.241,280.595,87.355,46.52.8,75.542,24.692,89.406,56.46C658.089,249.808,99.4,205.495,130.466,112.609Z" transform="matrix(-0.998, 0.07, -0.07, -0.998, 1880.333, 1516.853)" fill="#075e91"/><circle cx="12.5" cy="12.5" r="12.5" transform="translate(1402.914 1493.861) rotate(163)" fill="#084062"/><circle cx="5.5" cy="5.5" r="5.5" transform="translate(1359.881 1507.018) rotate(163)" fill="#084062"/><circle cx="2.5" cy="2.5" r="2.5" transform="translate(1347.638 1528.538) rotate(163)" fill="#084062"/></g></svg>