<svg xmlns="http://www.w3.org/2000/svg" xmlns:xlink="http://www.w3.org/1999/xlink" width="1600" height="700" viewBox="0 0 1600 700"><defs><clipPath id="a"><rect width="1600" height="700" fill="#fff"/></clipPath></defs><g clip-path="url(#a)"><g transform="translate(1.29 -2.741)" opacity="0.57"><rect width="1607" height="726" fill="#e6f5fd"/><path d="M412.7,497.9H334.4a15.9,15.9,0,0,1-5.8-30.7v-.5A22.427,22.427,0,0,1,351,444.3a22.086,22.086,0,0,1,10.7,2.7A28.3,28.3,0,0,1,414,462v.5a17.721,17.721,0,0,1-1.3,35.4Z" transform="translate(-31 12.6)" fill="#cdebfb"/><path d="M157.462,366.685H16.208A28.641,28.641,0,0,1,5.815,311.368v-1.006a40.368,40.368,0,0,1,59.676-35.425A50.951,50.951,0,0,1,159.7,301.981v.894a31.944,31.944,0,0,1-2.235,63.81Z" transform="translate(-10)" fill="#cdebfb"/><path d="M263.334,113.639h-38.6a7.827,7.827,0,0,1-2.84-15.117v-.275A11.032,11.032,0,0,1,238.2,88.566a13.924,13.924,0,0,1,25.744,7.391V96.2a8.73,8.73,0,0,1-.61,17.438Z" transform="translate(-136.407 16.661)" fill="#cdebfb"/><path d="M558.759,265.3H525.451A6.754,6.754,0,0,1,523,252.256v-.237a9.518,9.518,0,0,1,14.072-8.353,12.014,12.014,0,0,1,22.214,6.377v.21a7.533,7.533,0,0,1-.527,15.047Z" transform="translate(-170.614 -56.2)" fill="#cdebfb"/><path d="M452.608,329.8H405.269a9.6,9.6,0,0,1-3.483-18.539v-.337a13.528,13.528,0,0,1,20-11.872,17.076,17.076,0,0,1,31.572,9.063v.3a10.705,10.705,0,0,1-.749,21.385Z" transform="translate(-17.181 -12.602)" fill="#ffffff"/><path d="M708.962,452H671.14a7.669,7.669,0,0,1-2.783-14.812v-.269a10.81,10.81,0,0,1,15.979-9.486,13.643,13.643,0,0,1,25.225,7.242v.239a8.553,8.553,0,0,1-.6,17.086Z" fill="#f5fbfe"/><path d="M137.727,525H90.144a9.648,9.648,0,0,1-3.5-18.634v-.339a13.6,13.6,0,0,1,20.1-11.933,17.164,17.164,0,0,1,31.735,9.11v.3A10.76,10.76,0,0,1,137.727,525Z" fill="#cdebfb"/><path d="M1442.877,182.474a31.98,31.98,0,0,1,29.726-31.849v-.894a50.951,50.951,0,0,1,94.206-27.044,40.368,40.368,0,0,1,59.676,35.425v1.006a28.641,28.641,0,0,1-10.393,55.317H1474.838A31.954,31.954,0,0,1,1442.877,182.474Z" fill="#cdebfb"/><path d="M1307.259,179.8h-33.308a6.754,6.754,0,0,1-2.451-13.044v-.237a9.518,9.518,0,0,1,14.072-8.353,12.014,12.014,0,0,1,22.214,6.377v.21a7.533,7.533,0,0,1-.527,15.047Z" transform="translate(7.255 34.635)" fill="#b4e1f9"/><path d="M1222.108,309.3h-47.339a9.6,9.6,0,0,1-3.483-18.539v-.337a13.528,13.528,0,0,1,20-11.872,17.076,17.076,0,0,1,31.572,9.063v.3a10.705,10.705,0,0,1-.749,21.385Z" transform="translate(300 20.5)" fill="#f5fbfe"/><path d="M1266.05,413.9a17.719,17.719,0,0,1,16.5-17.7v-.5a28.3,28.3,0,0,1,52.3-15,22.085,22.085,0,0,1,10.7-2.7,22.427,22.427,0,0,1,22.4,22.4v.5a15.9,15.9,0,0,1-5.8,30.7h-78.3A17.883,17.883,0,0,1,1266.05,413.9Z" fill="#cdebfb"/><path d="M1499.141,537.3h-38.188a7.743,7.743,0,0,1-2.81-14.955v-.272a10.912,10.912,0,0,1,16.133-9.577,13.775,13.775,0,0,1,25.469,7.311v.242a8.636,8.636,0,0,1-.6,17.251Z" transform="translate(3 13)" fill="#cdebfb"/><path d="M1044.5,420.15h-38.7a6.279,6.279,0,0,1-1.8-12.3v-.8a8.152,8.152,0,0,1,8.1-8.2,10.63,10.63,0,0,1,10.4-8,10.8,10.8,0,0,1,8.8,4.6,8.225,8.225,0,0,1,12.5,6.8,8.881,8.881,0,0,1,9.7,8.9A9.159,9.159,0,0,1,1044.5,420.15Z" transform="translate(80 50)" fill="#cdebfb"/><path d="M363,452.6a17.868,17.868,0,0,1-31.8,5.7,14.727,14.727,0,0,1-8.6,2.8,14.555,14.555,0,0,1-13.2-8.5,12.725,12.725,0,0,1-2.7-25.3,14.6,14.6,0,0,1,14.6-13.8,14.376,14.376,0,0,1,10.7,4.7,17.815,17.815,0,0,1,30.6,5.5c.5,0,.9-.1,1.4-.1a14.5,14.5,0,0,1,0,29A1.7,1.7,0,0,1,363,452.6Z" transform="translate(-31 12.6)" fill="#ffffff"/><path d="M203.95,299.075a26.928,26.928,0,0,1-12.069-2.793,24.962,24.962,0,0,1-20.9,11.4,24.543,24.543,0,0,1-20.562-10.84,21.93,21.93,0,0,1-12.07,3.688,21.407,21.407,0,0,1-17.656-9.052,19.9,19.9,0,0,1-11.958,3.912,20.175,20.175,0,0,1-20.115-20.116,19.954,19.954,0,0,1,12.516-18.662,21.835,21.835,0,0,1,21.68-18.886,24.485,24.485,0,0,1,4.023.335,29.619,29.619,0,0,1,53.417-10.281,21.876,21.876,0,0,1,36.1,16.651,7.905,7.905,0,0,1-.112,1.565A27.866,27.866,0,0,1,232,271.138,28.188,28.188,0,0,1,203.95,299.075Z" transform="translate(-10)" fill="#ffffff"/><path d="M103.928,125.3H62.079A8.486,8.486,0,0,1,59,108.911v-.3a11.959,11.959,0,0,1,17.68-10.5,15.095,15.095,0,0,1,27.91,8.012v.265a9.464,9.464,0,0,1-.662,18.905Z" transform="translate(1100.104 153.098)" fill="#ffffff"/><path d="M1400.3,118.888a27.866,27.866,0,0,1,15.757-25.144,7.9,7.9,0,0,1-.112-1.565,21.876,21.876,0,0,1,36.1-16.651,29.619,29.619,0,0,1,53.417,10.281,24.485,24.485,0,0,1,4.023-.335,21.835,21.835,0,0,1,21.68,18.886,19.954,19.954,0,0,1,12.516,18.662,20.175,20.175,0,0,1-20.115,20.116,19.9,19.9,0,0,1-11.958-3.912,21.407,21.407,0,0,1-17.656,9.052,21.93,21.93,0,0,1-12.07-3.688,24.544,24.544,0,0,1-20.562,10.84,24.962,24.962,0,0,1-20.9-11.4,26.927,26.927,0,0,1-12.069,2.793A28.188,28.188,0,0,1,1400.3,118.888Z" fill="#ffffff"/><path d="M1332.55,386.3a14.5,14.5,0,0,1,0-29c.5,0,.9.1,1.4.1a17.815,17.815,0,0,1,30.6-5.5,14.376,14.376,0,0,1,10.7-4.7,14.6,14.6,0,0,1,14.6,13.8,12.725,12.725,0,0,1-2.7,25.3,14.555,14.555,0,0,1-13.2,8.5,14.727,14.727,0,0,1-8.6-2.8,17.868,17.868,0,0,1-31.8-5.7A1.7,1.7,0,0,1,1332.55,386.3Z" fill="#ffffff"/><path d="M91.91,117.109H60.055a6.459,6.459,0,0,1-2.344-12.475v-.226a9.1,9.1,0,0,1,13.458-7.99,11.49,11.49,0,0,1,21.245,6.1v.2a7.2,7.2,0,0,1-.5,14.39Z" transform="translate(272.768 73.65)" fill="#ffffff"/></g></g></svg>