<svg xmlns="http://www.w3.org/2000/svg" width="198.52" height="138.396" viewBox="0 0 198.52 138.396">
  <g id="Group_7056" data-name="Group 7056" transform="translate(-59.58 -32.69)">
    <g id="Group_7054" data-name="Group 7054" transform="translate(61.695 32.69)">
      <path id="Path_14930" data-name="Path 14930" d="M114.511,32.69v88.573h-6.276V116.7a29.1,29.1,0,0,1-17.246,5.706,28.068,28.068,0,0,1-20.954-8.782,29.792,29.792,0,0,1-8.527-21.588q0-13,8.4-21.621t21.08-8.623q8.05,0,17.246,4.693V32.69Zm-6.276,78.3V73.332a30.825,30.825,0,0,0-16.991-5.453,22.218,22.218,0,0,0-16.611,6.69Q68.1,81.256,68.1,91.654a24.015,24.015,0,0,0,6.975,17.626,23.541,23.541,0,0,0,17.435,7.038A27.094,27.094,0,0,0,108.235,110.993Z" transform="translate(-61.507 -32.69)" fill="#084f7a"/>
      <path id="Path_14931" data-name="Path 14931" d="M168.99,62.308a3.031,3.031,0,0,0,3.255,3.033q.67-.053,1.362-.054,15.152,0,18.45,17.055H174a5.009,5.009,0,0,0-5.01,5.009h30.421q0-13-7.481-20.574A24.761,24.761,0,0,0,173.607,59.2c-.586,0-1.163.021-1.731.058a3.111,3.111,0,0,0-2.886,3.05Z" transform="translate(-50.999 -30.098)" fill="#079cee"/>
      <path id="Path_14932" data-name="Path 14932" d="M153.245,102.887a16.028,16.028,0,0,1-2.16-3.6,24.809,24.809,0,0,1-1.864-12.911,50.746,50.746,0,0,1,1.334-7.152,4.578,4.578,0,0,0,.249-1.539V70.934a1.74,1.74,0,0,0-3.2-.93,31.434,31.434,0,0,0-4.973,17.827q0,13.5,8.242,22.254t20.86,8.75a35.812,35.812,0,0,0,22.443-7.735h0a3.639,3.639,0,0,0-5.5-3.133,31.073,31.073,0,0,1-16.182,4.781Q161.022,112.748,153.245,102.887Z" transform="translate(-53.576 -29.12)" fill="#079cee"/>
      <path id="Path_14933" data-name="Path 14933" d="M164.142,60.24a3.106,3.106,0,0,0-3.106,3.107V96.252q0,8.116-4.438,12.743a15.264,15.264,0,0,1-11.54,4.629l-2.929.023c-.044,0-.071-.023-.116-.023A15.264,15.264,0,0,1,130.474,109q-4.438-4.625-4.437-12.743v-29.8a6.213,6.213,0,0,0-6.213-6.213h0V96.379q0,11.159,6.15,17.246a21.166,21.166,0,0,0,15.532,6.087,3.542,3.542,0,0,0,.625-.113c.212.034,3.2.113,3.437.113a21.166,21.166,0,0,0,15.532-6.087q6.15-6.086,6.15-17.246V63.347a3.107,3.107,0,0,0-3.107-3.107Z" transform="translate(-55.806 -29.997)" fill="#084f7a"/>
      <path id="Path_14934" data-name="Path 14934" d="M220.754,112.72c-.927-1.755-1.365-5.435-1.365-11.04V66.83h16.523V61.736H219.39V42.312s-6.264.146-6.264,8.238V61.736H197.261V66.83h15.865V108.99c0,3.9,1.292,6.97,3.9,9.163a14.484,14.484,0,0,0,9.724,3.315,27.852,27.852,0,0,0,12.161-3v-5.995c-4.095,1.9-7.677,2.875-10.747,2.875C224.142,115.351,221.656,114.474,220.754,112.72Z" transform="translate(-48.235 -31.749)" fill="#079cee"/>
    </g>
    <g id="Group_7055" data-name="Group 7055" transform="translate(59.58 136.783)">
      <path id="Path_14935" data-name="Path 14935" d="M68.5,145.531a2.011,2.011,0,0,0-1.716.837,3.878,3.878,0,0,0-.617,2.34,3.815,3.815,0,0,0,.617,2.307,2.177,2.177,0,0,0,3.431,0,4.669,4.669,0,0,0,0-4.639A2,2,0,0,0,68.5,145.531Z" transform="translate(-58.936 -125.75)" fill="none"/>
      <path id="Path_14936" data-name="Path 14936" d="M61.456,141.846a1.867,1.867,0,0,0-.541,1.505v1.436H59.58v1.284h1.335v7.352h1.471v-7.352H64.4v-1.284H62.386V143.6a1.219,1.219,0,0,1,.151-.659.693.693,0,0,1,.626-.237,3,3,0,0,1,1.234.322V141.8a3.37,3.37,0,0,0-1.606-.405A2,2,0,0,0,61.456,141.846Z" transform="translate(-59.58 -126.155)" fill="#090306"/>
      <path id="Path_14937" data-name="Path 14937" d="M68.634,144.3a3.473,3.473,0,0,0-2.788,1.209,5.852,5.852,0,0,0,0,6.634,3.83,3.83,0,0,0,5.577-.009,5.852,5.852,0,0,0,0-6.634A3.489,3.489,0,0,0,68.634,144.3Zm1.715,6.837a2.177,2.177,0,0,1-3.431,0,3.815,3.815,0,0,1-.617-2.308,3.878,3.878,0,0,1,.617-2.34,2.17,2.17,0,0,1,3.431.009,4.669,4.669,0,0,1,0,4.639Z" transform="translate(-59.068 -125.871)" fill="#090306"/>
      <path id="Path_14938" data-name="Path 14938" d="M75.337,145.635V144.5h-1.47v8.636h1.47v-4.867a2.673,2.673,0,0,1,.583-1.927,1.835,1.835,0,0,1,1.344-.592,2.126,2.126,0,0,1,1.234.372l.22-1.385a2.007,2.007,0,0,0-1.335-.44A2.1,2.1,0,0,0,75.337,145.635Z" transform="translate(-58.183 -125.871)" fill="#090306"/>
      <g id="Group_164193" data-name="Group 164193" transform="translate(29.235 0)">
        <path id="Path_43" data-name="Path 43" d="M236.72,135.5h-.812v-.325h2.03v.325h-.809v2.273h-.406Z" transform="translate(-71.576 -126.763)" fill="#4e5054"/>
        <path id="Path_44" data-name="Path 44" d="M239.191,137.773l-.731-2.192v2.192h-.405v-2.6h.649l.649,2.108.65-2.108h.649v2.6h-.325v-2.192l-.731,2.192Z" transform="translate(-71.366 -126.763)" fill="#4e5054"/>
        <path id="Path_45" data-name="Path 45" d="M102.123,129.461a1.543,1.543,0,0,1,0,3.087h-.081a1.511,1.511,0,0,1-1.462-1.462,1.944,1.944,0,0,1,.406-1.132,1.482,1.482,0,0,1,1.137-.487m0-1.949a3.494,3.494,0,0,0-.161,6.978h.162a3.467,3.467,0,0,0,3.492-3.439V131a3.466,3.466,0,0,0-3.44-3.491h-.053Z" transform="translate(-84.99 -127.512)" fill="#ff4f1f"/>
        <path id="Path_46" data-name="Path 46" d="M100.528,149.945a3.574,3.574,0,0,1,.126,7.146H96.712a3.574,3.574,0,0,1-.125-7.146h3.942m0-2.355H96.712a5.847,5.847,0,0,0,0,11.693h3.817a5.847,5.847,0,0,0,0-11.693Z" transform="translate(-85.749 -125.549)" fill="#ff4f1f"/>
        <path id="Path_47" data-name="Path 47" d="M100.991,137.516a3.573,3.573,0,1,1,.125,7.145H91.978a3.573,3.573,0,1,1-.125-7.145q.063,0,.125,0h9.014m0-2.355H91.978a5.847,5.847,0,0,0,0,11.692h9.014a5.847,5.847,0,0,0,0-11.692Z" transform="translate(-86.211 -126.764)" fill="#ff4f1f"/>
        <path id="Path_48" data-name="Path 48" d="M132.941,160.587v-25.5h14.373v2.516H135.541v8.851H146.1V148.9H135.541v9.176h11.774v2.517Z" transform="translate(-81.643 -126.771)" fill="#4e5054"/>
        <path id="Path_49" data-name="Path 49" d="M171.331,160.587v-25.5H185.7v2.516H173.929v8.851h10.557V148.9H173.929v9.176H185.7v2.517Z" transform="translate(-77.89 -126.771)" fill="#4e5054"/>
        <path id="Path_50" data-name="Path 50" d="M211.156,160.587V150.03l-8.609-14.941h2.923l6.983,12.261,6.984-12.261h2.842l-8.524,14.941v10.557Z" transform="translate(-74.838 -126.771)" fill="#4e5054"/>
        <path id="Path_51" data-name="Path 51" d="M168.175,160.587v-25.5h-2.517v20.788l-12.586-20.788h-2.6v25.5h2.6V139.8l12.586,20.788Z" transform="translate(-79.929 -126.771)" fill="#4e5054"/>
        <path id="Path_52" data-name="Path 52" d="M121.5,149.653h6.089v2.03c0,4.954-3.167,6.739-6.089,6.739s-6.09-1.786-6.09-6.739V144.05c0-4.953,3.167-6.739,6.09-6.739a5.789,5.789,0,0,1,6.009,5.2h2.516a8.252,8.252,0,0,0-8.525-7.714c-5.2,0-8.609,3.735-8.609,9.256v7.633c0,5.522,3.492,9.257,8.609,9.257,5.2,0,8.608-3.736,8.608-9.257v-4.549H121.5Z" transform="translate(-83.603 -126.801)" fill="#4e5054"/>
        <path id="Path_53" data-name="Path 53" d="M189.825,152.894a5.507,5.507,0,0,0,5.49,5.525q.1,0,.194,0c3.248,0,4.953-1.542,4.953-4.466a4.242,4.242,0,0,0-3.491-4.223l-4.3-1.136a6.623,6.623,0,0,1-5.035-6.822c0-4.142,2.923-6.9,7.309-6.9,5.034,0,7.228,3.493,7.715,6.984h-2.517c-.568-2.923-2.441-4.467-5.116-4.467-2.923,0-4.791,1.706-4.791,4.385a4.292,4.292,0,0,0,3.33,4.384l4.466,1.221a6.728,6.728,0,0,1,5.117,6.739c0,4.3-2.923,6.984-7.553,6.984-5.77,0-8.119-4.384-8.2-8.039Z" transform="translate(-76.319 -126.793)" fill="#4e5054"/>
        <path id="Path_54" data-name="Path 54" d="M224.074,152.894a5.507,5.507,0,0,0,5.49,5.525c.065,0,.13,0,.193,0,3.248,0,4.954-1.542,4.954-4.466a4.243,4.243,0,0,0-3.492-4.223l-4.3-1.136a6.622,6.622,0,0,1-5.035-6.822c0-4.142,2.923-6.9,7.309-6.9,5.034,0,7.228,3.493,7.715,6.984h-2.517c-.569-2.923-2.441-4.467-5.116-4.467-2.923,0-4.791,1.706-4.791,4.385a4.29,4.29,0,0,0,3.328,4.384l4.467,1.221a6.727,6.727,0,0,1,5.116,6.739c0,4.3-2.922,6.984-7.552,6.984-5.77,0-8.119-4.384-8.2-8.039Z" transform="translate(-72.971 -126.793)" fill="#4e5054"/>
      </g>
    </g>
  </g>
</svg>
