<svg xmlns="http://www.w3.org/2000/svg" xmlns:xlink="http://www.w3.org/1999/xlink" width="139.04" height="135.081" viewBox="0 0 139.04 135.081">
  <defs>
    <clipPath id="clip-path">
      <circle id="Ellipse_342" data-name="Ellipse 342" cx="66.171" cy="66.171" r="66.171" fill="none"/>
    </clipPath>
  </defs>
  <g id="Group_7461" data-name="Group 7461" transform="translate(-227.619 -19.625)">
    <g id="Group_7459" data-name="Group 7459" transform="translate(227.619 19.624)">
      <circle id="Ellipse_341" data-name="Ellipse 341" cx="66.171" cy="66.171" r="66.171" transform="translate(3.593 2.645)" fill="#cdebfb"/>
      <g id="Group_7449" data-name="Group 7449" transform="translate(3.593 2.645)">
        <g id="Group_7448" data-name="Group 7448" clip-path="url(#clip-path)">
          <g id="Group_7447" data-name="Group 7447" transform="translate(10.447 -0.624)">
            <path id="Path_16597" data-name="Path 16597" d="M328.81,33.683l-.474.592-16.442,5.781a69.354,69.354,0,0,0-7.108,6.752c-.829,1.445-6.3,3.6-6.3,3.6S281.9,51.57,280,52.778s-1.682,8.837-1.682,8.837l6.16,12.225a1.778,1.778,0,0,0,2.369.734c.948-.474,1.943-1.09,2.914-1.587a5.73,5.73,0,0,1,4.1-.948,2.791,2.791,0,0,1,1.966,2.038,3.785,3.785,0,0,1-1.3,2.938c-1.635,1.777-3.222,3.577-4.738,5.425l-4.952,5.71-.971,1.137A8.628,8.628,0,0,0,282.35,95.4l.237,1.564A8.379,8.379,0,0,1,281,103.147l-4.573,6.16a11.9,11.9,0,0,0-.782,1.279l-4.975,10.069a2.041,2.041,0,0,1-1.848,1.161h-4.738a1.832,1.832,0,0,1-1.635-1,2.369,2.369,0,0,1,.4-2.369l.45-.426a2.154,2.154,0,0,0,.569-2.014l-4.407-17.793v-.213L256.313,89.5a5.347,5.347,0,0,1-.355-1.9V87.06A5.42,5.42,0,0,0,253,82.085h-.284a5.288,5.288,0,0,0-3.009-.545l-6.207.545a5.245,5.245,0,0,1-4.738-1.872l-3.933-4.738a5.542,5.542,0,0,1-1.279-3.53V68.083a5.5,5.5,0,0,1,1.564-3.862l5.023-5.07a6.689,6.689,0,0,0,.806-1.042l1.635-2.772a5.376,5.376,0,0,1,4.62-2.63h6.729a5.348,5.348,0,0,1,3.98,1.8,5.332,5.332,0,0,0,3.98,1.777h2.369l2.109-7.108a17.76,17.76,0,0,1-3.743-5c-1.019-2.369-6.728-4.738-8.15-4.9a27.1,27.1,0,0,1-6.373-4.573h0a66.336,66.336,0,0,1,80.766-1.019Z" transform="translate(-233.545 -20.477)" fill="#9bd7f8"/>
            <path id="Path_16598" data-name="Path 16598" d="M316.994,57.265a66.69,66.69,0,0,1-38.215,60.367l-8.79-18.646a2.412,2.412,0,0,1-.19-.9V93.8a2.149,2.149,0,0,0-1.4-2.014l-4.028-1.4a2.415,2.415,0,0,1-.829-.545l-1.185-1.374a2.115,2.115,0,0,1-.474-1.966,2.185,2.185,0,0,1,1.4-1.469l9.477-2.843a2.177,2.177,0,0,1,1.943.355l6.3,5.07a2.073,2.073,0,0,0,1.327.474h3.72a2.153,2.153,0,0,0,1.8-.948,2.1,2.1,0,0,0,.166-2.014L282.57,73.4a1.989,1.989,0,0,1,0-1.682A2.09,2.09,0,0,1,283.8,70.58l1.8-.64a2.037,2.037,0,0,0,1.3-2.559l-1.872-6.089a10.366,10.366,0,0,1,1.019-8.553l.758-1.185a2.156,2.156,0,0,1,1.824-1.019h2.582a2.156,2.156,0,0,0,1.493-.592,2.2,2.2,0,0,0,.64-1.493V46.082a2.06,2.06,0,0,1,1.848-2.061l11.846-1.564a6.043,6.043,0,0,1,3.743.663l.924.474a6.025,6.025,0,0,0,2.63.734h1.35a65.129,65.129,0,0,1,1.232,12.865Z" transform="translate(-194.839 9.532)" fill="#9bd7f8"/>
          </g>
        </g>
      </g>
      <g id="Group_7450" data-name="Group 7450" transform="translate(0 18.231)">
        <path id="Path_16599" data-name="Path 16599" d="M285.088,39.377a1.126,1.126,0,0,1-.853-.355,1.2,1.2,0,0,1-.355-.829,1.454,1.454,0,0,1,.095-.45,1.526,1.526,0,0,1,.261-.379,1.2,1.2,0,0,1,1.3-.261,1.01,1.01,0,0,1,.379.261,1.594,1.594,0,0,1,.261.379,1.53,1.53,0,0,1,.095.45,1.206,1.206,0,0,1-.355.829,1.009,1.009,0,0,1-.379.261A1.027,1.027,0,0,1,285.088,39.377Z" transform="translate(-150.586 -14.049)" fill="#079cee"/>
        <path id="Path_16600" data-name="Path 16600" d="M240.344,126.305a1.152,1.152,0,0,1-1.019-1.327h0a1.167,1.167,0,0,1,1.327-1.021h-.026a1.21,1.21,0,0,1,1.045,1.329h0a1.2,1.2,0,0,1-1.185,1.04h0A.33.33,0,0,1,240.344,126.305Zm-4.859-1.137h0a1.219,1.219,0,0,1-.687-1.519h0a1.21,1.21,0,0,1,1.519-.708h0a1.2,1.2,0,0,1,.711,1.54h0a1.2,1.2,0,0,1-1.114.756h0A1.363,1.363,0,0,1,235.485,125.168Zm-4.4-2.63a1.165,1.165,0,0,1-.071-1.658h0a1.175,1.175,0,0,1,1.682-.071h0a1.185,1.185,0,0,1,.071,1.656h0a1.183,1.183,0,0,1-.877.381h0A1.187,1.187,0,0,1,231.081,122.538Zm-2.867-4.409a1.2,1.2,0,0,1,.756-1.49h0a1.171,1.171,0,0,1,1.493.734h0a1.2,1.2,0,0,1-.732,1.516h0a2.335,2.335,0,0,1-.379.047h0A1.2,1.2,0,0,1,228.214,118.129Zm.521-3.836a1.189,1.189,0,0,1-1.114-1.256h0a1.2,1.2,0,0,1,1.279-1.114h0a1.186,1.186,0,0,1,1.09,1.256h0a1.19,1.19,0,0,1-1.185,1.114h-.071Zm.616-4.667a1.184,1.184,0,0,1-.782-1.471h0a1.192,1.192,0,0,1,1.49-.8h0a1.213,1.213,0,0,1,.782,1.49h0a1.18,1.18,0,0,1-1.135.832h0A.915.915,0,0,1,229.351,109.626Zm1.564-4.433a1.212,1.212,0,0,1-.569-1.585h0a1.191,1.191,0,0,1,1.585-.569h0a1.194,1.194,0,0,1,.571,1.587h0a1.194,1.194,0,0,1-1.068.661h0A1.226,1.226,0,0,1,230.915,105.193Zm2.132-4.215a1.169,1.169,0,0,1-.4-1.613h0a1.17,1.17,0,0,1,1.611-.424h0a1.2,1.2,0,0,1,.426,1.635h0a1.231,1.231,0,0,1-1.019.566h0A1.145,1.145,0,0,1,233.047,100.978Zm2.488-4a1.2,1.2,0,0,1-.284-1.658h0a1.181,1.181,0,0,1,1.635-.287h0a1.192,1.192,0,0,1,.308,1.661h0a1.282,1.282,0,0,1-.971.5h0A1.229,1.229,0,0,1,235.535,96.975Zm2.748-3.838a1.172,1.172,0,0,1-.19-1.661h0a1.193,1.193,0,0,1,1.658-.19h0a1.152,1.152,0,0,1,.187,1.661h0a1.1,1.1,0,0,1-.922.45h0A1.073,1.073,0,0,1,238.283,93.136Zm6.065-7.2a1.218,1.218,0,0,1-.073-1.682h0a1.218,1.218,0,0,1,1.682-.073h0a1.2,1.2,0,0,1,.073,1.684h0a1.148,1.148,0,0,1-.877.377h0A1.192,1.192,0,0,1,244.348,85.934Zm3.246-3.435a1.173,1.173,0,0,1,0-1.682h0a1.187,1.187,0,0,1,1.658,0h0a1.173,1.173,0,0,1,0,1.682h0a1.113,1.113,0,0,1-.832.355h0A1.144,1.144,0,0,1,247.594,82.5Zm3.341-3.317a1.2,1.2,0,0,1,.045-1.682h0a1.194,1.194,0,0,1,1.682.047h0a1.192,1.192,0,0,1-.045,1.682h0a1.219,1.219,0,0,1-.806.332h0A1.236,1.236,0,0,1,250.935,79.182Zm3.459-3.2a1.172,1.172,0,0,1,.095-1.682h0a1.147,1.147,0,0,1,1.658.095h0a1.147,1.147,0,0,1-.095,1.658h0a1.091,1.091,0,0,1-.782.308h0A1.235,1.235,0,0,1,254.394,75.984Zm3.53-3.127a1.193,1.193,0,0,1,.118-1.682h0a1.2,1.2,0,0,1,1.682.142h0a1.171,1.171,0,0,1-.145,1.658h0a1.156,1.156,0,0,1-.756.284h0A1.22,1.22,0,0,1,257.924,72.856Zm3.6-3.056a1.2,1.2,0,0,1,.166-1.658h0a1.222,1.222,0,0,1,1.682.166h0a1.2,1.2,0,0,1-.19,1.682h0a1.21,1.21,0,0,1-.737.261h0A1.131,1.131,0,0,1,261.525,69.8Zm3.67-2.938a1.179,1.179,0,0,1,.213-1.658h0a1.206,1.206,0,0,1,1.684.213h0a1.222,1.222,0,0,1-.216,1.658h0a1.172,1.172,0,0,1-.732.237h0A1.181,1.181,0,0,1,265.195,66.862ZM268.94,64a1.2,1.2,0,0,1,.261-1.658h0a1.2,1.2,0,0,1,1.658.237h0a1.219,1.219,0,0,1-.237,1.658h0a1.221,1.221,0,0,1-.711.237h0A1.212,1.212,0,0,1,268.94,64Zm3.814-2.8a1.157,1.157,0,0,1,.284-1.635h0a1.17,1.17,0,0,1,1.632.261h0a1.176,1.176,0,0,1-.258,1.658h0a1.234,1.234,0,0,1-.687.213h0A1.17,1.17,0,0,1,272.755,61.2Zm3.862-2.7a1.155,1.155,0,0,1,.308-1.635h0a1.186,1.186,0,0,1,1.658.308h0a1.213,1.213,0,0,1-.332,1.658h0v-.024h0a1.109,1.109,0,0,1-.663.213h0A1.191,1.191,0,0,1,276.617,58.5Zm3.909-2.63a1.187,1.187,0,0,1,.355-1.635h0a1.186,1.186,0,0,1,1.635.355h0a1.189,1.189,0,0,1-.355,1.635h0a1.256,1.256,0,0,1-.64.19h0A1.2,1.2,0,0,1,280.526,55.869Zm3.957-2.535a1.2,1.2,0,0,1,.379-1.635h0a1.163,1.163,0,0,1,1.635.379h0a1.172,1.172,0,0,1-.379,1.635h0a1.153,1.153,0,0,1-.616.166h0A1.21,1.21,0,0,1,284.482,53.334Zm4.025-2.488a1.165,1.165,0,0,1,.405-1.611h0a1.19,1.19,0,0,1,1.635.4h0a1.2,1.2,0,0,1-.426,1.635h0a1.309,1.309,0,0,1-.592.166h0A1.18,1.18,0,0,1,288.508,50.846Zm4.054-2.393a1.193,1.193,0,0,1,.45-1.611h0a1.188,1.188,0,0,1,1.609.45h0A1.187,1.187,0,0,1,294.2,48.9h0a1.125,1.125,0,0,1-.592.166h0A1.213,1.213,0,0,1,292.561,48.454Zm71.076-.166a1.191,1.191,0,0,1-.687-1.54h0a1.191,1.191,0,0,1,1.54-.687h0a1.2,1.2,0,0,1,.687,1.516V47.6a1.2,1.2,0,0,1-1.114.758h0A1.33,1.33,0,0,1,363.637,48.288Zm-66.953-2.132a1.2,1.2,0,0,1,.474-1.611h0a1.2,1.2,0,0,1,1.609.474h0a1.192,1.192,0,0,1-.471,1.611h0a1.262,1.262,0,0,1-.569.142h0A1.156,1.156,0,0,1,296.684,46.155Zm4.146-2.227a1.18,1.18,0,0,1,.521-1.587h0a1.156,1.156,0,0,1,1.587.521h0a1.182,1.182,0,0,1-.5,1.587h0a1.136,1.136,0,0,1-.545.118h0A1.215,1.215,0,0,1,300.83,43.928Zm64.3-.118a1.182,1.182,0,0,1-.948-1.374h0a1.191,1.191,0,0,1,1.374-.971h0a1.184,1.184,0,0,1,.948,1.374h0a1.192,1.192,0,0,1-1.161,1h0C365.272,43.834,365.2,43.81,365.129,43.81Zm-55.818-4.028a1.158,1.158,0,0,1,.569-1.564h.024a1.158,1.158,0,0,1,1.564.592h0a1.2,1.2,0,0,1-.592,1.564h0a1.245,1.245,0,0,1-.5.095h0A1.164,1.164,0,0,1,309.311,39.782ZM364.3,38.124a1.184,1.184,0,0,1,.993-1.35h0a1.185,1.185,0,0,1,1.353,1h0a1.186,1.186,0,0,1-1,1.35h0c-.071,0-.118.024-.19.024h0A1.191,1.191,0,0,1,364.3,38.124Zm-50.7-.261a1.211,1.211,0,0,1,.64-1.564h0a1.177,1.177,0,0,1,1.54.64h0a1.169,1.169,0,0,1-.618,1.54h0a1.051,1.051,0,0,1-.471.095h0A1.184,1.184,0,0,1,313.6,37.863Zm4.359-1.8a1.2,1.2,0,0,1,.663-1.54h0a1.2,1.2,0,0,1,1.54.663h0a1.2,1.2,0,0,1-.666,1.54h0a1.317,1.317,0,0,1-.424.071h0A1.214,1.214,0,0,1,317.959,36.063Zm4.4-1.682a1.188,1.188,0,0,1,.713-1.516h.024a1.161,1.161,0,0,1,1.493.711h0a1.17,1.17,0,0,1-.711,1.516h0a1.214,1.214,0,0,1-.4.071h0A1.2,1.2,0,0,1,322.363,34.381Zm40.421-.071h.024a1.157,1.157,0,0,1,.261-1.658h0a1.17,1.17,0,0,1,1.632.261h.026a1.183,1.183,0,0,1-.284,1.658h0a1.265,1.265,0,0,1-.687.237h0A1.235,1.235,0,0,1,362.784,34.31ZM326.82,32.841a1.19,1.19,0,0,1,.779-1.493h0a1.164,1.164,0,0,1,1.469.782h0a1.183,1.183,0,0,1-.756,1.493h0a1.854,1.854,0,0,1-.355.047h0A1.217,1.217,0,0,1,326.82,32.841Zm4.5-1.374a1.176,1.176,0,0,1,.853-1.445h0a1.155,1.155,0,0,1,1.443.829h0a1.192,1.192,0,0,1-.827,1.445h0a1.632,1.632,0,0,1-.308.047h0A1.215,1.215,0,0,1,331.321,31.467Zm28.312.166a1.223,1.223,0,0,1-.5-1.611h0a1.2,1.2,0,0,1,1.611-.474h0a1.2,1.2,0,0,1,.5,1.611h0a1.235,1.235,0,0,1-1.042.616h0A1.262,1.262,0,0,1,359.633,31.632Zm-23.742-1.35a1.171,1.171,0,0,1,.9-1.4h0a1.192,1.192,0,0,1,1.421.9h0a1.2,1.2,0,0,1-.9,1.422h0c-.095,0-.166.024-.261.024h0A1.191,1.191,0,0,1,335.891,30.282Zm4.622-.924a1.183,1.183,0,0,1,.993-1.35h0a1.164,1.164,0,0,1,1.353.971h0a1.186,1.186,0,0,1-1,1.35h0a.409.409,0,0,1-.166.024h0A1.2,1.2,0,0,1,340.514,29.358Zm15,.853a1.2,1.2,0,0,1-.924-1.4h0a1.208,1.208,0,0,1,1.422-.924h-.024a1.171,1.171,0,0,1,.922,1.4h0a1.183,1.183,0,0,1-1.159.948h0A.806.806,0,0,1,355.51,30.211Zm-10.33-1.493a1.2,1.2,0,0,1,1.114-1.279h0a1.187,1.187,0,0,1,1.256,1.09h0a1.193,1.193,0,0,1-1.09,1.279h-.095A1.186,1.186,0,0,1,345.181,28.718Zm5.852.971h0a1.185,1.185,0,0,1-1.14-1.208h0a1.2,1.2,0,0,1,1.234-1.161h0a1.2,1.2,0,0,1,1.135,1.232h0a1.176,1.176,0,0,1-1.185,1.137h-.045Z" transform="translate(-227.619 -27.32)" fill="#079cee"/>
        <path id="Path_16601" data-name="Path 16601" d="M235.754,70.577a1.017,1.017,0,0,1-.448-.095,1.028,1.028,0,0,1-.379-.261,1.143,1.143,0,0,1,0-1.661,1.175,1.175,0,0,1,1.279-.258.869.869,0,0,1,.379.258.849.849,0,0,1,.261.381,1.017,1.017,0,0,1,.092.45,1.109,1.109,0,0,1-.353.829.9.9,0,0,1-.379.261A.965.965,0,0,1,235.754,70.577Z" transform="translate(-218.102 28.669)" fill="#079cee"/>
      </g>
      <g id="Group_7451" data-name="Group 7451" transform="translate(28.765)">
        <path id="Path_16602" data-name="Path 16602" d="M278.455,71.492a1.209,1.209,0,0,1-.829-.358.957.957,0,0,1-.261-.379,1.017,1.017,0,0,1-.095-.448,1.114,1.114,0,0,1,.355-.853,1.235,1.235,0,0,1,1.658,0,1.123,1.123,0,0,1,.355.853.987.987,0,0,1-.1.448.928.928,0,0,1-.258.379,1.348,1.348,0,0,1-.379.263A1.627,1.627,0,0,1,278.455,71.492Z" transform="translate(-188.402 48.165)" fill="#079cee"/>
        <path id="Path_16603" data-name="Path 16603" d="M315.621,154.7h0a1.213,1.213,0,0,1-1.066-1.3h0a1.19,1.19,0,0,1,1.3-1.066h0a1.213,1.213,0,0,1,1.066,1.3h0a1.2,1.2,0,0,1-1.185,1.068h-.118Zm3.7-1.208a1.182,1.182,0,0,1,.827-1.469h0a1.18,1.18,0,0,1,1.448.853h0a1.18,1.18,0,0,1-.829,1.443h0a1.521,1.521,0,0,1-.31.05h0A1.166,1.166,0,0,1,319.317,153.5Zm-8.576.14a1.2,1.2,0,0,1-.761-1.49h0a1.2,1.2,0,0,1,1.519-.758h0a1.175,1.175,0,0,1,.734,1.493h0a1.166,1.166,0,0,1-1.114.806h0A1,1,0,0,1,310.741,153.636Zm12.983-1.872a1.2,1.2,0,0,1,.118-1.682h0a1.172,1.172,0,0,1,1.658.121h0a1.2,1.2,0,0,1-.121,1.682h0a1.171,1.171,0,0,1-.782.282h0A1.2,1.2,0,0,1,323.724,151.765Zm-17.508-.021h0a1.185,1.185,0,0,1-.545-1.587h0a1.169,1.169,0,0,1,1.587-.521h0a1.182,1.182,0,0,1,.543,1.587h0a1.209,1.209,0,0,1-1.064.637h0A1.044,1.044,0,0,1,306.216,151.743Zm-4.241-2.393a1.221,1.221,0,0,1-.381-1.637h0a1.243,1.243,0,0,1,1.661-.377h0a1.189,1.189,0,0,1,.355,1.635h0a1.193,1.193,0,0,1-.995.569h0A1.256,1.256,0,0,1,301.975,149.351Zm24.971-1.066a1.182,1.182,0,0,1-.521-1.587h0a1.21,1.21,0,0,1,1.611-.521h0a1.2,1.2,0,0,1,.5,1.611h0a1.175,1.175,0,0,1-1.04.64h0A1.1,1.1,0,0,1,326.946,148.284ZM297.995,146.6a1.174,1.174,0,0,1-.237-1.658h0a1.191,1.191,0,0,1,1.656-.237h0a1.2,1.2,0,0,1,.239,1.658h0a1.2,1.2,0,0,1-.948.471h0A1.116,1.116,0,0,1,297.995,146.6Zm30.823-2.654a1.2,1.2,0,0,1-.879-1.445h0a1.2,1.2,0,0,1,1.424-.877h0a1.211,1.211,0,0,1,.877,1.443h0a1.2,1.2,0,0,1-1.161.9h0C329.007,143.97,328.913,143.949,328.818,143.949Zm-34.614-.332a1.17,1.17,0,0,1-.142-1.658h0a1.2,1.2,0,0,1,1.682-.142h0a1.187,1.187,0,0,1,.142,1.656h0a1.174,1.174,0,0,1-.924.429h0A1.209,1.209,0,0,1,294.2,143.617Zm-3.6-3.175h0a1.2,1.2,0,0,1-.073-1.682h0a1.2,1.2,0,0,1,1.682-.047h0a1.188,1.188,0,0,1,.073,1.658h0a1.19,1.19,0,0,1-.877.379h0A1.178,1.178,0,0,1,290.6,140.442Zm-3.459-3.341a1.162,1.162,0,0,1,.024-1.658h0a1.145,1.145,0,0,1,1.658,0h0a1.173,1.173,0,0,1,0,1.682h0a1.224,1.224,0,0,1-.829.329h0A1.2,1.2,0,0,1,287.144,137.1Zm-3.293-3.459a1.146,1.146,0,0,1,.069-1.658h0a1.169,1.169,0,0,1,1.661.045h0a1.175,1.175,0,0,1-.073,1.684h0a1.142,1.142,0,0,1-.806.308h0A1.108,1.108,0,0,1,283.851,133.643Zm-6.278-7.252v.026h0a1.2,1.2,0,0,1,.19-1.682h0a1.193,1.193,0,0,1,1.658.166v.021a1.2,1.2,0,0,1-.166,1.661h0a1.333,1.333,0,0,1-.76.261h0A1.163,1.163,0,0,1,277.572,126.391Zm-5.8-7.579h0a1.18,1.18,0,0,1,.261-1.658h0a1.2,1.2,0,0,1,1.658.258h0a1.207,1.207,0,0,1-.261,1.661h0a1.165,1.165,0,0,1-.711.237h0A1.159,1.159,0,0,1,271.768,118.812ZM269,114.9a1.2,1.2,0,0,1,.306-1.637h0a1.191,1.191,0,0,1,1.661.31h0a1.162,1.162,0,0,1-.308,1.635h0a1.225,1.225,0,0,1-.663.213h0A1.239,1.239,0,0,1,269,114.9Zm-2.656-3.957a1.215,1.215,0,0,1,.358-1.658h0a1.182,1.182,0,0,1,1.632.355h0a1.178,1.178,0,0,1-.329,1.635h0a1.137,1.137,0,0,1-.666.19h0A1.243,1.243,0,0,1,266.34,110.946Zm-2.559-4.051h0a1.171,1.171,0,0,1,.4-1.611h0a1.145,1.145,0,0,1,1.613.377h0a1.2,1.2,0,0,1-.379,1.637h0a1.148,1.148,0,0,1-.616.166h0A1.185,1.185,0,0,1,263.781,106.895Zm-2.464-4.075a1.2,1.2,0,0,1,.429-1.635h0a1.17,1.17,0,0,1,1.611.424h0a1.221,1.221,0,0,1-.4,1.637h0a1.38,1.38,0,0,1-.616.14h0A1.16,1.16,0,0,1,261.317,102.82Zm-2.369-4.146a1.192,1.192,0,0,1,.453-1.611h0a1.162,1.162,0,0,1,1.609.45h0a1.168,1.168,0,0,1-.448,1.611h0a1.037,1.037,0,0,1-.569.142h0A1.2,1.2,0,0,1,258.948,98.674Zm-2.274-4.193a1.205,1.205,0,0,1,.5-1.611h0a1.176,1.176,0,0,1,1.59.5h0a1.168,1.168,0,0,1-.474,1.587h0a1.258,1.258,0,0,1-.569.14h0A1.163,1.163,0,0,1,256.674,94.48Zm-2.18-4.265h0a1.186,1.186,0,0,1,.547-1.587h0a1.192,1.192,0,0,1,1.587.545h0a1.2,1.2,0,0,1-.547,1.587h0a1.272,1.272,0,0,1-.519.118h0A1.2,1.2,0,0,1,254.494,90.216ZM252.433,85.9A1.17,1.17,0,0,1,253,84.34h0a1.161,1.161,0,0,1,1.564.569h0A1.194,1.194,0,0,1,254,86.5h0a1.237,1.237,0,0,1-.5.095h0A1.133,1.133,0,0,1,252.433,85.9Zm-1.964-4.336A1.182,1.182,0,0,1,251.061,80h0a1.169,1.169,0,0,1,1.561.616h0a1.153,1.153,0,0,1-.614,1.54h0a1.08,1.08,0,0,1-.476.118h0A1.186,1.186,0,0,1,250.469,81.568Zm-1.848-4.407a1.2,1.2,0,0,1,.64-1.564h0a1.18,1.18,0,0,1,1.54.663h0a1.169,1.169,0,0,1-.642,1.54h0a1.081,1.081,0,0,1-.448.095h0A1.156,1.156,0,0,1,248.621,77.161Zm-1.729-4.478a1.165,1.165,0,0,1,.687-1.516h0a1.17,1.17,0,0,1,1.516.711h0a1.173,1.173,0,0,1-.687,1.516h0a1.314,1.314,0,0,1-.4.071h0A1.144,1.144,0,0,1,246.891,72.684Zm-1.611-4.5a1.23,1.23,0,0,1,.758-1.516h0a1.206,1.206,0,0,1,1.493.758h0a1.173,1.173,0,0,1-.737,1.493h0a1.054,1.054,0,0,1-.379.071h0A1.215,1.215,0,0,1,245.28,68.182Zm-1.448-4.573a1.2,1.2,0,0,1,.805-1.469h0a1.167,1.167,0,0,1,1.469.806h0a1.175,1.175,0,0,1-.8,1.469h0a1.4,1.4,0,0,1-.332.047h0A1.213,1.213,0,0,1,243.833,63.61Zm-1.279-4.62a1.2,1.2,0,0,1,.855-1.445h0a1.2,1.2,0,0,1,1.445.853h0A1.183,1.183,0,0,1,244,59.843h0a1.189,1.189,0,0,1-.284.047h0A1.194,1.194,0,0,1,242.553,58.99Zm-1.09-4.667a1.193,1.193,0,0,1,.926-1.4h0a1.169,1.169,0,0,1,1.4.9h0a1.172,1.172,0,0,1-.926,1.4h0a.81.81,0,0,1-.235.047h0A1.216,1.216,0,0,1,241.463,54.323Zm-.851-4.738a1.161,1.161,0,0,1,.971-1.35h0a1.167,1.167,0,0,1,1.35,1h0a1.165,1.165,0,0,1-.974,1.35h-.19A1.15,1.15,0,0,1,240.613,49.584Zm-.592-4.786a1.144,1.144,0,0,1,1.064-1.279h0a1.17,1.17,0,0,1,1.279,1.066h0a1.172,1.172,0,0,1-1.064,1.279h0a.218.218,0,0,1-.121.024h0A1.18,1.18,0,0,1,240.021,44.8Zm-.261-4.833a1.172,1.172,0,0,1,1.185-1.185h0a1.168,1.168,0,0,1,1.185,1.161h0a1.2,1.2,0,0,1-1.161,1.208h-.024A1.2,1.2,0,0,1,239.76,39.965Zm0,0Zm1.279-3.577a1.177,1.177,0,0,1-1.066-1.3h0a1.19,1.19,0,0,1,1.3-1.042h0a1.179,1.179,0,0,1,1.068,1.3h0a1.206,1.206,0,0,1-1.185,1.066h0A1.15,1.15,0,0,0,241.039,36.388ZM241.7,31.7a1.2,1.2,0,0,1-.832-1.469h0a1.236,1.236,0,0,1,1.471-.829h0a1.2,1.2,0,0,1,.829,1.469h0a1.19,1.19,0,0,1-1.137.877h0A1.6,1.6,0,0,1,241.7,31.7Zm1.538-4.5a1.168,1.168,0,0,1-.4-1.611h0a1.174,1.174,0,0,1,1.611-.426h0a1.171,1.171,0,0,1,.4,1.635h0a1.116,1.116,0,0,1-1,.569h0A1.156,1.156,0,0,1,243.24,27.2Zm2.8-3.838a1.173,1.173,0,0,1,.261-1.635h0a1.18,1.18,0,0,1,1.658.261h0a1.2,1.2,0,0,1-.263,1.658h0a1.24,1.24,0,0,1-.708.213h0A1.159,1.159,0,0,1,246.038,23.357Zm4.12-2.3a1.2,1.2,0,0,1,.95-1.4h0a1.183,1.183,0,0,1,1.374.948h0a1.206,1.206,0,0,1-.95,1.4h-.211A1.151,1.151,0,0,1,250.158,21.059Zm5.712.924h0a1.2,1.2,0,0,1-1-1.35h0a1.178,1.178,0,0,1,1.35-1h0a1.176,1.176,0,0,1,.995,1.327h0a1.173,1.173,0,0,1-1.161,1.019h-.19Z" transform="translate(-239.76 -19.624)" fill="#079cee"/>
        <path id="Path_16604" data-name="Path 16604" d="M249.294,22.5a1.178,1.178,0,0,1-.827-.332,1.205,1.205,0,0,1-.358-.853,1.114,1.114,0,0,1,.358-.829,1.187,1.187,0,0,1,1.658,0,1.109,1.109,0,0,1,.353.829,1.2,1.2,0,0,1-.353.853A1.185,1.185,0,0,1,249.294,22.5Z" transform="translate(-228.329 -18.908)" fill="#079cee"/>
      </g>
      <g id="Group_7454" data-name="Group 7454" transform="translate(83.034 33.82)">
        <path id="Path_16605" data-name="Path 16605" d="M275.855,33.062a14.054,14.054,0,1,1-12.367,8.267c.443-.98-.285-2.776.363-3.622.613-.8,2.595-.665,3.365-1.318A14.014,14.014,0,0,1,275.855,33.062Z" transform="translate(-262.244 -33.055)" fill="#9a59c5"/>
        <g id="Group_7452" data-name="Group 7452" transform="translate(9.369 7.414)">
          <path id="Path_16606" data-name="Path 16606" d="M267.148,38.876a6.647,6.647,0,0,1,11.246,5.82" transform="translate(-267.148 -36.936)" fill="none" stroke="#fff" stroke-linecap="round" stroke-linejoin="round" stroke-width="1"/>
          <path id="Path_16607" data-name="Path 16607" d="M276.234,39.941l-2.15,2.239-2.239-2.15" transform="translate(-262.871 -34.199)" fill="none" stroke="#fff" stroke-linecap="round" stroke-linejoin="round" stroke-width="1"/>
        </g>
        <g id="Group_7453" data-name="Group 7453" transform="translate(5.396 12.861)">
          <path id="Path_16608" data-name="Path 16608" d="M277.553,45.565a6.648,6.648,0,0,1-11.334-5.732" transform="translate(-264.107 -39.744)" fill="none" stroke="#fff" stroke-linecap="round" stroke-linejoin="round" stroke-width="1"/>
          <path id="Path_16609" data-name="Path 16609" d="M265.069,42.026l2.15-2.239,2.239,2.15" transform="translate(-265.069 -39.786)" fill="none" stroke="#fff" stroke-linecap="round" stroke-linejoin="round" stroke-width="1"/>
        </g>
      </g>
      <path id="Path_16610" data-name="Path 16610" d="M254.6,64.21h0a1.2,1.2,0,0,1,.235-1.656h0a1.18,1.18,0,0,1,1.661.213h0a1.2,1.2,0,0,1-.213,1.658h0a1.268,1.268,0,0,1-.734.261h0A1.193,1.193,0,0,1,254.6,64.21Z" transform="translate(-190.988 38.813)" fill="#079cee"/>
      <path id="Path_16611" data-name="Path 16611" d="M260.369,34.427a1.185,1.185,0,0,1,.545-1.587h0a1.185,1.185,0,0,1,1.587.545h0a1.187,1.187,0,0,1-.545,1.587h0a1.407,1.407,0,0,1-.521.118h0A1.213,1.213,0,0,1,260.369,34.427Z" transform="translate(-182.941 -1.695)" fill="#9a59c5"/>
      <path id="Path_16612" data-name="Path 16612" d="M261.994,35.74a.673.673,0,0,1,.308-.9h0a.673.673,0,0,1,.9.308h0a.674.674,0,0,1-.31.9h0a.787.787,0,0,1-.294.066h0A.686.686,0,0,1,261.994,35.74Z" transform="translate(-180.645 1.116)" fill="#9a59c5"/>
      <path id="Path_16613" data-name="Path 16613" d="M262.243,34.158a.335.335,0,0,1,.154-.448h0a.336.336,0,0,1,.45.154h0a.336.336,0,0,1-.154.45h0a.424.424,0,0,1-.147.033h0A.341.341,0,0,1,262.243,34.158Z" transform="translate(-180.257 -0.384)" fill="#9a59c5"/>
      <path id="Path_16614" data-name="Path 16614" d="M233.606,54.745a1.17,1.17,0,0,1-.121-1.658h0a1.171,1.171,0,0,1,1.661-.118h0a1.168,1.168,0,0,1,.116,1.658h0a1.061,1.061,0,0,1-.874.4h0A1.178,1.178,0,0,1,233.606,54.745Z" transform="translate(-219.98 25.631)" fill="#ff6f47"/>
      <g id="Group_7458" data-name="Group 7458" transform="translate(10.217 84.068)">
        <path id="Path_16615" data-name="Path 16615" d="M258.2,67.4a13.134,13.134,0,1,1-22.628-9.077c.652-.684.658-2.889,1.444-3.419.94-.634,2.691.444,3.783.068A13.149,13.149,0,0,1,258.2,67.4Z" transform="translate(-231.931 -54.264)" fill="#ff6f47"/>
        <g id="Group_7457" data-name="Group 7457" transform="translate(8.185 6.026)">
          <g id="Group_7455" data-name="Group 7455">
            <line id="Line_1" data-name="Line 1" y2="14.216" transform="translate(2.024)" fill="none" stroke="#fff" stroke-linecap="round" stroke-miterlimit="10" stroke-width="1"/>
            <circle id="Ellipse_343" data-name="Ellipse 343" cx="2.024" cy="2.024" r="2.024" transform="translate(0 2.582)" fill="#ff6f47" stroke="#fff" stroke-miterlimit="10" stroke-width="1"/>
          </g>
          <g id="Group_7456" data-name="Group 7456" transform="translate(5.85)">
            <line id="Line_2" data-name="Line 2" y2="14.216" transform="translate(2.024)" fill="none" stroke="#fff" stroke-linecap="round" stroke-miterlimit="10" stroke-width="1"/>
            <circle id="Ellipse_344" data-name="Ellipse 344" cx="2.024" cy="2.024" r="2.024" transform="translate(0 8.072)" fill="#ff6f47" stroke="#fff" stroke-miterlimit="10" stroke-width="1"/>
          </g>
        </g>
      </g>
      <circle id="Ellipse_345" data-name="Ellipse 345" cx="0.474" cy="0.474" r="0.474" transform="translate(16.502 81.889)" fill="#ff6f47"/>
    </g>
    <path id="Path_16616" data-name="Path 16616" d="M257.188,67.367h0a1.168,1.168,0,0,1,.116-1.658h0a1.2,1.2,0,0,1,1.685.118h0a1.217,1.217,0,0,1-.121,1.682h0a1.262,1.262,0,0,1-.782.284h0A1.174,1.174,0,0,1,257.188,67.367Z" transform="translate(40.088 62.699)" fill="#00bf8c"/>
    <g id="Group_7460" data-name="Group 7460" transform="translate(296.163 101.574)">
      <path id="Path_16617" data-name="Path 16617" d="M257.1,69.644a11.86,11.86,0,1,1,14.876,7.745,10.921,10.921,0,0,1-6.932.062c-3.341-1.194-3.859.109-5.153-1.031-.967-.851-1.123-3.307-1.779-4.461A11.875,11.875,0,0,1,257.1,69.644Z" transform="translate(-256.55 -54.214)" fill="#00bf8c"/>
      <path id="Path_16618" data-name="Path 16618" d="M268.867,57.925,262.691,64.1,259.6,61.013" transform="translate(-252.371 -49.134)" fill="none" stroke="#fff" stroke-linecap="round" stroke-linejoin="round" stroke-width="1"/>
    </g>
    <circle id="Ellipse_346" data-name="Ellipse 346" cx="0.476" cy="0.476" r="0.476" transform="translate(298.976 125.71)" fill="#00bf8c"/>
  </g>
</svg>
