<svg xmlns="http://www.w3.org/2000/svg" width="102.176" height="31" viewBox="0 0 102.176 31">
  <g id="f3f6502b-ac19-4f9c-8192-42f3ab79a57a" transform="translate(0 0.001)">
    <g id="a00f19b8-dc37-4b71-8aad-06c7e35cb1ec" transform="translate(0 -0.001)">
      <rect id="Rectangle_1653" data-name="Rectangle 1653" width="4.797" height="30.199" transform="translate(36.321 0.396)" fill="#004c85"/>
      <path id="Path_14962" data-name="Path 14962" d="M80.093,4.811a14.472,14.472,0,0,0-4.944-3.146A17.913,17.913,0,0,0,68.733.51H57.93V30.733h10.8a17.939,17.939,0,0,0,6.416-1.17,14.349,14.349,0,0,0,4.944-3.1,13.893,13.893,0,0,0,3.177-4.781,16.081,16.081,0,0,0,1.124-6.068,16.069,16.069,0,0,0-1.124-6.029A14.029,14.029,0,0,0,80.093,4.811ZM79.6,15.66c0,6.447-4.471,10.95-10.849,10.95H62.634V4.64h6.13C75.227,4.64,79.6,9.058,79.6,15.614Z" transform="translate(-13.038 -0.114)" fill="#004c85"/>
      <path id="Path_14963" data-name="Path 14963" d="M120.208,21.535v.039a11.941,11.941,0,0,1-9.617,4.843A10.415,10.415,0,0,1,99.858,15.638,10.639,10.639,0,0,1,110.615,4.649a11.764,11.764,0,0,1,9.408,4.89h0l3.355-3.03h0a14.112,14.112,0,0,0-5.316-4.65A16.624,16.624,0,0,0,110.483,0a15.592,15.592,0,0,0-10.95,4.347A15.048,15.048,0,0,0,96.17,9.3a16.358,16.358,0,0,0-1.24,6.347,16.143,16.143,0,0,0,1.217,6.277,14.439,14.439,0,0,0,3.317,4.843A15.574,15.574,0,0,0,110.367,31a17,17,0,0,0,7.749-1.844,15.416,15.416,0,0,0,5.425-4.65h0Z" transform="translate(-21.365 0.001)" fill="#004c85"/>
      <path id="Path_14964" data-name="Path 14964" d="M7.319,35.483A15.861,15.861,0,0,0,12.349,38.3a.867.867,0,0,0,.248.039h9.64a.982.982,0,0,0,.256-.039A15.913,15.913,0,0,0,26.135,36.5a.3.3,0,0,0,.085-.411.286.286,0,0,0-.248-.132H16.588a2.162,2.162,0,0,1-1.8-1.007.418.418,0,0,0-.333-.178H7.567a.388.388,0,0,0-.387.387v.008a.386.386,0,0,0,.139.3Z" transform="translate(-1.616 -7.825)" fill="#004c85"/>
      <path id="Path_14965" data-name="Path 14965" d="M27.913,3.48a15.975,15.975,0,0,0-4.9-2.774A1.711,1.711,0,0,0,22.5.62H13.128a1.664,1.664,0,0,0-.519.085A15.955,15.955,0,0,0,9.1,2.464a.294.294,0,0,0-.108.4.286.286,0,0,0,.248.132h9.408a2.17,2.17,0,0,1,1.829,1.023.4.4,0,0,0,.333.178h6.85a.4.4,0,0,0,.4-.4A.408.408,0,0,0,27.913,3.48Z" transform="translate(-2.015 -0.139)" fill="#004c85"/>
      <path id="Path_14966" data-name="Path 14966" d="M31.594,18.806a.6.6,0,0,0-.6-.566H24.891a.775.775,0,0,1-.721-.457.6.6,0,0,0-.535-.333H.837a.775.775,0,0,0-.775.728A8.36,8.36,0,0,0,0,19.426v.62a.581.581,0,0,0,.589.566H6.711a.775.775,0,0,1,.713.457.6.6,0,0,0,.542.333h22.8a.775.775,0,0,0,.775-.728c0-.411.046-.829.046-1.248A5.517,5.517,0,0,0,31.594,18.806Z" transform="translate(0 -3.927)" fill="#004c85"/>
      <path id="Path_14967" data-name="Path 14967" d="M21.544,11.553a1.968,1.968,0,0,1,1.666.914.6.6,0,0,0,.5.271h6.734a.589.589,0,0,0,.58-.6.576.576,0,0,0-.03-.177,15.957,15.957,0,0,0-1.364-2.782.773.773,0,0,0-.674-.372H3.419a.775.775,0,0,0-.7.349,14.963,14.963,0,0,0-.914,1.7.488.488,0,0,0,.236.649l0,0a.515.515,0,0,0,.209.046Z" transform="translate(-0.396 -1.982)" fill="#004c85"/>
      <path id="Path_14968" data-name="Path 14968" d="M10.71,27.306a1.946,1.946,0,0,1-1.658-.914.6.6,0,0,0-.5-.271H1.829a.589.589,0,0,0-.589.589h0a.452.452,0,0,0,.039.209A16,16,0,0,0,2.6,29.7a.775.775,0,0,0,.666.372H28.843a.773.773,0,0,0,.674-.372,14.963,14.963,0,0,0,.914-1.7.5.5,0,0,0-.248-.651.455.455,0,0,0-.2-.046Z" transform="translate(-0.279 -5.878)" fill="#004c85"/>
    </g>
  </g>
</svg>
