<svg xmlns="http://www.w3.org/2000/svg" width="164.724" height="31.548" viewBox="0 0 164.724 31.548"><path d="M0,0H31.548V31.548H0Z" fill="#ff690f"/><path d="M38.226,31.026h3.835V46.8H38.226Z" transform="translate(-28.501 -23.132)" fill="#fff"/><path d="M60.595,46.787h-4.23L52,38.906l4.362-7.88h4.23l-4.388,7.88Z" transform="translate(-38.772 -23.132)" fill="#fff"/><path d="M130.889,0h31.548V31.548H130.889Z" transform="translate(-97.588)" fill="#ff690f"/><path d="M167.669,44.443l-.685,2.293H162.9l5.192-15.814h4.876l5.152,15.814h-4.177l-.685-2.267Zm2.794-8.987-1.845,5.891h3.69Z" transform="translate(-121.454 -23.055)" fill="#fff"/><path d="M261.726,0h31.548V31.548H261.726Z" transform="translate(-195.138)" fill="#ff690f"/><path d="M305,46.736h-3.861V39.765l-5.179-8.843h4.56l2.556,4.849,2.517-4.849h4.494L305,39.765Z" transform="translate(-220.664 -23.055)" fill="#fff"/><path d="M392.615,0h31.548V31.548H392.615Z" transform="translate(-292.726)" fill="#ff690f"/><path d="M429.4,44.443l-.685,2.293h-4.085l5.192-15.814h4.876l5.153,15.814h-4.178l-.685-2.267Zm2.794-8.987-1.845,5.891h3.69Z" transform="translate(-316.592 -23.055)" fill="#fff"/><path d="M523.452,0H555V31.548H523.452Z" transform="translate(-390.276)" fill="#ff690f"/><path d="M561.678,31.026h3.835V46.8h-3.835Z" transform="translate(-418.776 -23.132)" fill="#fff"/><path d="M584.047,46.787h-4.23l-4.362-7.88,4.362-7.88h4.23l-4.388,7.88Z" transform="translate(-429.048 -23.132)" fill="#fff"/></svg>