<svg xmlns="http://www.w3.org/2000/svg" xmlns:xlink="http://www.w3.org/1999/xlink" width="30.744" height="18.324" viewBox="0 0 30.744 18.324">
  <defs>
    <clipPath id="clip-path">
      <path id="Path_14471" data-name="Path 14471" d="M45.346,39.89A5.583,5.583,0,0,0,38.7,35.1a4.563,4.563,0,0,0-6.391-3.244A6.091,6.091,0,0,0,20.856,36.01a5.078,5.078,0,0,0,.153,10.153H39.8a5.556,5.556,0,0,0,5.542-6.273Z" transform="translate(-15.94 -27.838)" fill="none"/>
    </clipPath>
  </defs>
  <g id="Group_6512" data-name="Group 6512" transform="translate(-12.816 -27.838)">
    <g id="Group_6511" data-name="Group 6511" transform="translate(14.108 27.838)">
      <g id="Group_6505" data-name="Group 6505" transform="translate(0 0)">
        <path id="Path_14467" data-name="Path 14467" d="M41.209,35.171A5.487,5.487,0,0,0,38.7,35.1a4.563,4.563,0,0,0-6.391-3.244A6.091,6.091,0,0,0,20.856,36.01a5.078,5.078,0,0,0,.153,10.153h3.1c1.855-1.57,3.9-3.156,6.161-4.708A77.8,77.8,0,0,1,41.209,35.171Z" transform="translate(-15.94 -27.838)" fill="#079CEE"/>
        <path id="Path_14468" data-name="Path 14468" d="M56.932,50.294a5.585,5.585,0,0,0-4.138-4.718,77.8,77.8,0,0,0-10.943,6.283C39.593,53.411,37.545,55,35.69,56.567h15.7a5.556,5.556,0,0,0,5.542-6.273Z" transform="translate(-27.525 -38.243)" fill="#18b6ea"/>
      </g>
      <g id="Group_6510" data-name="Group 6510" transform="translate(0 0)">
        <g id="Group_6509" data-name="Group 6509" clip-path="url(#clip-path)">
          <g id="Group_6508" data-name="Group 6508" transform="translate(9.841 0.375)">
            <g id="Group_6506" data-name="Group 6506" transform="translate(4.473)">
              <path id="Path_14469" data-name="Path 14469" d="M51.749,43.571a1.137,1.137,0,0,1-1.137-1.132l-.05-12.552a1.137,1.137,0,0,1,1.133-1.141h0a1.137,1.137,0,0,1,1.137,1.132l.05,12.552a1.137,1.137,0,0,1-1.133,1.141Z" transform="translate(-50.562 -28.746)" fill="#00fbb9"/>
            </g>
            <g id="Group_6507" data-name="Group 6507" transform="translate(0 8.103)">
              <path id="Path_14470" data-name="Path 14470" d="M45.4,55.068a1.135,1.135,0,0,1-.8-.326l-4.523-4.449a1.137,1.137,0,0,1,1.595-1.621l3.776,3.714,4.171-3.6A1.137,1.137,0,1,1,51.111,50.5l-4.965,4.287A1.134,1.134,0,0,1,45.4,55.068Z" transform="translate(-39.743 -48.345)" fill="#00fbb9"/>
            </g>
          </g>
        </g>
      </g>
    </g>
    <circle id="Ellipse_2367" data-name="Ellipse 2367" cx="1.046" cy="1.046" r="1.046" transform="translate(14.978 33.264)" fill="#a95adf"/>
    <circle id="Ellipse_2368" data-name="Ellipse 2368" cx="0.523" cy="0.523" r="0.523" transform="translate(12.816 32.685)" fill="#ff673c"/>
  </g>
</svg>
