<svg id="new-logo" xmlns="http://www.w3.org/2000/svg" width="123.062" height="35.146" viewBox="0 0 123.062 35.146">
  <g id="icon">
    <g id="bg">
      <path id="path-1" d="M26.473.772A41.157,41.157,0,0,0,17.555,0,41.157,41.157,0,0,0,8.637.772,10.16,10.16,0,0,0,.772,8.637,41.157,41.157,0,0,0,0,17.555a41.157,41.157,0,0,0,.772,8.918,10.292,10.292,0,0,0,7.9,7.9,43.526,43.526,0,0,0,8.918.772,41.157,41.157,0,0,0,8.918-.772,10.292,10.292,0,0,0,7.9-7.9,43.526,43.526,0,0,0,.772-8.918,41.157,41.157,0,0,0-.772-8.918A10.341,10.341,0,0,0,26.473.772Z" fill="#00b388" fill-rule="evenodd"/>
    </g>
    <g id="Path-Clipped" transform="translate(8.637 7.724)">
      <path id="Path" d="M37.731,41.241a2.622,2.622,0,0,0-1.9-1.58,12.423,12.423,0,0,0-2.317-.211,10,10,0,0,0-2.317.211,2.723,2.723,0,0,0-1.9,1.545h0a.7.7,0,0,1-.7.421.263.263,0,0,1-.176-.035,13.606,13.606,0,0,1-3.09-.562h0a1.145,1.145,0,0,1-.737-1.053v-.105h0v-.035a46.494,46.494,0,0,1,2.282-8.6c1.475-4.389,3.055-7.935,3.757-8.6a1.559,1.559,0,0,1,.386-.281l.211-.105h0A8.751,8.751,0,0,1,33.518,22a8.751,8.751,0,0,1,2.282.246h0l.211.105a1.559,1.559,0,0,1,.386.281h0c.7.7,2.247,4.248,3.757,8.6a47.214,47.214,0,0,1,2.282,8.6v.035h0v.105A1.145,1.145,0,0,1,41.7,41.03h0a15.922,15.922,0,0,1-3.09.562.445.445,0,0,0-.211.035h0a.66.66,0,0,1-.667-.386Z" transform="translate(-24.6 -22)" fill="#fff" fill-rule="evenodd"/>
    </g>
  </g>
  <path id="woodmark" d="M137.118,19.8h3.371V34.444h-3.371V31.881a5.7,5.7,0,0,1-5.2,2.879c-3.9,0-7.022-3.406-7.022-7.619a7.291,7.291,0,0,1,7.022-7.584,5.7,5.7,0,0,1,5.2,2.879Zm50.243,0h3.371V34.444h-3.371V31.881a5.7,5.7,0,0,1-5.2,2.879c-3.9,0-7.022-3.406-7.022-7.619a7.291,7.291,0,0,1,7.022-7.584,5.7,5.7,0,0,1,5.2,2.879ZM132.73,31.565a4.442,4.442,0,1,0,0-8.883,4.442,4.442,0,1,0,0,8.883Zm50.068,0a4.442,4.442,0,1,0,0-8.883,4.442,4.442,0,1,0,0,8.883ZM145.51,12.5a2.124,2.124,0,1,1-2.142,2.107A2.167,2.167,0,0,1,145.51,12.5Zm-1.65,7.268H147.2V34.409H143.86Zm13.763-.281a4.693,4.693,0,0,1,1.685.281,6.021,6.021,0,0,1,.667.316l-1.369,2.844a4.244,4.244,0,0,0-1.334-.211c-1.615,0-3.406,1.334-3.406,3.932v7.795h-3.3V19.768H153.9v2.107A4.33,4.33,0,0,1,157.623,19.487Zm16.713,11.2a7.242,7.242,0,0,1-6.741,4,7.6,7.6,0,1,1,0-15.2,6.917,6.917,0,0,1,6.32,3.546l-2.809,1.58a3.864,3.864,0,0,0-3.511-1.931,4.407,4.407,0,0,0,.035,8.813,4.072,4.072,0,0,0,3.792-2.142ZM197.4,12.5V34.409h-3.3V12.5Zm6.706,0V34.409h-3.336V12.5Z" transform="translate(-81.047 -8.111)" fill="#101820"/>
</svg>
