<svg xmlns="http://www.w3.org/2000/svg" width="194.317" height="25.608" viewBox="0 0 194.317 25.608"><g transform="translate(-3.957 -2.73)"><path d="M236.959,4.555H251.89v5.816H242.9v3.6h7.335v5.773H242.9v3.819h8.985v5.773H236.959Z" transform="translate(-183.088 -1.434)"/><path d="M151.973,12.713a5.918,5.918,0,0,0-1.215-3.169,3.641,3.641,0,0,0-2.084-.825,2.682,2.682,0,0,0-2.517,1.953,13.307,13.307,0,0,0-.825,5.165c0,4.384,1.129,6.641,3.429,6.641,1.736,0,2.908-1.519,3.212-4.3H157.7a13.5,13.5,0,0,1-2.517,7.422,7.737,7.737,0,0,1-6.12,2.734,10.009,10.009,0,0,1-5.209-1.389,8.652,8.652,0,0,1-3.342-4.384,17.892,17.892,0,0,1-1.215-6.728,19.918,19.918,0,0,1,1.3-7.422,10.762,10.762,0,0,1,3.516-4.384,8.648,8.648,0,0,1,4.3-1.3c3.212.087,5.6,1.215,6.858,2.951a13.684,13.684,0,0,1,2.3,7.032Z" transform="translate(-106.349)"/><rect width="5.903" height="24.74" transform="translate(24.747 3.121)"/><path d="M3.957,4.555H9.3l6.293,13.629V4.555h5.686V29.338h-5.6L9.512,15.927V29.338H3.957Z" transform="translate(0 -1.434)"/><rect width="5.425" height="5.425" transform="translate(51.353 12.756)" fill="#049fd6"/><rect width="5.426" height="5.425" transform="translate(30.65 12.756)" fill="#049fd6"/><rect width="5.426" height="5.425" transform="translate(19.322 12.756)" fill="#049fd6"/><rect width="5.425" height="5.426" transform="translate(73.663 12.886)" fill="#049fd6"/><rect width="1.476" height="13.499" transform="translate(86.293 11.845)"/><path d="M388.64,26.277h.217a.77.77,0,0,0,.738-.781v-.3a.77.77,0,0,0-.738-.781h-.217a.77.77,0,0,0-.738.781v.3A.742.742,0,0,0,388.64,26.277Z" transform="translate(-301.696 -17.036)"/><path d="M421.81,45.308a5.417,5.417,0,0,0-1.563-1.216,6.048,6.048,0,0,0-2.3-.434,6.6,6.6,0,0,0-1.953.3,4.6,4.6,0,0,0-1.432.825,5.077,5.077,0,0,0-.911,1.042,1.206,1.206,0,0,0-.3.564l-.217-2.343c0-.043-.043-.087-.13-.087H411.61V57.635h1.736V50.56a6.862,6.862,0,0,1,.217-1.867,5.139,5.139,0,0,1,2.214-3.038,3.684,3.684,0,0,1,2-.478,5.918,5.918,0,0,1,1.563.217,2.23,2.23,0,0,1,1.128.781,3.885,3.885,0,0,1,.694,1.475,9.316,9.316,0,0,1,.261,2.388v7.553h1.736V50.039C423.112,48.042,422.764,46.35,421.81,45.308Z" transform="translate(-320.325 -32.161)"/><path d="M491.852,31.033a.636.636,0,0,0-1.041-.3l-.087.086a10.444,10.444,0,0,1-1,.912,5.54,5.54,0,0,1-1.432.738,6.67,6.67,0,0,1-2,.3,4.986,4.986,0,0,1-2.3-.521,6.169,6.169,0,0,1-1.78-1.389,6.884,6.884,0,0,1-1.128-2.083,8.386,8.386,0,0,1-.391-2.6,9.08,9.08,0,0,1,.391-2.648,6.861,6.861,0,0,1,1.128-2.17,5.484,5.484,0,0,1,1.823-1.476,4.852,4.852,0,0,1,2.388-.564,4.8,4.8,0,0,1,2.908.825,7.111,7.111,0,0,1,1.345,1.215,1.017,1.017,0,0,0,1.519.087l1.563-1.476a10.168,10.168,0,0,0-1.259-1.519,7.432,7.432,0,0,0-1.606-1.215,9.522,9.522,0,0,0-2.04-.825,8.774,8.774,0,0,0-2.474-.3,8.316,8.316,0,0,0-3.776.824,9.131,9.131,0,0,0-2.951,2.17,9.546,9.546,0,0,0-1.91,3.212,11.608,11.608,0,0,0-.695,3.95,10.487,10.487,0,0,0,.695,3.95,8.771,8.771,0,0,0,1.91,3.125,8.158,8.158,0,0,0,2.908,2.084,9.546,9.546,0,0,0,3.733.737,7.777,7.777,0,0,0,2.474-.39,10.99,10.99,0,0,0,2.17-.955,9.648,9.648,0,0,0,1.78-1.346h0a8.251,8.251,0,0,1-.478-1.085C492.156,32.031,491.983,31.553,491.852,31.033Z" transform="translate(-371.748 -10.507)"/><path d="M555.346,54.724a7.1,7.1,0,0,0,2.17,1.563,6.632,6.632,0,0,0,2.778.564,6.5,6.5,0,0,0,2.778-.564,6.619,6.619,0,0,0,2.17-1.563,6.539,6.539,0,0,0,1.389-2.3,7.664,7.664,0,0,0,0-5.556,8.132,8.132,0,0,0-1.389-2.3,7.119,7.119,0,0,0-2.17-1.563,6.63,6.63,0,0,0-2.778-.564,6.492,6.492,0,0,0-2.778.564,6.63,6.63,0,0,0-2.17,1.563,6.531,6.531,0,0,0-1.389,2.3,7.667,7.667,0,0,0,0,5.556A8.779,8.779,0,0,0,555.346,54.724Zm1.563-6.554a4.059,4.059,0,0,1,.651-1.389,4.146,4.146,0,0,1,1.128-1,3.5,3.5,0,0,1,3.212,0,4.142,4.142,0,0,1,1.128,1,3.72,3.72,0,0,1,.651,1.389,6.055,6.055,0,0,1,.217,1.476,5.758,5.758,0,0,1-.217,1.476,4.483,4.483,0,0,1-.651,1.389,3.084,3.084,0,0,1-1.128,1,3.5,3.5,0,0,1-3.212,0,4.145,4.145,0,0,1-1.128-1,4.064,4.064,0,0,1-.651-1.389,5.79,5.79,0,0,1-.217-1.476A6.066,6.066,0,0,1,556.908,48.171Z" transform="translate(-431.769 -31.204)"/><path d="M624.958,43.759h2.431a.678.678,0,0,1,.694.651l.044.868a7.854,7.854,0,0,1,.608-.608,6.719,6.719,0,0,1,.824-.607,4.047,4.047,0,0,1,1.085-.434,4.4,4.4,0,0,1,1.346-.174,4.469,4.469,0,0,1,3.646,1.519,6.193,6.193,0,0,1,1.259,4.081v8.2h-3.212v-8.2a2.834,2.834,0,0,0-.651-2,2.258,2.258,0,0,0-1.736-.695,2.772,2.772,0,0,0-1.215.26,2.847,2.847,0,0,0-1,.781,4.783,4.783,0,0,0-.651,1.129,3.715,3.715,0,0,0-.217,1.389v7.292H625V43.759Z" transform="translate(-487.969 -32.002)"/><path d="M695.045,37.822v-.13a18.957,18.957,0,0,1-2,1.389,2.439,2.439,0,0,1-1.215.217,1.017,1.017,0,0,1-1-.608,3.562,3.562,0,0,1-.174-1.78V31.138h3.516V28.316H690.66V23.8h-3.515V28.36h-2.821v2.822h2.821v6.033a9.921,9.921,0,0,0,.174,2.04,3.854,3.854,0,0,0,.695,1.606,3.278,3.278,0,0,0,1.3,1,4.7,4.7,0,0,0,2,.347,7.751,7.751,0,0,0,2.084-.347,9.557,9.557,0,0,0,2.257-1.3l-.043-.043A6.11,6.11,0,0,1,695.045,37.822Z" transform="translate(-534.618 -16.559)"/><path d="M752.237,45.551a4.925,4.925,0,0,0-1.041-1.563,4.732,4.732,0,0,0-1.693-1,5.933,5.933,0,0,0-2.214-.348,8.982,8.982,0,0,0-2,.174,11.039,11.039,0,0,0-1.52.391,5.493,5.493,0,0,0-1.128.564,7.551,7.551,0,0,0-.868.607l.694,1.085a1.529,1.529,0,0,0,1.953.565,2.056,2.056,0,0,1,.3-.13,5.105,5.105,0,0,1,2.17-.391,3.474,3.474,0,0,1,2.084.564,1.9,1.9,0,0,1,.824,1.563v.3c-.347,0-.738-.043-1.085-.043-.3,0-.651-.043-.954-.043H746.9a7.741,7.741,0,0,0-2.3.3,4.665,4.665,0,0,0-1.78.955,3.981,3.981,0,0,0-1.129,1.518,5.627,5.627,0,0,0-.3.912h0a4.826,4.826,0,0,0-.13,1.172,5.166,5.166,0,0,0,.3,1.736h0c.043.087.043.13.087.217a3.625,3.625,0,0,0,1.041,1.346,4.613,4.613,0,0,0,1.433.781,4.915,4.915,0,0,0,1.563.26,5.484,5.484,0,0,0,2.387-.521,4.069,4.069,0,0,0,1.563-1.041v.261a1.2,1.2,0,0,0,1.216,1.129h1.736V47.548A5.847,5.847,0,0,0,752.237,45.551ZM749.72,51.8a2.293,2.293,0,0,1-.347,1,4.1,4.1,0,0,1-.695.825,3.274,3.274,0,0,1-1,.564,3.232,3.232,0,0,1-1.128.174,2.494,2.494,0,0,1-1.65-.478,1.653,1.653,0,0,1-.608-1.345,2.145,2.145,0,0,1,.608-1.476,2.949,2.949,0,0,1,2.17-.651h.738c.26,0,.608.043.868.043.218,0,.478.043.738.043a.3.3,0,0,1,.3.3v1Z" transform="translate(-579.354 -31.363)"/><path d="M812.919,54.8a7.059,7.059,0,0,1-2.127,1.607,6.629,6.629,0,0,1-2.864.607,7.561,7.561,0,0,1-2.909-.521,5.852,5.852,0,0,1-2.171-1.475,6.951,6.951,0,0,1-1.345-2.257,8.894,8.894,0,0,1-.477-2.908,7.359,7.359,0,0,1,.521-2.778,8.131,8.131,0,0,1,1.389-2.3,7.11,7.11,0,0,1,2.17-1.563,6.98,6.98,0,0,1,5.6.043,6.153,6.153,0,0,1,2.171,1.606l-1.085,1.172a1.4,1.4,0,0,1-1.823.217,3.713,3.713,0,0,0-.434-.26,3.483,3.483,0,0,0-1.693-.391,3.654,3.654,0,0,0-1.606.348,4.008,4.008,0,0,0-1.129.955,3.542,3.542,0,0,0-.651,1.346,6.49,6.49,0,0,0-.216,1.562,5.859,5.859,0,0,0,.216,1.519,3.882,3.882,0,0,0,.651,1.346,4.149,4.149,0,0,0,1.129,1,3.143,3.143,0,0,0,1.606.391,3.78,3.78,0,0,0,1.737-.391c.174-.087.3-.174.477-.26a1.344,1.344,0,0,1,1.78.26Z" transform="translate(-626.32 -31.364)"/><path d="M864.992,31.529h-2.171V28.751h2.171v-4.34H868.2v4.383h3.429v2.778H868.2v5.9a3.907,3.907,0,0,0,.348,1.78,1.332,1.332,0,0,0,1.172.608,3.044,3.044,0,0,0,1.215-.217h0a1.087,1.087,0,0,1,1.432.348l.781,1.215a6,6,0,0,1-1.866,1.172,5.249,5.249,0,0,1-2.083.347,5.472,5.472,0,0,1-2-.347,3.536,3.536,0,0,1-1.346-1,4.236,4.236,0,0,1-.738-1.607,9.828,9.828,0,0,1-.217-2.04V31.529Z" transform="translate(-674.877 -17.036)"/></g></svg>