<svg xmlns="http://www.w3.org/2000/svg" width="33.913" height="23.958" viewBox="0 0 33.913 23.958">
  <g id="Group_6538" data-name="Group 6538" transform="translate(-132.044 -23.185)">
    <g id="Group_6537" data-name="Group 6537" transform="translate(136.206 23.185)">
      <g id="Group_6533" data-name="Group 6533" transform="translate(11.433)">
        <g id="Group_6531" data-name="Group 6531" transform="translate(0.328)">
          <path id="Path_14494" data-name="Path 14494" d="M184.752,29.435a.48.48,0,0,0-.552-.284l-2.938.679a.478.478,0,0,1-.487-.178,9.008,9.008,0,0,0-1.439-1.5.478.478,0,0,1-.169-.479l.682-2.931a.481.481,0,0,0-.28-.551l-2.114-.9a.481.481,0,0,0-.594.186l-1.6,2.53a.475.475,0,0,1-.467.214,9,9,0,0,0-2.064-.03.474.474,0,0,1-.456-.221l-1.568-2.556a.481.481,0,0,0-.59-.194l-2.129.859a.481.481,0,0,0-.29.545l.612,2.914a.475.475,0,0,1-.176.473c-.118.093-.232.192-.346.293l2.916,3.7a5.872,5.872,0,0,1,1.261-.973.709.709,0,0,1,.168-.064c3.05-.646,5.209,1.015,5.743,3.141.368-.2.729-.4,1.1-.592q3.141-1.653,6.191-3.075Z" transform="translate(-167.69 -23.185)" fill="#079CEE"/>
        </g>
        <g id="Group_6532" data-name="Group 6532" transform="translate(0 7.255)">
          <path id="Path_14495" data-name="Path 14495" d="M184.966,47.346l-2.531-1.6a.477.477,0,0,1-.216-.464,9.214,9.214,0,0,0-.006-2.079.477.477,0,0,1,.224-.464l2.6-1.587a.48.48,0,0,0,.194-.595l-.472-1.136q-3.046,1.427-6.191,3.075c-.372.2-.734.395-1.1.592a4.707,4.707,0,0,1-2.39,5.167.718.718,0,0,1-.165.07,4.883,4.883,0,0,1-4.195-.692l-3.766,2.968c.206.2.419.4.646.578a.475.475,0,0,1,.17.485l-.713,2.906a.48.48,0,0,0,.279.557l2.114.9a.48.48,0,0,0,.591-.181l1.637-2.526a.48.48,0,0,1,.461-.211,9.114,9.114,0,0,0,2.085,0,.477.477,0,0,1,.463.22l1.6,2.575a.481.481,0,0,0,.588.192L179,55.236a.481.481,0,0,0,.288-.554l-.678-2.935a.478.478,0,0,1,.177-.487,9.136,9.136,0,0,0,1.5-1.439.477.477,0,0,1,.479-.169l2.931.682a.48.48,0,0,0,.551-.28l.9-2.114A.48.48,0,0,0,184.966,47.346Z" transform="translate(-166.955 -39.425)" fill="#00afec"/>
        </g>
      </g>
      <g id="Group_6536" data-name="Group 6536" transform="translate(0 6.307)">
        <g id="Group_6534" data-name="Group 6534" transform="translate(0 5.03)">
          <path id="Path_14496" data-name="Path 14496" d="M142.228,50.345a.866.866,0,0,1,0-1.733l12.715-.051h0a.866.866,0,0,1,0,1.733l-12.715.051Z" transform="translate(-141.362 -48.561)" fill="#ff673c"/>
        </g>
        <g id="Group_6535" data-name="Group 6535" transform="translate(8.208)">
          <path id="Path_14497" data-name="Path 14497" d="M160.6,48.647a.867.867,0,0,1-.618-1.474l3.946-4.013-3.82-4.425a.866.866,0,1,1,1.312-1.132l4.342,5.029a.867.867,0,0,1-.038,1.174l-4.507,4.582A.861.861,0,0,1,160.6,48.647Z" transform="translate(-159.735 -37.303)" fill="#ff673c"/>
        </g>
      </g>
    </g>
    <circle id="Ellipse_2375" data-name="Ellipse 2375" cx="0.858" cy="0.858" r="0.858" transform="translate(133.752 34.591)" fill="#a95adf"/>
    <circle id="Ellipse_2376" data-name="Ellipse 2376" cx="0.487" cy="0.487" r="0.487" transform="translate(132.044 35.006)" fill="#0ce6ad"/>
  </g>
</svg>
