<svg xmlns="http://www.w3.org/2000/svg" width="29.551" height="27.449" viewBox="0 0 29.551 27.449">
  <g id="Group_6481" data-name="Group 6481" transform="translate(-14.225 -16.769)">
    <g id="Group_6478" data-name="Group 6478" transform="translate(14.225 20.867)">
      <path id="Path_14444" data-name="Path 14444" d="M66.8,37.436A2.319,2.319,0,0,0,64.01,40.6q2.117-1.178,4.137-2.183A2.771,2.771,0,0,0,66.8,37.436Z" transform="translate(-43.334 -32.944)" fill="none"/>
      <path id="Path_14445" data-name="Path 14445" d="M29.423,54.605a.5.5,0,0,0-.112.059,3.174,3.174,0,0,0-.32,5.174q2.237-1.761,4.724-3.507A3.236,3.236,0,0,0,29.423,54.605Z" transform="translate(-22.196 -42.94)" fill="none"/>
      <path id="Path_14446" data-name="Path 14446" d="M58.073,31.943a2.349,2.349,0,0,1,2.476-.759,2.771,2.771,0,0,1,1.343.979q1.149-.574,2.261-1.1a4.547,4.547,0,0,0-.247-.414.34.34,0,0,1-.019-.357l.732-1.3a.34.34,0,0,0-.083-.431l-.862-.694a.34.34,0,0,0-.437.009l-1.119.985a.337.337,0,0,1-.355.054,4.9,4.9,0,0,0-.987-.286.338.338,0,0,1-.27-.244l-.382-1.443a.34.34,0,0,0-.363-.251l-1.124.117a.34.34,0,0,0-.3.319l-.081,1.484a.337.337,0,0,1-.211.292,4.94,4.94,0,0,0-.909.5.34.34,0,0,1-.359.021l-1.329-.743a.339.339,0,0,0-.43.083l-.694.86a.34.34,0,0,0,.011.439l1.007,1.125a.339.339,0,0,1,.056.362,4.87,4.87,0,0,0-.313.982.337.337,0,0,1-.235.263l-1.441.417a.34.34,0,0,0-.244.358l.1,1.1a.339.339,0,0,0,.313.307l1.516.112a.337.337,0,0,1,.284.208c.047.109.1.214.162.32q1.119-.659,2.217-1.271A2.345,2.345,0,0,1,58.073,31.943Z" transform="translate(-37.079 -26.693)" fill="#a95adf"/>
      <path id="Path_14447" data-name="Path 14447" d="M21.339,46.7a.5.5,0,0,1,.112-.059,3.236,3.236,0,0,1,4.291,1.726c.241-.169.478-.339.723-.507q2.066-1.421,4.087-2.672l-.377-.671a.34.34,0,0,0-.411-.153l-2,.72A.337.337,0,0,1,27.4,45a6.35,6.35,0,0,0-1.134-.933.338.338,0,0,1-.159-.322l.235-2.113a.34.34,0,0,0-.242-.363l-1.558-.454a.339.339,0,0,0-.4.18l-.91,1.908a.336.336,0,0,1-.31.189,6.348,6.348,0,0,0-1.45.15.335.335,0,0,1-.338-.117l-1.312-1.663a.34.34,0,0,0-.43-.088l-1.422.78a.34.34,0,0,0-.158.406l.671,1.994a.337.337,0,0,1-.084.347,6.584,6.584,0,0,0-.916,1.174.337.337,0,0,1-.328.159l-2.1-.259a.34.34,0,0,0-.368.242l-.454,1.558a.34.34,0,0,0,.176.4l1.905.937a.338.338,0,0,1,.187.311,6.09,6.09,0,0,0,.148,1.448.338.338,0,0,1-.117.343l-1.66,1.31a.34.34,0,0,0-.088.43l.781,1.424a.34.34,0,0,0,.4.159L18,53.866a.333.333,0,0,1,.343.086c.017.017.038.032.055.049q1.264-1.063,2.618-2.13A3.174,3.174,0,0,1,21.339,46.7Z" transform="translate(-14.225 -34.972)" fill="#079CEE"/>
      <path id="Path_14448" data-name="Path 14448" d="M58.652,42.762l-.762,1.315a.34.34,0,0,0,.081.434l.859.693a.34.34,0,0,0,.436-.008l1.16-1.011a.338.338,0,0,1,.353-.054,4.9,4.9,0,0,0,.99.29.337.337,0,0,1,.27.24l.41,1.463a.339.339,0,0,0,.358.246l1.088-.1a.339.339,0,0,0,.307-.318l.088-1.514a.337.337,0,0,1,.21-.291,5.033,5.033,0,0,0,.912-.5.337.337,0,0,1,.358-.021l1.329.743a.339.339,0,0,0,.43-.083l.694-.86a.339.339,0,0,0-.012-.439L67.2,41.855a.34.34,0,0,1-.057-.357,4.749,4.749,0,0,0,.279-.959.339.339,0,0,1,.235-.268l1.476-.435a.339.339,0,0,0,.241-.363l-.123-1.1a.339.339,0,0,0-.318-.3l-1.516-.088a.338.338,0,0,1-.293-.216,4.96,4.96,0,0,0-.226-.482q-1.111.522-2.261,1.1a5.1,5.1,0,0,1,.349.493.375.375,0,0,1,.055.172c.172,2.683-2.374,3.621-3.874,2.413a2.306,2.306,0,0,1-.667-.9q-1.1.611-2.217,1.271a5.234,5.234,0,0,0,.344.561A.34.34,0,0,1,58.652,42.762Z" transform="translate(-39.829 -32.909)" fill="#a252db"/>
      <path id="Path_14449" data-name="Path 14449" d="M25.584,61.421l-.259,2.1a.34.34,0,0,0,.242.368l1.558.454a.34.34,0,0,0,.4-.176l.938-1.908a.338.338,0,0,1,.306-.186,6.441,6.441,0,0,0,1.462-.176.338.338,0,0,1,.343.116l1.34,1.673a.34.34,0,0,0,.428.085l1.419-.778a.339.339,0,0,0,.156-.412l-.719-2a.337.337,0,0,1,.084-.356,6.442,6.442,0,0,0,.933-1.135.337.337,0,0,1,.322-.158l2.113.235a.34.34,0,0,0,.363-.242l.455-1.558a.34.34,0,0,0-.18-.4l-1.908-.91a.337.337,0,0,1-.19-.308,6.535,6.535,0,0,0-.177-1.458.338.338,0,0,1,.119-.344l1.695-1.33a.339.339,0,0,0,.086-.433l-.425-.757q-2.018,1.254-4.087,2.672c-.245.169-.482.338-.723.507a3.325,3.325,0,0,1-1.248,3.823.486.486,0,0,1-.11.063,3.369,3.369,0,0,1-3.366-.379q-1.354,1.066-2.618,2.13a6.3,6.3,0,0,0,1.09.859A.335.335,0,0,1,25.584,61.421Z" transform="translate(-20.159 -41.207)" fill="#00afec"/>
    </g>
    <g id="Group_6479" data-name="Group 6479" transform="translate(32.381 35.36)">
      <path id="Path_14450" data-name="Path 14450" d="M61.808,64.876a1.56,1.56,0,0,1,1.718.075,1.835,1.835,0,0,1,.624.911q.846-.1,1.659-.185a3.065,3.065,0,0,0-.063-.314.225.225,0,0,1,.067-.228l.747-.651A.226.226,0,0,0,66.6,64.2l-.385-.626a.226.226,0,0,0-.276-.091l-.919.368a.226.226,0,0,1-.234-.045,3.218,3.218,0,0,0-.554-.4.225.225,0,0,1-.114-.213L64.2,62.2a.226.226,0,0,0-.172-.237l-.729-.176a.226.226,0,0,0-.261.133l-.38.911a.224.224,0,0,1-.2.136,3.265,3.265,0,0,0-.68.111.225.225,0,0,1-.229-.066l-.667-.76a.225.225,0,0,0-.287-.043l-.625.385a.225.225,0,0,0-.09.278l.381.928a.225.225,0,0,1-.045.239,3.214,3.214,0,0,0-.414.545.224.224,0,0,1-.206.113l-.995-.059a.225.225,0,0,0-.232.17l-.179.708a.225.225,0,0,0,.128.261l.924.407a.224.224,0,0,1,.132.193c.005.079.018.157.03.236q.847-.165,1.67-.3A1.558,1.558,0,0,1,61.808,64.876Z" transform="translate(-58.185 -61.783)" fill="#0ce6ad"/>
      <path id="Path_14451" data-name="Path 14451" d="M67.469,72.155l-.929-.392a.224.224,0,0,1-.135-.2,3.254,3.254,0,0,0-.034-.352q-.811.081-1.659.185a3.343,3.343,0,0,1,.109.387.25.25,0,0,1,0,.12,1.619,1.619,0,0,1-2.961.651,1.534,1.534,0,0,1-.219-.709q-.822.139-1.67.3a3.561,3.561,0,0,0,.091.427.226.226,0,0,1-.069.234l-.768.654a.225.225,0,0,0-.046.29l.384.625a.226.226,0,0,0,.275.092l.95-.375a.226.226,0,0,1,.233.044,3.256,3.256,0,0,0,.555.4.224.224,0,0,1,.116.21l-.068,1.006a.225.225,0,0,0,.17.234l.7.178a.225.225,0,0,0,.263-.131l.391-.928a.223.223,0,0,1,.2-.135,3.389,3.389,0,0,0,.682-.111.223.223,0,0,1,.229.066l.667.76a.225.225,0,0,0,.287.043l.625-.385a.226.226,0,0,0,.09-.278l-.382-.93a.225.225,0,0,1,.043-.236,3.135,3.135,0,0,0,.387-.538.225.225,0,0,1,.207-.116L67.2,73.3a.225.225,0,0,0,.232-.173l.168-.717A.226.226,0,0,0,67.469,72.155Z" transform="translate(-58.747 -67.317)" fill="#0ce6ad"/>
    </g>
    <g id="Group_6480" data-name="Group 6480" transform="translate(21.931 16.769)">
      <path id="Path_14452" data-name="Path 14452" d="M36.507,19.862a1.561,1.561,0,0,1,1.718.074,1.84,1.84,0,0,1,.624.911q.847-.1,1.659-.185a3.112,3.112,0,0,0-.063-.314.225.225,0,0,1,.067-.228l.747-.651a.226.226,0,0,0,.044-.288l-.385-.626a.225.225,0,0,0-.276-.091l-.919.368a.224.224,0,0,1-.234-.045,3.256,3.256,0,0,0-.554-.4.224.224,0,0,1-.115-.213l.081-.988a.225.225,0,0,0-.172-.237L38,16.775a.226.226,0,0,0-.261.133l-.38.911a.223.223,0,0,1-.2.136,3.289,3.289,0,0,0-.68.112A.224.224,0,0,1,36.251,18l-.667-.76A.226.226,0,0,0,35.3,17.2l-.625.385a.226.226,0,0,0-.09.278l.381.928a.224.224,0,0,1-.045.239,3.241,3.241,0,0,0-.414.545.225.225,0,0,1-.206.113l-.995-.059a.226.226,0,0,0-.232.17l-.179.708a.226.226,0,0,0,.128.262l.924.406a.225.225,0,0,1,.132.194c0,.079.018.157.03.236q.847-.164,1.67-.3A1.557,1.557,0,0,1,36.507,19.862Z" transform="translate(-32.884 -16.769)" fill="#ff673c"/>
      <path id="Path_14453" data-name="Path 14453" d="M42.168,27.14l-.929-.392a.225.225,0,0,1-.136-.2,3.271,3.271,0,0,0-.034-.352q-.812.081-1.659.185a3.321,3.321,0,0,1,.109.387.25.25,0,0,1,0,.12,1.619,1.619,0,0,1-2.961.651,1.534,1.534,0,0,1-.219-.709q-.822.139-1.67.3a3.548,3.548,0,0,0,.09.427.225.225,0,0,1-.069.234l-.769.654a.226.226,0,0,0-.046.29l.385.625a.225.225,0,0,0,.275.091l.951-.375a.224.224,0,0,1,.233.044,3.25,3.25,0,0,0,.556.4.225.225,0,0,1,.116.21l-.068,1.007a.225.225,0,0,0,.17.234l.7.178a.225.225,0,0,0,.263-.131l.392-.928a.224.224,0,0,1,.2-.135,3.327,3.327,0,0,0,.682-.111.225.225,0,0,1,.229.066l.667.76a.225.225,0,0,0,.287.043l.625-.385a.226.226,0,0,0,.09-.278l-.382-.93a.225.225,0,0,1,.044-.236,3.183,3.183,0,0,0,.387-.539.225.225,0,0,1,.207-.116l1.021.055a.225.225,0,0,0,.232-.174L42.3,27.4A.225.225,0,0,0,42.168,27.14Z" transform="translate(-33.445 -22.302)" fill="#ff673c"/>
    </g>
  </g>
</svg>
