<svg xmlns="http://www.w3.org/2000/svg" width="131.721" height="101.382" viewBox="0 0 131.721 101.382">
  <g id="Group_7206" data-name="Group 7206" transform="translate(1562.433 1087.602)">
    <g id="Embedded_Comms_Icon" data-name="Embedded Comms Icon" transform="translate(-1562.433 -1087.602)">
      <g id="Group_6964" data-name="Group 6964" transform="translate(15.231 24.924)">
        <path id="Path_14839" data-name="Path 14839" d="M-1446.535-1028l-.133-.129v.112h-2.107a5.535,5.535,0,0,1-1.731-.3v39.865a3.277,3.277,0,0,1-3.068,3.475,3.331,3.331,0,0,1-.407,0h-69.5a3.279,3.279,0,0,1-3.475-3.069,3.308,3.308,0,0,1,0-.406v-48.653h25.5a18.361,18.361,0,0,1-.789-17.376h-21.233a10.243,10.243,0,0,0-10.428,10.054q0,.185,0,.37v55.6a10.243,10.243,0,0,0,10.057,10.425c.123,0,.246,0,.369,0h69.509a10.242,10.242,0,0,0,10.426-10.056c0-.123,0-.246,0-.369v-39.879A21.808,21.808,0,0,1-1446.535-1028Zm-64.5-18.509a1.815,1.815,0,0,1,1.815,1.815,1.815,1.815,0,0,1-1.815,1.816,1.816,1.816,0,0,1-1.816-1.816h0a1.816,1.816,0,0,1,1.816-1.815h0Zm-7.18,0a1.816,1.816,0,0,1,1.815,1.815,1.816,1.816,0,0,1-1.815,1.816,1.816,1.816,0,0,1-1.815-1.816h0a1.816,1.816,0,0,1,1.815-1.815h0Zm-7.181,0a1.815,1.815,0,0,1,1.818,1.813,1.816,1.816,0,0,1-1.813,1.818,1.816,1.816,0,0,1-1.818-1.813h0a1.817,1.817,0,0,1,1.815-1.816Z" transform="translate(1540.149 1054.487)" fill="#079cee"/>
        <g id="Group_6963" data-name="Group 6963" transform="translate(24.759 25.308)">
          <g id="Group_6962" data-name="Group 6962">
            <g id="Group_6951" data-name="Group 6951">
              <path id="Path_14840" data-name="Path 14840" d="M-1455.315-1016.833h-51.973a2.015,2.015,0,0,1-2.015-2.015,2.016,2.016,0,0,1,2.015-2.016h51.973a2.016,2.016,0,0,1,2.016,2.016,2.016,2.016,0,0,1-2.016,2.015Z" transform="translate(1509.303 1020.864)" fill="#b4e1f9"/>
            </g>
            <g id="Group_6954" data-name="Group 6954" transform="translate(0 8.079)">
              <g id="Group_6952" data-name="Group 6952" transform="translate(40.936)">
                <path id="Path_14841" data-name="Path 14841" d="M-1446.112-1006.1h-6.789a2.015,2.015,0,0,1-2.015-2.015,2.016,2.016,0,0,1,2.015-2.016h6.789a2.016,2.016,0,0,1,2.016,2.016A2.016,2.016,0,0,1-1446.112-1006.1Z" transform="translate(1454.916 1010.13)" fill="#b4e1f9"/>
              </g>
              <g id="Group_6953" data-name="Group 6953">
                <path id="Path_14842" data-name="Path 14842" d="M-1473.655-1006.1h-33.633a2.015,2.015,0,0,1-2.015-2.015,2.016,2.016,0,0,1,2.015-2.016h33.633a2.016,2.016,0,0,1,2.016,2.016,2.015,2.015,0,0,1-2.016,2.015Z" transform="translate(1509.303 1010.13)" fill="#b4e1f9"/>
              </g>
            </g>
            <g id="Group_6957" data-name="Group 6957" transform="translate(0.001 16.076)">
              <g id="Group_6955" data-name="Group 6955">
                <path id="Path_14843" data-name="Path 14843" d="M-1499.175-995.477h-8.112a2.014,2.014,0,0,1-2.014-2.014,2.014,2.014,0,0,1,2.014-2.015h8.112a2.015,2.015,0,0,1,2.015,2.015,2.015,2.015,0,0,1-2.015,2.014Z" transform="translate(1509.302 999.506)" fill="#b4e1f9"/>
              </g>
              <g id="Group_6956" data-name="Group 6956" transform="translate(15.707 0.169)">
                <path id="Path_14844" data-name="Path 14844" d="M-1462.083-995.253h-24.336a2.014,2.014,0,0,1-2.014-2.014,2.014,2.014,0,0,1,2.014-2.015h24.336a2.015,2.015,0,0,1,2.015,2.015,2.015,2.015,0,0,1-2.015,2.014Z" transform="translate(1488.434 999.282)" fill="#b4e1f9"/>
              </g>
            </g>
            <g id="Group_6960" data-name="Group 6960" transform="translate(0 32.234)">
              <g id="Group_6958" data-name="Group 6958" transform="translate(24.953)">
                <path id="Path_14845" data-name="Path 14845" d="M-1474.137-974.01h11.828a2.015,2.015,0,0,0,2.015-2.014,2.015,2.015,0,0,0-2.015-2.015h-11.828a2.014,2.014,0,0,0-2.014,2.015A2.014,2.014,0,0,0-1474.137-974.01Z" transform="translate(1476.151 978.039)" fill="#b4e1f9"/>
              </g>
              <g id="Group_6959" data-name="Group 6959" transform="translate(0 0.167)">
                <path id="Path_14846" data-name="Path 14846" d="M-1507.288-973.786H-1490a2.016,2.016,0,0,0,2.016-2.015,2.016,2.016,0,0,0-2.016-2.016h-17.292a2.016,2.016,0,0,0-2.015,2.016A2.015,2.015,0,0,0-1507.288-973.786Z" transform="translate(1509.303 977.817)" fill="#b4e1f9"/>
              </g>
            </g>
            <g id="Group_6961" data-name="Group 6961" transform="translate(0.001 24.238)">
              <path id="Path_14847" data-name="Path 14847" d="M-1462.509-984.633h-44.779a2.014,2.014,0,0,1-2.014-2.014,2.014,2.014,0,0,1,2.014-2.015h44.779a2.015,2.015,0,0,1,2.015,2.015,2.015,2.015,0,0,1-2.015,2.014Z" transform="translate(1509.302 988.662)" fill="#b4e1f9"/>
            </g>
          </g>
        </g>
        <path id="Path_14848" data-name="Path 14848" d="M-1533.625-981.766q-.316-.384-.592-.8a10.559,10.559,0,0,1-1.742-5.894h0v-55.6a11,11,0,0,1,.457-3.154,10.209,10.209,0,0,1,9.97-7.27h-6.234a10.243,10.243,0,0,0-10.428,10.054q0,.185,0,.37v55.605a10.243,10.243,0,0,0,10.057,10.425c.123,0,.246,0,.369,0h6.234a10.665,10.665,0,0,1-5.034-1.228A10.045,10.045,0,0,1-1533.625-981.766Z" transform="translate(1542.197 1054.487)" fill="#0081ba"/>
      </g>
      <g id="Group_6968" data-name="Group 6968" transform="translate(0 65.054)">
        <g id="Group_6967" data-name="Group 6967">
          <g id="Group_6965" data-name="Group 6965">
            <path id="Path_14850" data-name="Path 14850" d="M-1557.243-999.557a1.511,1.511,0,0,0-1.509,1.512,1.511,1.511,0,0,0,1.512,1.509,1.51,1.51,0,0,0,1.509-1.511,1.51,1.51,0,0,0-1.511-1.51Z" transform="translate(1561.522 1000.773)" fill="#ff6f47"/>
            <path id="Path_14851" data-name="Path 14851" d="M-1561.734-1001.172a.7.7,0,0,0-.7.7.7.7,0,0,0,.7.7.7.7,0,0,0,.7-.7h0A.7.7,0,0,0-1561.734-1001.172Z" transform="translate(1562.433 1001.172)" fill="#ff6f47"/>
          </g>
        </g>
      </g>
      <g id="Group_6971" data-name="Group 6971" transform="translate(96.522 59.873)">
        <g id="Group_6969" data-name="Group 6969">
          <path id="Path_14853" data-name="Path 14853" d="M-1404.773-997.936c-1.621-.844-3.577-1.585-5.111-3.325a13.49,13.49,0,0,0-18.876-2.765,13.491,13.491,0,0,0-2.765,18.877,13.491,13.491,0,0,0,18.877,2.765,13.481,13.481,0,0,0,4.068-4.9c1.8-3.128,2.4-3.207,4.268-5.989C-1403.231-994.88-1402.76-996.889-1404.773-997.936Z" transform="translate(1434.195 1007.719)" fill="#00bf8c"/>
          <path id="Path_14854" data-name="Path 14854" d="M-1392.974-1001.625a2.108,2.108,0,0,0-.023,2.981,2.107,2.107,0,0,0,2.98.023,2.107,2.107,0,0,0,.024-2.98l0,0A2.107,2.107,0,0,0-1392.974-1001.625Z" transform="translate(1424.156 1006.614)" fill="#00bf8c"/>
          <path id="Path_14855" data-name="Path 14855" d="M-1388.349-1007.766a.97.97,0,0,0-1.373-.009.97.97,0,0,0-.009,1.373.971.971,0,0,0,1.373.009h0a.97.97,0,0,0,.01-1.372Z" transform="translate(1423.268 1008.055)" fill="#00bf8c"/>
        </g>
        <g id="surface1-2" transform="translate(6.682 7.096)">
          <g id="Group_6970" data-name="Group 6970">
            <path id="Path_14856" data-name="Path 14856" d="M-1423.786-988.285c.887-.77,1.791-1.239,2.676-.48l.527.452c.386.333,1.112,1.892,3.86-1.31s1.1-3.681.711-4.01l-.531-.458c-.881-.757-.555-1.721.075-2.716l.376-.6c.628-.99,1.319-1.642,2.2-.887l.479.413a4.441,4.441,0,0,1,1.755,2.939c.33,2.095-.658,4.5-2.932,7.15s-4.507,3.989-6.628,3.977a4.482,4.482,0,0,1-3.172-1.292l-.479-.415c-.882-.753-.341-1.536.547-2.3Z" transform="translate(1425.317 998.627)" fill="#fff"/>
          </g>
        </g>
      </g>
      <g id="Group_6972" data-name="Group 6972" transform="translate(73.878 17.616)">
        <path id="Path_14857" data-name="Path 14857" d="M-1440.943-1064.194a1.874,1.874,0,0,0-1.715,1.41l-4.961,18.67a1.882,1.882,0,0,0,1.214,2.368,1.881,1.881,0,0,0,2.368-1.214,1.72,1.72,0,0,0,.047-.175v0l4.958-18.671a1.874,1.874,0,0,0-1.292-2.315A1.868,1.868,0,0,0-1440.943-1064.194Z" transform="translate(1460.181 1064.197)" fill="#9a59c5"/>
        <path id="Path_14858" data-name="Path 14858" d="M-1456.078-1060.85h-.029a1.872,1.872,0,0,0-1.272.61l-6.388,6.818a1.877,1.877,0,0,0,0,2.576l6.39,6.814a1.881,1.881,0,0,0,2.656.161,1.882,1.882,0,0,0,.162-2.656l-.02-.022c-.019-.02-.038-.041-.057-.059l-5.182-5.526,5.182-5.526a1.877,1.877,0,0,0-.027-2.655,1.874,1.874,0,0,0-1.413-.534Z" transform="translate(1464.279 1063.37)" fill="#9a59c5"/>
        <path id="Path_14859" data-name="Path 14859" d="M-1431.058-1060.85h-.179a1.877,1.877,0,0,0-1.765,1.983,1.876,1.876,0,0,0,.531,1.2l5.194,5.526-5.194,5.526a1.882,1.882,0,0,0,.084,2.661,1.882,1.882,0,0,0,2.66-.084h0l6.384-6.812a1.877,1.877,0,0,0,0-2.577l-6.383-6.812A1.881,1.881,0,0,0-1431.058-1060.85Z" transform="translate(1456.545 1063.369)" fill="#9a59c5"/>
      </g>
      <path id="Path_14860" data-name="Path 14860" d="M-1435.739-1039.639h-2.108a2.189,2.189,0,0,1-2.189-2.189,2.189,2.189,0,0,1,2.189-2.189h2.224a13.924,13.924,0,0,0,13.414-12.063c.753-5.525-1.777-10.793-6.937-14.451a9.872,9.872,0,0,0-5.83-1.779,15,15,0,0,0-5.7,1.213,2.258,2.258,0,0,1-1.894-.075,2.207,2.207,0,0,1-1.112-1.365,14.634,14.634,0,0,0-14.052-10.675,14.828,14.828,0,0,0-14.882,14.762v.687a2.215,2.215,0,0,1-2.114,2.312l-.068,0-.405-.006-.385.006a10.75,10.75,0,0,0-10.344,11.113,10.64,10.64,0,0,0,2.409,6.4,1.932,1.932,0,0,1-.279,2.718,1.929,1.929,0,0,1-1.226.433,1.95,1.95,0,0,1-1.541-.741,15.1,15.1,0,0,1,2.746-21.183,15.1,15.1,0,0,1,6.971-2.972,19.127,19.127,0,0,1,20.3-17.881,19.126,19.126,0,0,1,16.451,11.74,25.127,25.127,0,0,1,3.651-.443l.441-.032q.674-.049,1.326-.05c10.434,0,16.38,9.153,16.675,17.763a18.365,18.365,0,0,1-17.706,18.968Z" transform="translate(1544.447 1087.602)" fill="#079cee"/>
    </g>
    <g id="Group_7206-2" data-name="Group 7206" transform="translate(-1554.984 -1032.9)">
      <rect id="Rectangle_1885" data-name="Rectangle 1885" width="26.803" height="19.7" rx="4.7" fill="#ff6f47"/>
      <g id="a533c1fd-facb-4b97-8b18-09efeb25fc47" transform="translate(9.378 5.09)">
        <path id="Path_15980" data-name="Path 15980" d="M-1530.92-1004.083l-8.019-3.982a.789.789,0,0,0-.763,0,.763.763,0,0,0-.375.666v7.949a.762.762,0,0,0,.375.652.715.715,0,0,0,.4.125.811.811,0,0,0,.361-.083l8.019-3.954a.779.779,0,0,0,.43-.694A.751.751,0,0,0-1530.92-1004.083Z" transform="translate(1540.076 1008.162)" fill="#fff"/>
      </g>
    </g>
  </g>
</svg>
