<svg xmlns="http://www.w3.org/2000/svg" width="119.043" height="80.15" viewBox="0 0 119.043 80.15">
  <g id="Group_7209" data-name="Group 7209" transform="translate(1489.71 1223.004)">
    <g id="Group_7207" data-name="Group 7207" transform="translate(-1470.157 -1222.134)">
      <path id="Path_15981" data-name="Path 15981" d="M-1452.894-1205.083a2.345,2.345,0,0,1-1.663-.688,2.352,2.352,0,0,1,0-3.325l4.6-4.6-4.6-4.6a2.352,2.352,0,0,1,0-3.325,2.352,2.352,0,0,1,3.325,0l6.263,6.263a2.352,2.352,0,0,1,0,3.325l-6.263,6.263A2.347,2.347,0,0,1-1452.894-1205.083Z" transform="translate(1475.904 1222.31)" fill="#ff6f47"/>
      <path id="Path_15982" data-name="Path 15982" d="M-1469.371-1189.873a2.351,2.351,0,0,1-2.351-2.351v-17.885a7.213,7.213,0,0,1,7.206-7.205h19.855a2.35,2.35,0,0,1,2.351,2.351,2.35,2.35,0,0,1-2.351,2.351h-19.855a2.507,2.507,0,0,0-2.5,2.5v17.885A2.352,2.352,0,0,1-1469.371-1189.873Z" transform="translate(1471.722 1223.578)" fill="#ff6f47"/>
    </g>
    <path id="Path_15983" data-name="Path 15983" d="M-1409.9-1181.841a16.382,16.382,0,0,0-4.25-.564,16.778,16.778,0,0,0-3.348.339,13.79,13.79,0,0,0-16.183-10.887,13.77,13.77,0,0,0-3.2,1.044,18.478,18.478,0,0,0-23.672-11.071,18.478,18.478,0,0,0-11.071,23.672h0a15.4,15.4,0,0,0-15.165,15.628,15.4,15.4,0,0,0,15.629,15.165h9.391c5.63-4.764,11.836-9.566,18.681-14.281A236.017,236.017,0,0,1-1409.9-1181.841Z" transform="translate(0.742 4.799)" fill="#079cee"/>
    <path id="Path_15984" data-name="Path 15984" d="M-1402.41-1172.029a16.923,16.923,0,0,0-12.538-14.306,236.007,236.007,0,0,0-33.2,19.032c-6.845,4.714-13.052,9.516-18.681,14.281h47.644a16.939,16.939,0,0,0,16.776-14.87,15.643,15.643,0,0,0,0-4.15Z" transform="translate(5.806 9.306)" fill="#078cd6"/>
    <circle id="Ellipse_300" data-name="Ellipse 300" cx="3.172" cy="3.172" r="3.172" transform="translate(-1483.14 -1182.834)" fill="#079cee"/>
    <circle id="Ellipse_301" data-name="Ellipse 301" cx="1.592" cy="1.592" r="1.592" transform="translate(-1489.71 -1184.589)" fill="#079cee"/>
    <path id="Path_14860" data-name="Path 14860" d="M-1398.285-1170.589h-2.3a2.392,2.392,0,0,1-2.391-2.392,2.392,2.392,0,0,1,2.391-2.392h2.431a15.216,15.216,0,0,0,14.659-13.182c.823-6.037-1.942-11.794-7.58-15.793a10.781,10.781,0,0,0-6.372-1.943,16.394,16.394,0,0,0-6.228,1.324,2.466,2.466,0,0,1-2.07-.081,2.418,2.418,0,0,1-1.216-1.492,15.993,15.993,0,0,0-15.356-11.666,16.2,16.2,0,0,0-16.263,16.132v.751a2.423,2.423,0,0,1-2.312,2.528h-.074l-.443-.006-.42.006a11.749,11.749,0,0,0-11.3,12.145,11.622,11.622,0,0,0,2.632,6.991,2.112,2.112,0,0,1-.3,2.97,2.106,2.106,0,0,1-1.34.474,2.131,2.131,0,0,1-1.684-.809,16.507,16.507,0,0,1,3-23.15,16.506,16.506,0,0,1,7.618-3.246,20.9,20.9,0,0,1,22.179-19.541,20.9,20.9,0,0,1,17.978,12.829,27.572,27.572,0,0,1,3.99-.484l.483-.035q.735-.053,1.449-.054c11.4,0,17.9,10,18.223,19.412a20.07,20.07,0,0,1-19.35,20.728Z" transform="translate(8.234 0)" fill="#b4e1f9"/>
    <g id="Group_7208" data-name="Group 7208" transform="translate(-1411.505 -1166.642)">
      <path id="Path_15985" data-name="Path 15985" d="M-1418.72-1157.983a2.34,2.34,0,0,1-1.663-.69l-6.263-6.263a2.348,2.348,0,0,1,0-3.324l6.263-6.263a2.348,2.348,0,0,1,3.324,0,2.348,2.348,0,0,1,0,3.324l-4.6,4.6,4.6,4.6a2.348,2.348,0,0,1,0,3.324A2.337,2.337,0,0,1-1418.72-1157.983Z" transform="translate(1427.335 1181.771)" fill="#00bf8c"/>
      <path id="Path_15986" data-name="Path 15986" d="M-1403.364-1162.917h-19.856a2.352,2.352,0,0,1-2.351-2.351,2.351,2.351,0,0,1,2.351-2.351h19.856a2.507,2.507,0,0,0,2.5-2.5v-7.969a2.35,2.35,0,0,1,2.351-2.351,2.351,2.351,0,0,1,2.351,2.351v7.969A7.213,7.213,0,0,1-1403.364-1162.917Z" transform="translate(1427.782 1180.443)" fill="#00bf8c"/>
    </g>
  </g>
</svg>
