<svg xmlns="http://www.w3.org/2000/svg" width="126.228" height="92.255" viewBox="0 0 126.228 92.255">
  <g id="Voice_Services_Icon" data-name="Voice Services Icon" transform="translate(1689.164 1120.916)">
    <path id="Path_14869" data-name="Path 14869" d="M-1614.207-1090.178c1.315-1.306,2.71-2.152,4.188-1.036l.886.664c.641.479,1.962,2.863,6.02-2.489s1.347-5.945.691-6.428l-.887-.68c-1.475-1.1-1.063-2.651-.175-4.3l.532-.985c.89-1.617,1.907-2.745,3.384-1.645l.8.609a7.037,7.037,0,0,1,3.086,4.426c.753,3.279-.556,7.2-3.794,11.629s-6.713,6.788-10.065,6.941a7.06,7.06,0,0,1-5.164-1.714l-.787-.592c-1.492-1.1-.72-2.4.611-3.705Z" transform="translate(3.923 0.722)" fill="#00bf8c"/>
    <path id="Path_14870" data-name="Path 14870" d="M-1613.359-1105.266a2.294,2.294,0,0,1-1.159,1.417,2.354,2.354,0,0,1-1.964.077,15.571,15.571,0,0,0-5.916-1.265,10.232,10.232,0,0,0-6.051,1.847c-5.356,3.8-7.982,9.267-7.2,15a14.45,14.45,0,0,0,1.612,4.887,20.9,20.9,0,0,0-4.239,1.054,18.879,18.879,0,0,1-1.726-8.544c.306-8.938,6.477-18.437,17.307-18.437q.676,0,1.376.051l.459.033a26.241,26.241,0,0,1,3.794.461,19.852,19.852,0,0,1,25.954-10.7,19.853,19.853,0,0,1,12.189,17.081,15.678,15.678,0,0,1,13.166,17.839,15.679,15.679,0,0,1-3.079,7.227,2.024,2.024,0,0,1-1.6.769,2,2,0,0,1-2.013-1.992,2.005,2.005,0,0,1,.45-1.275,11.032,11.032,0,0,0,2.5-6.639,11.16,11.16,0,0,0-10.738-11.536l-.4-.006-.421.006a2.3,2.3,0,0,1-2.266-2.332c0-.023,0-.046,0-.07v-.713a15.387,15.387,0,0,0-15.448-15.313A15.188,15.188,0,0,0-1613.359-1105.266Z" transform="translate(2.646)" fill="#079cee"/>
    <path id="Path_14871" data-name="Path 14871" d="M-1671.152-1064.02a19.346,19.346,0,0,1,3.565.33,13.825,13.825,0,0,1,7.766-9.484,15.731,15.731,0,0,1,12.836-.211c3.7-9.461,14.965-14.345,25.154-10.911s15.455,13.889,11.756,23.349c8.927.261,15.98,7.121,15.847,15.41s-7.407,14.949-16.334,14.964h-60.588c-9.947,0-18.012-7.482-18.012-16.718S-1681.1-1064.02-1671.152-1064.02Z" transform="translate(0 1.912)" fill="#b4e1f9"/>
    <g id="Group_6987" data-name="Group 6987" transform="translate(-1678.197 -1108.522)">
      <g id="Group_6986" data-name="Group 6986">
        <path id="Path_14872" data-name="Path 14872" d="M-1637.146-1059.344a19.321,19.321,0,0,1-3.214-6.75l-.9.751c-1.654,1.37-4.815,7.888-16.183-5.783-11.366-13.655-4.38-15.589-2.724-16.949l2.272-1.9c.135-.111.248-.226.369-.341a16.565,16.565,0,0,1-9.007-8.085,16.181,16.181,0,0,1-1.224-10.168,7.3,7.3,0,0,0-1.017.7l-2.04,1.705a18.789,18.789,0,0,0-7.6,12.271c-3.451,19.917,19.285,47.307,39.532,47.533a18.845,18.845,0,0,0,13.445-5.225l.249-.211A20.335,20.335,0,0,1-1637.146-1059.344Z" transform="translate(1678.757 1109.187)" fill="#9a59c5"/>
        <path id="Path_14873" data-name="Path 14873" d="M-1667.073-1098.366a16.564,16.564,0,0,0,9.007,8.085c3.287-3.089,2-7.026-.482-11.1l-1.553-2.561c-2.347-3.831-4.918-6.472-8.2-4.586A16.184,16.184,0,0,0-1667.073-1098.366Z" transform="translate(1679.302 1109.155)" fill="#6e3f8b"/>
        <path id="Path_14874" data-name="Path 14874" d="M-1627.488-1065.07l-2.213-2c-3.688-3.3-7.461-5.329-11.246-2.2l-1.362,1.139a19.321,19.321,0,0,0,3.214,6.75,20.333,20.333,0,0,0,11.963,7.558l1.8-1.5C-1621.578-1058.446-1623.8-1061.764-1627.488-1065.07Z" transform="translate(1680.719 1111.219)" fill="#6e3f8b"/>
      </g>
    </g>
    <circle id="Ellipse_165" data-name="Ellipse 165" cx="2.285" cy="2.285" r="2.285" transform="translate(-1575.153 -1076.354)" fill="#ff6f47"/>
    <circle id="Ellipse_166" data-name="Ellipse 166" cx="1.709" cy="1.709" r="1.709" transform="translate(-1580.208 -1073.734)" fill="#9a59c5"/>
    <path id="Path_14875" data-name="Path 14875" d="M-1673.121-1052.331a19.115,19.115,0,0,1,26.779-3.695,19.122,19.122,0,0,1,5.163,5.944,15.4,15.4,0,0,1,20.55,6.982c-9.749,3.03-19.441,6.238-29.137,9.43Z" transform="translate(0.864 3.285)" fill="#b4e1f9"/>
    <path id="Path_14876" data-name="Path 14876" d="M-1655.129-1104.521c1.117-.3,2.015-.5,2.578-.632,0,0,4.049-.916,4.813-1.805a4.542,4.542,0,0,0,.436-.61,3.9,3.9,0,0,0,.285-.6,3.9,3.9,0,0,0,.211-.641,1.782,1.782,0,0,0-1.152-1.809,3.8,3.8,0,0,0-.671-.077,4.06,4.06,0,0,0-1.4.142,2.255,2.255,0,0,0-.85.489,25.109,25.109,0,0,0-2.82,3.111c-.17.205-.33.4-.588.712-.368.439-.738.877-1.075,1.357Z" transform="translate(1.82 0.55)" fill="#ff6f47"/>
    <path id="Path_14877" data-name="Path 14877" d="M-1658.9-1106.743c.4-.441,1-1.11,1.674-1.961,1.849-2.33,3.773-4.75,3.077-5.943a1.45,1.45,0,0,0-1.352-.632c-.5.068-.865.485-1.265,1.135a15.917,15.917,0,0,0-1.716,4.78c-.144.563-.372,1.426-.669,2.49Z" transform="translate(1.616 0.303)" fill="#079cee"/>
    <path id="Path_14878" data-name="Path 14878" d="M-1655.608-1101.381c1.043.291,1.891.55,2.472.738a25.475,25.475,0,0,0,3.989,1.008,4.8,4.8,0,0,0,.982.038c.738-.045,1.279-.078,1.628-.483a1.476,1.476,0,0,0,.111-1.652c-.116-.183-.39-.5-1.55-.7-1.189-.2-2.084-.056-5.065.37-.138.019-.457.071-.889.132-.552.078-1.1.156-1.659.267Z" transform="translate(1.807 0.991)" fill="#00bf8c"/>
  </g>
</svg>
