<svg xmlns="http://www.w3.org/2000/svg" width="24.794" height="34.217" viewBox="0 0 24.794 34.217">
  <g id="Group_6473" data-name="Group 6473" transform="translate(-21.603 -10.811)">
    <g id="Group_6472" data-name="Group 6472" transform="translate(21.603 10.811)">
      <path id="Path_14430" data-name="Path 14430" d="M40.173,42.546a.818.818,0,0,0-.813.813v.024a.818.818,0,0,1-.813.813H37.7a.813.813,0,0,0-.813.813V62.1a.817.817,0,0,0,.813.813h9.906a.818.818,0,0,0,.813-.813V45.013a.813.813,0,0,0-.813-.808h-.846a.818.818,0,0,1-.813-.813v-.024a.818.818,0,0,0-.813-.813Z" transform="translate(-30.215 -28.692)" fill="#079CEE"/>
      <circle id="Ellipse_2335" data-name="Ellipse 2335" cx="0.536" cy="0.536" r="0.536" transform="translate(8.811 17.628)" fill="#fff"/>
      <circle id="Ellipse_2336" data-name="Ellipse 2336" cx="0.536" cy="0.536" r="0.536" transform="translate(13.088 17.628)" fill="#fff"/>
      <circle id="Ellipse_2337" data-name="Ellipse 2337" cx="0.536" cy="0.536" r="0.536" transform="translate(15.226 17.628)" fill="#fff"/>
      <g id="Group_6470" data-name="Group 6470" transform="translate(8.811 19.949)">
        <circle id="Ellipse_2338" data-name="Ellipse 2338" cx="0.536" cy="0.536" r="0.536" transform="translate(0 1.955)" fill="#fff"/>
        <circle id="Ellipse_2339" data-name="Ellipse 2339" cx="0.536" cy="0.536" r="0.536" transform="translate(2.138 4.183)" fill="#fff"/>
        <circle id="Ellipse_2340" data-name="Ellipse 2340" cx="0.536" cy="0.536" r="0.536" transform="translate(4.277)" fill="#fff"/>
        <circle id="Ellipse_2341" data-name="Ellipse 2341" cx="0.536" cy="0.536" r="0.536" transform="translate(6.415 1.955)" fill="#fff"/>
      </g>
      <circle id="Ellipse_2342" data-name="Ellipse 2342" cx="0.536" cy="0.536" r="0.536" transform="translate(8.811 26.181)" fill="#fff"/>
      <circle id="Ellipse_2343" data-name="Ellipse 2343" cx="0.536" cy="0.536" r="0.536" transform="translate(15.226 26.181)" fill="#fff"/>
      <circle id="Ellipse_2344" data-name="Ellipse 2344" cx="0.536" cy="0.536" r="0.536" transform="translate(13.088 30.457)" fill="#fff"/>
      <circle id="Ellipse_2345" data-name="Ellipse 2345" cx="0.536" cy="0.536" r="0.536" transform="translate(15.226 30.457)" fill="#fff"/>
      <g id="Group_6471" data-name="Group 6471" transform="translate(0 19.038)">
        <path id="Path_14431" data-name="Path 14431" d="M26.96,54.419a.47.47,0,1,1,0,.94H22.82c-.5,0-.277.4-.277.9v10.55c0,.5-.207.907-.47.907s-.47-.409-.47-.907V55.326a.911.911,0,0,1,.907-.907h4.45Z" transform="translate(-21.603 -54.419)" fill="#0ce6ad"/>
      </g>
      <path id="Path_14432" data-name="Path 14432" d="M41.952,14.518A5.781,5.781,0,0,0,40.5,14.7,6.058,6.058,0,0,0,34.8,10.811a6.138,6.138,0,0,0-6.109,5.86,4.807,4.807,0,0,0,.564,9.577h.075V25.116h-.113a3.675,3.675,0,1,1-.263-7.345q.131,0,.263,0a.564.564,0,0,0,.565-.562c0-.015,0-.03,0-.044v-.226a5,5,0,0,1,5-5,4.939,4.939,0,0,1,4.8,3.614.568.568,0,0,0,.287.352.591.591,0,0,0,.47.028,4.728,4.728,0,1,1,1.7,9.173v1.133a5.865,5.865,0,0,0-.08-11.726Z" transform="translate(-23.225 -10.811)" fill="#079CEE"/>
      <path id="Path_14433" data-name="Path 14433" d="M49.115,27.283c-.428-.366-.87-.592-1.293-.22l-.254.22c-.183.16-.531.912-1.88-.62s-.54-1.772-.352-1.932l.254-.226c.423-.366.263-.827-.042-1.306l-.183-.287c-.305-.47-.639-.789-1.062-.423l-.231.2a2.138,2.138,0,0,0-.836,1.41,4.522,4.522,0,0,0,1.41,3.44,4.355,4.355,0,0,0,3.205,1.879,2.149,2.149,0,0,0,1.528-.634l.225-.2c.428-.367.165-.743-.268-1.109Z" transform="translate(-33.776 -17.302)" fill="#a95adf"/>
    </g>
    <circle id="Ellipse_2346" data-name="Ellipse 2346" cx="0.414" cy="0.414" r="0.414" transform="translate(26.617 38.171)" fill="#ff673c"/>
    <circle id="Ellipse_2347" data-name="Ellipse 2347" cx="0.414" cy="0.414" r="0.414" transform="translate(24.968 38.171)" fill="#ff673c"/>
    <circle id="Ellipse_2348" data-name="Ellipse 2348" cx="0.414" cy="0.414" r="0.414" transform="translate(26.617 35.699)" fill="#ff673c"/>
    <circle id="Ellipse_2349" data-name="Ellipse 2349" cx="0.414" cy="0.414" r="0.414" transform="translate(23.323 40.521)" fill="#ff673c"/>
    <circle id="Ellipse_2350" data-name="Ellipse 2350" cx="0.414" cy="0.414" r="0.414" transform="translate(24.968 33.852)" fill="#ff673c"/>
    <path id="Path_14434" data-name="Path 14434" d="M25.542,64.011a.414.414,0,1,0,.418-.409h0a.408.408,0,0,0-.413.4v0" transform="translate(-2.219 -29.745)" fill="#ff673c"/>
    <path id="Path_14435" data-name="Path 14435" d="M25.542,58.826a.414.414,0,1,0,.414-.413.409.409,0,0,0-.414.4v.009" transform="translate(-2.219 -26.821)" fill="#ff673c"/>
    <circle id="Ellipse_2351" data-name="Ellipse 2351" cx="0.414" cy="0.414" r="0.414" transform="translate(43.925 40.723)" fill="#ff673c"/>
    <circle id="Ellipse_2352" data-name="Ellipse 2352" cx="0.414" cy="0.414" r="0.414" transform="translate(40.631 33.937)" fill="#ff673c"/>
    <circle id="Ellipse_2353" data-name="Ellipse 2353" cx="0.414" cy="0.414" r="0.414" transform="translate(42.276 33.937)" fill="#ff673c"/>
    <circle id="Ellipse_2354" data-name="Ellipse 2354" cx="0.414" cy="0.414" r="0.414" transform="translate(40.631 36.409)" fill="#ff673c"/>
    <circle id="Ellipse_2355" data-name="Ellipse 2355" cx="0.414" cy="0.414" r="0.414" transform="translate(42.276 38.256)" fill="#ff673c"/>
    <circle id="Ellipse_2356" data-name="Ellipse 2356" cx="0.414" cy="0.414" r="0.414" transform="translate(43.925 38.256)" fill="#ff673c"/>
    <path id="Path_14436" data-name="Path 14436" d="M65.546,58.13a.414.414,0,0,0-.088.822.421.421,0,0,0,.088,0h3.717a.818.818,0,0,1,.813.813v9.23c0,.47.183.813.409.813s.413-.366.413-.813V58.962a.813.813,0,0,0-.813-.813h-4.54Z" transform="translate(-24.501 -26.66)" fill="#0ce6ad"/>
  </g>
</svg>
