<svg xmlns="http://www.w3.org/2000/svg" width="84.714" height="29.409" viewBox="0 0 84.714 29.409"><path d="M4.874,21A7.243,7.243,0,0,0,6.361,23.44a6.4,6.4,0,0,0,2.251,1.549,7.344,7.344,0,0,0,2.829.537,7,7,0,0,0,2.788-.558A6.859,6.859,0,0,0,16.5,23.4a7.116,7.116,0,0,0,1.508-2.416,8.73,8.73,0,0,0,.537-3.139V0h4.337V28.913h-4.3V26.228a9.957,9.957,0,0,1-3.408,2.354,10.8,10.8,0,0,1-4.234.826A11.463,11.463,0,0,1,6.629,28.6a10.106,10.106,0,0,1-3.47-2.292A10.814,10.814,0,0,1,.847,22.738,12.249,12.249,0,0,1,0,18.091V0H4.337V17.844A8.9,8.9,0,0,0,4.874,21Z" fill="#010202"/><path d="M290.695,0V10.533A11.048,11.048,0,0,1,294.04,8.24a10.03,10.03,0,0,1,4.13-.847,10.892,10.892,0,0,1,4.337.867,10.926,10.926,0,0,1,5.865,5.865,10.79,10.79,0,0,1,.867,4.3,10.642,10.642,0,0,1-.867,4.275,10.98,10.98,0,0,1-5.865,5.845,10.893,10.893,0,0,1-4.337.867,10.174,10.174,0,0,1-4.151-.847,10.973,10.973,0,0,1-3.366-2.292v2.644h-4.13V0Zm.475,21.272a7.187,7.187,0,0,0,1.549,2.313,7.474,7.474,0,0,0,2.313,1.57,7.032,7.032,0,0,0,2.85.578,6.93,6.93,0,0,0,2.809-.578,7.225,7.225,0,0,0,2.292-1.57,7.661,7.661,0,0,0,1.549-2.313,7.031,7.031,0,0,0,.578-2.85,7.178,7.178,0,0,0-.578-2.871,7.592,7.592,0,0,0-1.549-2.334,6.954,6.954,0,0,0-2.292-1.549,7.261,7.261,0,0,0-7.93,1.549,7.41,7.41,0,0,0-1.57,2.334,7.178,7.178,0,0,0-.578,2.871A7.255,7.255,0,0,0,291.17,21.272Z" transform="translate(-260.336)" fill="#010202"/><path d="M552.631,88.083a11.238,11.238,0,0,1,2.272-3.49,10.929,10.929,0,0,1,11.937-2.416,9.991,9.991,0,0,1,3.346,2.292,10.478,10.478,0,0,1,2.189,3.47,11.844,11.844,0,0,1,.785,4.358v1.363H556.018a7.066,7.066,0,0,0,.826,2.375,7.161,7.161,0,0,0,1.549,1.9,7.079,7.079,0,0,0,2.106,1.26,6.88,6.88,0,0,0,2.5.454,7.226,7.226,0,0,0,6.072-3.1l3.015,2.23a11,11,0,0,1-9.087,4.5,11.632,11.632,0,0,1-4.4-.826,10.71,10.71,0,0,1-3.552-2.313,10.974,10.974,0,0,1-2.375-3.49,11.27,11.27,0,0,1-.041-8.571Zm5.8-1.632a7.04,7.04,0,0,0-2.334,3.9h12.846a6.833,6.833,0,0,0-2.292-3.9,6.493,6.493,0,0,0-8.22,0Z" transform="translate(-501.373 -73.915)" fill="#010202"/><path d="M816.252,89.387a5.593,5.593,0,0,0-1.322,3.924V105.29h-4.172V84.224h4.131v2.6a5.869,5.869,0,0,1,2.045-2.024,5.786,5.786,0,0,1,2.995-.744h1.446v3.883h-1.735A4.384,4.384,0,0,0,816.252,89.387Z" transform="translate(-736.659 -76.376)" fill="#010202"/></svg>