<?xml version="1.0" encoding="utf-8"?>
<!-- Generator: Adobe Illustrator 25.2.0, SVG Export Plug-In . SVG Version: 6.00 Build 0)  -->
<svg version="1.1" id="Layer_1" xmlns="http://www.w3.org/2000/svg" xmlns:xlink="http://www.w3.org/1999/xlink" x="0px" y="0px"
	 viewBox="0 0 50 50" style="enable-background:new 0 0 50 50;" xml:space="preserve" height="50">
<g id="Layer_2_1_">
	<g id="Layer_1-2">
		<path style="fill:#A95ADF;" d="M12.3,14.2c0.7,0,1.4,0,2.1,0.2c0.2-0.2,0.4-0.3,0.5-0.5v0c0.1-0.1,0.3-0.2,0.4-0.3
			c-0.1-0.1-0.2-0.1-0.3-0.2c-0.9-0.2-1.9-0.3-2.8-0.3c-0.3,0-0.5,0.3-0.5,0.6C11.8,14,12.1,14.2,12.3,14.2L12.3,14.2L12.3,14.2z"/>
		<circle style="fill:#079CEE;" cx="25.6" cy="27.6" r="17.5"/>
		<path style="fill:#A95ADF;" d="M40.2,17c-0.1,0.1-0.3,0.3-0.4,0.4c0.2,0.3,0.4,0.6,0.6,0.9c0.2-0.2,0.4-0.4,0.6-0.5
			c0.2-0.2,0.2-0.5,0-0.8S40.5,16.7,40.2,17C40.3,16.9,40.3,17,40.2,17L40.2,17z"/>
		<path style="fill:#A95ADF;" d="M38.3,15.2c0.8,0,1.6,0.1,2.4,0.4c0.1,0,0.2,0.1,0.3,0.1c0.3,0,0.5-0.2,0.5-0.5
			c0-0.2-0.1-0.4-0.3-0.5c-0.9-0.4-1.9-0.6-2.9-0.6c-0.3,0-0.5,0.2-0.6,0.5c0,0,0,0,0,0C37.8,14.9,38,15.2,38.3,15.2z"/>
		<path style="fill:#A95ADF;" d="M12.7,39.4c-0.4,0.2-0.9,0.3-1.3,0.5c-0.3,0.1-0.5,0.4-0.4,0.7c0.1,0.2,0.3,0.4,0.5,0.4
			c0,0,0.1,0,0.1,0c0.6-0.2,1.2-0.4,1.8-0.7C13.3,39.9,13,39.7,12.7,39.4z"/>
		<path style="fill:#A95ADF;" d="M9.1,38.6c0-0.3,0-0.6,0.1-0.9c0-0.3-0.1-0.6-0.4-0.6c-0.3,0-0.6,0.1-0.6,0.4c0,0,0,0,0,0
			C8.1,37.9,8,38.2,8,38.6c0,0.7,0.2,1.4,0.6,1.9c0.1,0.1,0.2,0.2,0.4,0.2c0.3,0,0.5-0.2,0.5-0.5c0-0.1-0.1-0.3-0.1-0.4
			C9.2,39.4,9.1,39,9.1,38.6z"/>
		<path style="fill:#A95ADF;" d="M9.3,33.7c-0.2,0.4-0.3,0.7-0.4,1.1c-0.1,0.3,0,0.6,0.3,0.7c0,0,0,0,0,0c0.1,0,0.1,0,0.2,0
			c0.2,0,0.4-0.1,0.5-0.4l0,0C9.7,34.7,9.5,34.2,9.3,33.7z"/>
		<path style="fill:#A95ADF;" d="M43.1,27.3c0.3,0.6,0.5,1.1,0.7,1.7c0.1,0.2,0.3,0.4,0.5,0.4c0.1,0,0.1,0,0.2,0
			c0.3-0.1,0.4-0.4,0.4-0.7c0,0,0,0,0,0c-0.3-0.9-0.7-1.8-1.2-2.6c-0.1-0.2-0.4-0.3-0.7-0.2C43.1,26.4,43.1,26.9,43.1,27.3z"/>
		<path style="fill:#A95ADF;" d="M23.3,9.1c0.8,0.3,1.6,0.6,2.3,1c0.2,0,0.4,0,0.6,0c0.1-0.1,0.2-0.1,0.2-0.2c0.1-0.3,0-0.6-0.2-0.7
			c0,0,0,0,0,0c-0.8-0.5-1.7-0.8-2.6-1.1C23.4,8,23.1,8.1,23,8.4C22.9,8.7,23,9,23.3,9.1C23.3,9.1,23.3,9.1,23.3,9.1z"/>
		<path style="fill:#A95ADF;" d="M20.8,10.8c0-0.6,0.1-1.2,0.5-1.6c0.2-0.2,0.2-0.5,0-0.8c0,0,0,0,0,0c-0.2-0.2-0.6-0.2-0.8,0
			c-0.6,0.7-0.9,1.6-0.8,2.6v0.2C20.1,11,20.5,10.9,20.8,10.8z"/>
		<path style="fill:#A95ADF;" d="M44.6,31c-0.3-0.1-0.6-0.1-0.7,0.2c-0.3,0.5-0.8,0.8-1.3,0.9c-0.1,0.4-0.2,0.8-0.4,1.2
			c1.1-0.1,2-0.7,2.6-1.6C44.9,31.5,44.9,31.2,44.6,31C44.6,31,44.6,31,44.6,31z"/>
		<path style="fill:#A95ADF;" d="M10.4,18.3c0,0,0.1,0,0.1,0c0.3-0.1,0.5-0.4,0.4-0.7c0,0,0,0,0,0c-0.1-0.5-0.2-1.1-0.3-1.7
			c0-0.2,0-0.5,0.1-0.7c0.1-0.3-0.1-0.5-0.4-0.6C10,14.5,9.7,14.7,9.7,15c-0.1,0.3-0.1,0.7-0.1,1c0,0.6,0.1,1.3,0.3,1.9
			C9.9,18.1,10.1,18.3,10.4,18.3z"/>
		<path style="fill:#A95ADF;" d="M35.3,42.2c0,0.2,0.2,0.3,0.4,0.4c0,0,0.1,0,0.1,0c0.2,0,0.5-0.2,0.5-0.4c0.1-0.3,0.1-0.6,0.2-0.9
			C36.1,41.6,35.7,41.9,35.3,42.2z"/>
		<path style="fill:#A95ADF;" d="M34.2,43.9C34.1,43.9,34,44,34,44c-0.6,0.2-1.3,0.2-1.9-0.1c-0.1,0-0.1,0-0.2,0l-0.3,0.1
			c-0.1,0.1-0.2,0.2-0.2,0.3c-0.1,0.3,0.1,0.6,0.3,0.7c0,0,0,0,0,0c0.5,0.2,1,0.3,1.5,0.3c0.4,0,0.8-0.1,1.2-0.3
			c0.1-0.1,0.3-0.1,0.4-0.2c0.2-0.2,0.3-0.5,0.1-0.8C34.8,43.8,34.4,43.7,34.2,43.9L34.2,43.9z"/>
		<g>
			<defs>
				<circle id="SVGID_1_" cx="25.6" cy="27.6" r="17.5"/>
			</defs>
			<clipPath id="SVGID_2_">
				<use xlink:href="#SVGID_1_"  style="overflow:visible;"/>
			</clipPath>
			<g style="clip-path:url(#SVGID_2_);">
				<path style="fill:#00BF8C;" d="M36.1,13.5L36,13.7l-4.3,1.5c-0.7,0.6-1.3,1.1-1.9,1.8c-0.2,0.4-1.7,0.9-1.7,0.9
					s-4.4,0.3-4.9,0.6c-0.5,0.3-0.4,2.3-0.4,2.3l1.6,3.2c0.1,0.2,0.4,0.3,0.6,0.2c0.3-0.1,0.5-0.3,0.8-0.4c0.3-0.2,0.7-0.3,1.1-0.3
					c0.3,0.1,0.4,0.3,0.5,0.5c0,0.3-0.1,0.6-0.3,0.8c-0.4,0.5-0.9,0.9-1.3,1.4l-1.3,1.5c-0.1,0.1-0.2,0.2-0.3,0.3
					c-0.3,0.5-0.5,1-0.4,1.6l0.1,0.4c0.1,0.6-0.1,1.2-0.4,1.6l-1.2,1.6c-0.1,0.1-0.2,0.2-0.2,0.3l-1.3,2.7c-0.1,0.2-0.3,0.3-0.5,0.3
					H19c-0.2,0-0.3-0.1-0.4-0.3c-0.1-0.2,0-0.5,0.1-0.6l0.1-0.1c0.1-0.1,0.2-0.3,0.2-0.5l-1.2-4.7c0,0,0,0,0-0.1l-0.8-2.2
					c-0.1-0.2-0.1-0.3-0.1-0.5v-0.1c0-0.5-0.3-1-0.8-1.3l-0.1,0c-0.2-0.1-0.5-0.2-0.8-0.1l-1.6,0.2c-0.5,0.1-0.9-0.1-1.3-0.5l-1-1.3
					c-0.2-0.3-0.3-0.6-0.3-0.9v-1.1c0-0.4,0.1-0.7,0.4-1l1.3-1.3c0.1-0.1,0.2-0.2,0.2-0.3l0.4-0.7c0.3-0.4,0.7-0.7,1.3-0.7h1.8
					c0.4,0,0.8,0.2,1.1,0.5c0.3,0.3,0.7,0.5,1.1,0.5H19l0.6-1.9c-0.4-0.4-0.8-0.8-1-1.3c-0.3-0.6-1.8-1.3-2.2-1.3
					c-0.6-0.3-1.2-0.7-1.7-1.2l0,0C21,8.8,29.7,8.7,36.1,13.5L36.1,13.5z"/>
				<path style="fill:#00BF8C;" d="M43.2,27.6c0,6.8-3.9,13-10.1,15.9l-2.3-4.9c0-0.1,0-0.2-0.1-0.2v-1.1c0-0.2-0.1-0.4-0.4-0.5
					l-1.1-0.4c-0.1,0-0.2-0.1-0.2-0.1l-0.3-0.4c-0.1-0.1-0.2-0.3-0.1-0.5c0-0.2,0.2-0.3,0.4-0.4l2.5-0.8c0.2,0,0.4,0,0.5,0.1
					l1.7,1.3c0.1,0.1,0.2,0.1,0.4,0.1h1c0.2,0,0.4-0.1,0.5-0.2c0.1-0.2,0.1-0.4,0-0.5l-1.5-3.1c-0.1-0.1-0.1-0.3,0-0.4
					c0.1-0.1,0.2-0.3,0.3-0.3l0.5-0.2c0.3-0.1,0.4-0.4,0.4-0.7l-0.5-1.6c-0.2-0.8-0.1-1.6,0.3-2.3l0.2-0.3c0.1-0.2,0.3-0.3,0.5-0.3
					h0.7c0.1,0,0.3,0,0.4-0.2c0.1-0.1,0.2-0.2,0.2-0.4v-0.6c0-0.3,0.2-0.5,0.5-0.6l3.1-0.4c0.3,0,0.7,0,1,0.2l0.2,0.1
					c0.2,0.1,0.5,0.2,0.7,0.2h0.4C43.1,25.3,43.2,26.5,43.2,27.6z"/>
			</g>
		</g>
		<path style="fill:#A95ADF;" d="M33.2,45.2c-0.5,0-1-0.1-1.5-0.3c-0.3-0.1-0.4-0.4-0.3-0.7c0,0,0,0,0,0c0.1-0.3,0.4-0.4,0.7-0.3
			c0.6,0.3,1.3,0.3,1.9,0.1c0.1,0,0.2-0.1,0.2-0.1c0.2-0.2,0.6-0.1,0.8,0.1c0.2,0.2,0.1,0.6-0.1,0.8c-0.1,0.1-0.3,0.2-0.4,0.2
			C34,45.2,33.6,45.2,33.2,45.2z M29.5,43.8c-0.1,0-0.2,0-0.3-0.1c-0.8-0.5-1.5-1.1-2.2-1.7c-0.2-0.2-0.3-0.5-0.1-0.7c0,0,0,0,0,0
			c0.2-0.2,0.5-0.3,0.8-0.1c0.7,0.6,1.4,1.1,2.1,1.6c0.2,0.2,0.3,0.5,0.2,0.7C29.9,43.7,29.7,43.8,29.5,43.8z M25.4,40.4
			c-0.1,0-0.3-0.1-0.4-0.2c-0.6-0.6-1.3-1.3-1.9-1.9c-0.2-0.2-0.2-0.5,0-0.8c0,0,0,0,0,0c0.2-0.2,0.6-0.2,0.8,0
			c0.6,0.7,1.3,1.3,1.9,1.9c0.2,0.2,0.3,0.5,0.1,0.8C25.7,40.3,25.6,40.4,25.4,40.4z M21.7,36.5c-0.2,0-0.3-0.1-0.4-0.2
			c-0.6-0.7-1.2-1.4-1.8-2.1c-0.2-0.2-0.2-0.6,0.1-0.8c0.2-0.2,0.6-0.2,0.8,0.1c0.6,0.7,1.2,1.4,1.7,2.1c0.2,0.2,0.2,0.6,0,0.8
			c0,0,0,0,0,0C21.9,36.4,21.8,36.5,21.7,36.5L21.7,36.5z M18.3,32.3c-0.2,0-0.3-0.1-0.4-0.2c-0.5-0.7-1.1-1.5-1.6-2.2
			c-0.2-0.2-0.1-0.6,0.1-0.8c0.2-0.2,0.6-0.1,0.8,0.1c0.5,0.7,1,1.4,1.6,2.2c0.2,0.2,0.1,0.6-0.1,0.8C18.5,32.2,18.4,32.3,18.3,32.3
			z M15.1,27.8c-0.2,0-0.4-0.1-0.5-0.2c-0.5-0.8-1-1.6-1.4-2.3c-0.2-0.3-0.1-0.6,0.2-0.7s0.6-0.1,0.7,0.2l0,0
			c0.4,0.7,0.9,1.5,1.4,2.3c0.2,0.2,0.1,0.6-0.2,0.7C15.4,27.8,15.3,27.9,15.1,27.8L15.1,27.8z M12.4,23.2c-0.2,0-0.4-0.1-0.5-0.3
			c-0.5-0.9-0.9-1.7-1.2-2.5c-0.1-0.3,0-0.6,0.3-0.7c0.3-0.1,0.6,0,0.7,0.3l0,0c0.3,0.8,0.7,1.6,1.1,2.4c0.1,0.3,0,0.6-0.2,0.7
			C12.6,23.2,12.5,23.2,12.4,23.2L12.4,23.2z"/>
		<path style="fill:#A95ADF;" d="M42,33.3c-0.3,0-0.5-0.2-0.5-0.4c-0.1-0.3,0.1-0.6,0.4-0.6c0,0,0,0,0,0c0.7-0.1,1.4-0.4,1.9-1
			c0.1-0.3,0.5-0.4,0.7-0.2c0,0,0,0,0,0c0.3,0.1,0.3,0.5,0.2,0.7c0,0,0,0,0,0c-0.5,0.8-1.3,1.3-2.6,1.6L42,33.3z M44.3,29.4
			c-0.2,0-0.4-0.2-0.5-0.4c-0.3-0.8-0.6-1.6-1.1-2.3c-0.1-0.3-0.1-0.6,0.2-0.7c0.3-0.1,0.6-0.1,0.7,0.2c0.5,0.8,0.9,1.7,1.2,2.6
			c0.1,0.3-0.1,0.6-0.4,0.7c0,0,0,0,0,0C44.4,29.4,44.4,29.4,44.3,29.4z M41.8,24.7c-0.2,0-0.3-0.1-0.4-0.2c-0.5-0.7-1-1.4-1.6-2.1
			c-0.2-0.2-0.2-0.6,0.1-0.7c0,0,0,0,0,0c0.2-0.2,0.6-0.2,0.8,0.1c0.6,0.7,1.2,1.5,1.7,2.2c0.2,0.2,0.1,0.6-0.1,0.8
			C42,24.7,41.9,24.7,41.8,24.7L41.8,24.7z M38.3,20.5c-0.2,0-0.3-0.1-0.4-0.2c-0.6-0.6-1.2-1.3-1.8-1.9c-0.2-0.2-0.2-0.6,0-0.8
			c0.2-0.2,0.5-0.2,0.7,0c0.6,0.6,1.3,1.3,1.9,2c0.2,0.2,0.2,0.5,0,0.8C38.6,20.5,38.5,20.5,38.3,20.5z M34.5,16.7
			c-0.1,0-0.3,0-0.4-0.1c-0.6-0.6-1.3-1.2-2-1.8c-0.2-0.2-0.3-0.5-0.1-0.8c0.2-0.2,0.5-0.2,0.8-0.1c0.7,0.6,1.4,1.2,2,1.8
			c0.2,0.2,0.2,0.5,0,0.8C34.8,16.7,34.7,16.7,34.5,16.7z M30.4,13.2c-0.1,0-0.2,0-0.3-0.1c-0.7-0.6-1.5-1.1-2.2-1.6
			c-0.2-0.2-0.3-0.5-0.1-0.8c0.2-0.2,0.5-0.3,0.8-0.1c0.7,0.5,1.4,1,2.2,1.6c0.2,0.2,0.3,0.5,0.1,0.8C30.8,13.1,30.6,13.2,30.4,13.2
			z"/>
		<path style="fill:#A95ADF;" d="M9.4,35.5c-0.1,0-0.1,0-0.2,0c-0.3-0.1-0.4-0.4-0.3-0.7c0,0,0,0,0,0c0.3-0.9,0.7-1.7,1.1-2.5
			c0.1-0.3,0.5-0.4,0.7-0.2c0.3,0.1,0.4,0.5,0.2,0.7c-0.4,0.8-0.7,1.6-1,2.4C9.8,35.4,9.6,35.5,9.4,35.5z M11.7,30.7
			c-0.1,0-0.2,0-0.3-0.1c-0.3-0.1-0.4-0.5-0.2-0.7c0,0,0,0,0,0c0.5-0.8,1-1.5,1.5-2.3c0.2-0.2,0.5-0.3,0.7-0.1c0,0,0,0,0,0
			c0.2,0.2,0.3,0.5,0.1,0.8c-0.5,0.7-1,1.5-1.5,2.2C12.1,30.6,11.9,30.7,11.7,30.7L11.7,30.7z M14.9,26.3c-0.1,0-0.2,0-0.3-0.1
			c-0.2-0.2-0.3-0.5-0.1-0.8c0.6-0.7,1.2-1.4,1.8-2c0.2-0.2,0.6-0.1,0.8,0.1c0.1,0.2,0.1,0.4,0,0.6c-0.6,0.6-1.2,1.3-1.8,2
			C15.2,26.2,15,26.3,14.9,26.3L14.9,26.3z M18.6,22.5c-0.3,0-0.5-0.2-0.5-0.5c0-0.2,0.1-0.3,0.2-0.4c0.7-0.6,1.4-1.2,2.1-1.7
			c0.2-0.2,0.6-0.1,0.8,0.1c0.2,0.2,0.1,0.6-0.1,0.8c-0.7,0.5-1.4,1.1-2.1,1.7C18.9,22.4,18.7,22.5,18.6,22.5L18.6,22.5z M23,19.3
			c-0.3,0-0.5-0.2-0.5-0.5c0-0.2,0.1-0.4,0.3-0.5c0.7-0.4,1.5-0.9,2.3-1.2l0.2-0.1c0.3-0.1,0.6,0,0.7,0.3c0.1,0.3,0,0.6-0.3,0.7l0,0
			l-0.2,0.1c-0.7,0.3-1.5,0.7-2.2,1.2C23.2,19.3,23,19.3,23,19.3L23,19.3z M27.8,17c-0.3,0-0.5-0.3-0.5-0.6c0-0.2,0.1-0.4,0.3-0.5
			c0.8-0.3,1.7-0.6,2.6-0.8c0.3-0.1,0.6,0.1,0.7,0.4c0.1,0.3-0.1,0.6-0.4,0.7c-0.9,0.2-1.7,0.5-2.5,0.8C27.9,17,27.9,17,27.8,17
			L27.8,17z M33,15.6c-0.3,0-0.5-0.3-0.5-0.6c0-0.2,0.2-0.5,0.4-0.5c0.9-0.2,1.8-0.3,2.7-0.4c0.3,0,0.5,0.2,0.6,0.5
			c0,0.3-0.2,0.5-0.5,0.6c-0.9,0.1-1.7,0.2-2.6,0.4L33,15.6z"/>
		<circle style="fill:#A95ADF;" cx="38.6" cy="7.2" r="1.4"/>
		<circle style="fill:#A95ADF;" cx="44.2" cy="40.7" r="1.4"/>
		<circle style="fill:#A95ADF;" cx="1.4" cy="29" r="1.4"/>
		<circle style="fill:#A95ADF;" cx="3.1" cy="24" r="0.7"/>
		<circle style="fill:#A95ADF;" cx="49.3" cy="37" r="0.7"/>
		<circle style="fill:#A95ADF;" cx="32.4" cy="5.4" r="0.7"/>
	</g>
</g>
</svg>
