<svg xmlns="http://www.w3.org/2000/svg" width="111.832" height="25.131" viewBox="0 0 111.832 25.131"><path d="M21.361,20.168,20.1,20.1H8.8L23.874,5.026l-.063-1.255A3.8,3.8,0,0,0,20.1.063L18.848,0H0L.063,1.255A3.9,3.9,0,0,0,3.768,4.963l1.258.063H16.335L1.257,20.1l.063,1.255a3.842,3.842,0,0,0,3.707,3.708l1.257.063H25.131l-.063-1.255A3.88,3.88,0,0,0,21.361,20.168Z" fill="#ffffff"/><path d="M181.451,3.68a12.565,12.565,0,1,0,0,17.77A12.534,12.534,0,0,0,181.451,3.68ZM177.9,17.9a7.539,7.539,0,1,1,0-10.662A7.54,7.54,0,0,1,177.9,17.9Z" transform="translate(-109.738)" fill="#ffffff"/><path d="M269.131,0a10.029,10.029,0,0,0-7.539,3.4,10.055,10.055,0,0,0-13.169-1.68A6.944,6.944,0,0,0,244,0V25.131l1.257-.063a3.792,3.792,0,0,0,3.707-3.706l.063-1.257v-8.8l.063-1.257a5.485,5.485,0,0,1,.617-2.525,5.028,5.028,0,0,1,8.7,0,5.432,5.432,0,0,1,.614,2.521l.063,1.257v8.8l.063,1.255a3.861,3.861,0,0,0,3.708,3.708l1.255.063V11.309l.063-1.257a5.478,5.478,0,0,1,.619-2.53,5.028,5.028,0,0,1,8.7.016,5.509,5.509,0,0,1,.61,2.514l.063,1.255v8.8l.063,1.255a3.846,3.846,0,0,0,3.708,3.708l1.255.063V10.052A10.052,10.052,0,0,0,269.131,0Z" transform="translate(-167.351)" fill="#ffffff"/><path d="M88.573,0h-.016a12.565,12.565,0,1,0,.016,0ZM93.9,17.9a7.539,7.539,0,1,1,0-10.662A7.54,7.54,0,0,1,93.9,17.9Z" transform="translate(-52.126)" fill="#ffffff"/></svg>